<?xml version="1.0" encoding="UTF-8"?>
<svg id="Layer_1" data-name="Layer 1" xmlns="http://www.w3.org/2000/svg" viewBox="0 0 170 170">
  <defs>
    <style>
      .cls-1 {
        fill: #ffc418;
      }
    </style>
  </defs>
  <path class="cls-1" d="M167.41,36.87c-1.48-17.26-14.3-31.16-31.55-33.48-31.71.55-65.63-2.46-97.17-.34C20.58,4.26,7.14,14.64,3.27,32.66c0,20.94-2.06,44.09-.63,64.93,1.16,16.91,13.84,31.35,30.75,33.81,1.3.19,4.66-.18,5.19.58.72,10.86-.39,21.88.58,32.67,1.81,3.06,4.93,4.06,7.98,1.96l43.18-34.38c14.83-1.37,31.37,1.33,45.98-.75,17.07-2.44,29.96-16.71,31.15-33.89,1.35-19.67-1.05-40.88-.03-60.72ZM156.81,98.52c-5.47,32.48-42.47,20.86-65.76,22.87-3.55.31-6.59,1.98-9.33,4.17l-32.33,25.72v-19.52c0-.8-1.03-4.39-1.52-5.23-.51-.88-2.73-3.04-3.62-3.6-3.43-2.19-8.61-1.4-12.79-2.62-9.64-2.81-17.42-12.2-18.22-22.24-1.57-19.81,1.2-41.66.02-61.67,1.65-12.55,11.65-21.98,24.3-22.91,30.9-2.28,64.63,1.69,95.82.08,12.36,1.26,22.57,11.17,23.45,23.76,1.39,19.81-1.07,41.22-.03,61.2Z"/>
</svg>