<?xml version="1.0" encoding="UTF-8"?>
<svg id="Layer_1" data-name="Layer 1" xmlns="http://www.w3.org/2000/svg" viewBox="0 0 170 170">
  <defs>
    <style>
      .cls-1 {
        fill: #c4d6e5;
      }

      .cls-2 {
        fill: #fe3b65;
      }

      .cls-3 {
        fill: #6e9dfe;
      }

      .cls-4 {
        fill: #e3ebf1;
      }

      .cls-5 {
        fill: #598ffe;
      }

      .cls-6 {
        fill: #eff4f9;
      }
    </style>
  </defs>
  <g>
    <g>
      <path class="cls-3" d="M45.66,61.65c.74,16.9-.38,33.98.18,50.92.05,1.41-.03,2.83,0,4.24h77.26c-.23,1.94.76,4.47-1.24,5.66h-33.41c-1.52-2.22-5.22-2.2-6.72,0h-40.84c-.56-.45-1.13-.85-1.07-1.67v-57.47c.3-2.53,4.11-1.46,5.84-1.68Z"/>
      <path class="cls-5" d="M124.51,61.65c1.93.27,4.78-.84,5.83,1.24v58.52l-1.06,1.06h-7.43c2-1.18,1.01-3.71,1.24-5.66h1.24c.03-1.41-.05-2.83,0-4.24.45-13.77.12-27.68,0-41.45-.03-3.17.05-6.34.18-9.47Z"/>
    </g>
    <g>
      <path class="cls-6" d="M63.87,40.08s.19.28.19.6c.18,15.49-.16,31-.02,46.5,10.83,2.27,17.67,10.46,20.08,20.97l.97,5.31v-52.59c0-.14,1.45-.96,1.41-1.5,1.96-.99,4.15-3.04,6.25-4.27,7.73-4.52,16.92-7.03,25.92-6.97.2,0,.26-.02.34.22.02,3.26.06,6.53.03,9.79,0,.12-.18.45-.18.78-.14,14.83.19,29.66-.07,44.49-1.82.28-3.78.16-5.67.34-8.65.84-18.15,4.5-25,9.83-.43.33-1.16.77-1.26,1.31-.68.4-1.21,1.47-2.12,1.06-.15-1-.82-1.95-1.34-2.81-6.15-10.21-16.72-18.24-28.53-20.53,0-11.84-.02-23.69,0-35.53,0-6.6,0-13.2,0-19.8,3.14.47,6.07,1.72,9.02,2.83Z"/>
      <path class="cls-4" d="M124.51,61.65c-.14,3.12-.21,6.29-.18,9.47.13,13.77.46,27.68,0,41.45-10.7-3.87-23-4.35-33.53.32-1.29.57-2.73,1.26-3.95,1.98.1-.54.83-.97,1.26-1.31,6.85-5.33,16.35-8.99,25-9.83,1.88-.18,3.85-.07,5.67-.34.26-14.82-.07-29.66.07-44.49,0-.34.18-.66.18-.78.96.31,4.79,1.26,5.31,1.85.29.33.2,1.21.17,1.68Z"/>
      <g>
        <path class="cls-4" d="M63.87,40.08c-.04-2.71.03-5.43,0-8.13,13.42,2.12,20.91,15.17,21.21,27.93.1.11,1.19-.42,1.41-.53.04.55-1.41,1.36-1.41,1.5v52.59l-.97-5.31c-2.4-10.51-9.25-18.7-20.08-20.97-.13-15.49.21-31,.02-46.5,0-.32-.19-.57-.19-.6Z"/>
        <path class="cls-4" d="M54.86,57.05c0,11.84,0,23.69,0,35.53,11.81,2.29,22.38,10.32,28.53,20.53.52.86,1.19,1.81,1.34,2.81-.76-.34-1.72-1.18-2.53-1.62-11.24-6.09-24.48-6.01-36.36-1.74-.55-16.93.57-34.02-.18-50.92-.02-.38-.07-1.17.03-1.47.17-.5,4.04-1.7,4.79-1.93,1.45-.44,2.94-.74,4.38-1.19Z"/>
        <path class="cls-1" d="M84.73,115.92c.91.4,1.44-.66,2.12-1.06,1.21-.71,2.66-1.4,3.95-1.98,10.53-4.68,22.83-4.19,33.53-.32-.05,1.41.03,2.83,0,4.24h-1.24s-77.26,0-77.26,0c-.03-1.41.05-2.83,0-4.24,11.88-4.28,25.12-4.35,36.36,1.74.82.44,1.78,1.28,2.53,1.62Z"/>
      </g>
    </g>
  </g>
  <path class="cls-2" d="M166.31,85c0,44.91-36.4,81.31-81.31,81.31S3.69,129.91,3.69,85,40.09,3.69,85,3.69s81.31,36.4,81.31,81.31ZM119.62,111.66c5.97,5.91,12,11.8,17.76,17.89.27.23.71.46,1.05.39,2-.42,9.46-13.94,10.56-16.43,14.64-32.94,1.75-71.95-29.49-89.5-25.25-14.19-57.61-11.58-79.49,7.55-.04.28.87,1.44,1.14,1.73,6.69,7.3,14.64,14.47,21.69,21.59,1.26,1.27,2.55,2.54,3.81,3.81,3.56,3.59,7.17,7.15,10.73,10.73,1.26,1.27,2.54,2.54,3.81,3.81,3.57,3.58,7.16,7.16,10.73,10.73.46.46.92.92,1.38,1.38,8.77,8.77,17.49,17.59,26.31,26.31ZM115.47,123.43c-16.13-16.18-32.3-32.33-48.47-48.47-1.38-1.38-2.77-2.77-4.15-4.15-10.36-10.34-20.52-20.9-30.99-31.15-19.29,21.76-22.14,54.32-7.97,79.63,9.54,17.04,26.48,29.76,45.6,34.03,21.37,4.78,44.51-.61,60.86-15.17-4.82-5.04-9.96-9.78-14.88-14.71Z"/>
</svg>