<?xml version="1.0" encoding="UTF-8"?>
<svg id="Layer_1" data-name="Layer 1" xmlns="http://www.w3.org/2000/svg" viewBox="0 0 170 170">
  <defs>
    <style>
      .cls-1 {
        fill: #b4b6bb;
      }

      .cls-2 {
        fill: #878590;
      }

      .cls-3 {
        fill: #fde9b6;
      }

      .cls-4 {
        fill: #ffc418;
      }

      .cls-5 {
        fill: #e5bd89;
      }

      .cls-6 {
        fill: #fdd688;
      }
    </style>
  </defs>
  <path class="cls-4" d="M12.31,40.67c-.38,28.27-.4,57.14,0,85.41.05,3.4-1.25,9.06,3.74,8.82h138.89c3.95-.28,2.72-5.53,2.76-8.49.4-28.41.63-57.42.33-85.73,5-.74,8.8,1.43,10.43,6.19v92.58c-1.29,3.3-3.6,5.87-7.32,6.21-51.21-.18-102.48.29-153.66-.24-3.22-.98-5.64-3.7-5.94-7.1l.02-90.63c.82-5.41,5.55-7.84,10.75-7.01Z"/>
  <path class="cls-5" d="M85.01,129.33c19.19-8.7,40.95-10.41,61.21-4.32,2.08.62,6.82,2.85,8.42,3.02,1.49.15,2.01-.91,3.07-1.63-.04,2.96,1.19,8.21-2.76,8.48H16.05c-4.98.25-3.69-5.41-3.74-8.81.78,1.03,1.63,2,3.07,1.94s6.9-2.55,8.92-3.15c19.99-5.89,41.83-4.24,60.7,4.47Z"/>
  <g>
    <path class="cls-6" d="M158.03,40.67c.3,28.31.08,57.32-.33,85.73-1.06.72-1.58,1.78-3.07,1.63-1.6-.17-6.34-2.39-8.42-3.02-20.25-6.08-42.02-4.38-61.21,4.32V40.67c-.02-2.55.26-5.71,0-8.15,20.31-9.77,44.89-10.85,66.02-2.94,1.36.51,5.72,2.09,6.31,3.14.7,1.23.34,5.14.36,6.82,0,.47.32.95.32,1.13ZM114.6,38.15c-2.26.19-5.17,0-5.18,3,0,4.18,6.05,2.19,8.66,2.11,6.53-.21,13.75.44,20.13,1.74,2.32.47,6.61,2.15,8.59,2.2,2.92.07,3.87-3.6,1.42-5.04-1.67-.98-6.62-1.94-8.71-2.37-7.89-1.63-16.84-2.3-24.9-1.63ZM100.58,40.41c-1.15.11-5.86,1.49-6.62,2.21-1.45,1.37-.93,4.06,1.05,4.5,1.23.27,6.94-1.19,7.94-2.03,2.17-1.83.63-4.97-2.37-4.68ZM114.93,48.91c-4.96.3-15.53,1.84-19.91,3.89-2.09.98-2.77,3.61-.69,4.78,1.85,1.04,8.08-1.33,10.49-1.82,9.47-1.93,15.94-1.45,25.35-1.06,3.72.15,4.67-4.34,1.4-5.33-.94-.29-3.54-.49-4.66-.56-3.69-.21-8.27-.11-11.98.11ZM140.99,51.15c-2.1.42-2.8,3.4-1.01,4.79.7.55,5.53,1.95,6.49,2.01,3.12.2,4.4-3.22,1.89-4.85-1.02-.66-6.26-2.18-7.37-1.96ZM121.75,59.64c-2.09.61-2.28,4.47.33,5.08,3.45.81,8.44.52,12.28,1.09,4.22.63,8.3,1.95,12.45,2.9,3.21.08,3.94-3.94.98-5.25-3.13-1.39-10.52-2.7-14.09-3.19-2.54-.35-9.84-1.25-11.95-.63ZM111.36,59.98c-3.52.13-12.94,2.04-16.14,3.44-3.38,1.47-2.44,5.52,1.03,5.3,1.98-.13,6.02-1.65,8.31-2.14s6.4-.66,8.35-1.43c2.98-1.18,2.03-5.29-1.55-5.16ZM114.61,70.43c-4.05.26-8.74,1.06-12.71,1.96-1.74.4-7.62,1.69-8.38,3.03-.83,1.47-.25,3.58,1.5,3.97s10.86-2.4,13.66-2.82c10.45-1.57,20.79-1.09,31.09,1.09,2.22.47,6.43,2.34,8.39,1.55,1.36-.55,1.71-2.1,1.32-3.43-.52-1.75-6.81-2.97-8.67-3.39-8.57-1.92-17.41-2.53-26.21-1.96ZM127.29,85.88c2.09-1.77.52-4.54-2.34-4.8-7.87-.73-20.66.95-28.21,3.44-1.79.59-3.71.88-3.61,3.25.2,4.69,7.8,1.11,10.38.59,3.74-.76,8.17-1.53,11.96-1.73,2.51-.13,10.24.6,11.82-.74ZM135.44,82.46c-2.26.51-2.58,3.74-.46,4.89.68.37,10.5,2.81,11.48,2.87,3.38.21,4.36-3.49,1.69-4.96-1.72-.94-6.62-2.01-8.7-2.38-1.32-.23-2.65-.72-4.01-.41ZM114.61,91.94c-3.93.27-8.87,1.08-12.72,1.95-2.61.59-11.19,1.99-8.23,6.1,1.61,2.24,7.21-.32,9.6-.81,10.15-2.11,20.49-2.64,30.77-1.09,3.79.57,9.15,2.68,12.44,2.89,2.3.15,3.71-1.37,3.02-3.68-.5-1.67-6.9-2.99-8.67-3.39-8.46-1.89-17.54-2.55-26.21-1.96ZM115.58,102.7c-1.49.17-3.07.33-3.46,2.09-1.13,5.1,7.09,3,9.9,3.01,4.39.02,9.83.7,14.17,1.47,2.97.53,8.08,2.42,10.59,2.48,2.15.05,3.32-1.62,2.7-3.71-.53-1.79-8.37-3.32-10.3-3.71-6.96-1.41-16.57-2.45-23.6-1.63ZM102.2,104.64c-1.15.15-7.12,1.71-7.87,2.24-2.46,1.72-1.14,5.25,2.54,4.83.96-.11,8.33-2.16,8.84-2.57.94-.75,1.07-2.42.49-3.45-.81-1.44-2.59-1.23-4.01-1.04Z"/>
    <path class="cls-2" d="M114.61,91.94c8.66-.59,17.75.07,26.21,1.96,1.77.39,8.17,1.71,8.67,3.39.69,2.32-.72,3.83-3.02,3.68-3.29-.21-8.65-2.32-12.44-2.89-10.27-1.54-20.62-1.01-30.77,1.09-2.39.5-7.99,3.05-9.6.81-2.95-4.11,5.62-5.51,8.23-6.1,3.85-.87,8.79-1.68,12.72-1.95Z"/>
    <path class="cls-2" d="M114.61,70.43c8.79-.57,17.64.04,26.21,1.96,1.86.42,8.15,1.63,8.67,3.39.4,1.34.05,2.88-1.32,3.43-1.96.79-6.16-1.08-8.39-1.55-10.3-2.18-20.64-2.66-31.09-1.09-2.81.42-11.9,3.21-13.66,2.82s-2.33-2.5-1.5-3.97c.76-1.34,6.63-2.64,8.38-3.03,3.97-.9,8.65-1.7,12.71-1.96Z"/>
    <path class="cls-2" d="M114.93,48.91c3.71-.22,8.29-.32,11.98-.11,1.12.06,3.72.27,4.66.56,3.27,1,2.32,5.48-1.4,5.33-9.41-.38-15.88-.87-25.35,1.06-2.41.49-8.64,2.86-10.49,1.82-2.08-1.17-1.4-3.8.69-4.78,4.38-2.05,14.95-3.59,19.91-3.89Z"/>
    <path class="cls-2" d="M114.6,38.15c8.06-.67,17.01,0,24.9,1.63,2.1.43,7.05,1.39,8.71,2.37,2.45,1.44,1.5,5.11-1.42,5.04-1.98-.05-6.26-1.72-8.59-2.2-6.38-1.3-13.6-1.95-20.13-1.74-2.6.08-8.66,2.08-8.66-2.11,0-2.99,2.92-2.81,5.18-3Z"/>
    <path class="cls-2" d="M115.58,102.7c7.03-.82,16.63.22,23.6,1.63,1.93.39,9.77,1.92,10.3,3.71.62,2.08-.55,3.75-2.7,3.71-2.51-.06-7.62-1.95-10.59-2.48-4.34-.78-9.79-1.45-14.17-1.47-2.8-.01-11.02,2.09-9.9-3.01.39-1.76,1.97-1.92,3.46-2.09Z"/>
    <path class="cls-2" d="M127.29,85.88c-1.58,1.34-9.31.6-11.82.74-3.79.2-8.22.97-11.96,1.73-2.58.53-10.18,4.1-10.38-.59-.1-2.37,1.82-2.66,3.61-3.25,7.55-2.49,20.34-4.17,28.21-3.44,2.86.27,4.43,3.03,2.34,4.8Z"/>
    <path class="cls-2" d="M121.75,59.64c2.11-.61,9.41.28,11.95.63,3.56.49,10.95,1.8,14.09,3.19,2.96,1.31,2.22,5.33-.98,5.25-4.14-.96-8.23-2.27-12.45-2.9-3.83-.57-8.83-.28-12.28-1.09-2.6-.61-2.42-4.47-.33-5.08Z"/>
    <path class="cls-2" d="M111.36,59.98c3.58-.13,4.53,3.97,1.55,5.16-1.95.78-6.01.93-8.35,1.43s-6.33,2.02-8.31,2.14c-3.48.22-4.41-3.83-1.03-5.3,3.2-1.39,12.63-3.31,16.14-3.44Z"/>
    <path class="cls-2" d="M135.44,82.46c1.36-.31,2.69.18,4.01.41,2.08.37,6.98,1.44,8.7,2.38,2.68,1.47,1.69,5.17-1.69,4.96-.98-.06-10.8-2.5-11.48-2.87-2.12-1.15-1.79-4.38.46-4.89Z"/>
    <path class="cls-2" d="M102.2,104.64c1.42-.19,3.2-.4,4.01,1.04.58,1.03.45,2.7-.49,3.45-.51.41-7.88,2.46-8.84,2.57-3.69.43-5-3.11-2.54-4.83.75-.52,6.72-2.08,7.87-2.24Z"/>
    <path class="cls-2" d="M100.58,40.41c3-.29,4.54,2.85,2.37,4.68-.99.84-6.71,2.3-7.94,2.03-1.99-.44-2.51-3.13-1.05-4.5.76-.72,5.47-2.1,6.62-2.21Z"/>
    <path class="cls-2" d="M140.99,51.15c1.1-.22,6.34,1.29,7.37,1.96,2.51,1.63,1.23,5.05-1.89,4.85-.95-.06-5.79-1.47-6.49-2.01-1.79-1.39-1.09-4.37,1.01-4.79Z"/>
    <path class="cls-5" d="M85.01,118.25c0-14.32-.31-28.81-.33-43.03-.01-11.42.42-23.05.33-34.55v77.59Z"/>
  </g>
  <path class="cls-3" d="M69.03,26.65c.19,4.47-.33,8.91-.33,13.37-8.53-1.54-17.23-2.49-25.93-1.97-1.69.1-5.31.18-5.87,1.95-1.78,5.61,6.61,3.35,9.45,3.26,7.64-.23,15.17,1.13,22.67,2.3,0,5.32-.02,10.65,0,15.97-6.07-.46-13.34-2.78-19.41-1.97-2.82.38-2.82,4.56-.24,5.16,2.8.65,6.65.39,9.67.76,3.35.41,6.63,1.41,9.98,1.59.02,1.73-.07,3.49,0,5.22-4.96-.43-9.83-1.71-14.82-1.97-8.25-.43-17.24.28-25.28,2.13-1.61.37-6.92,1.6-7.83,2.6-1.74,1.91-.22,4.54,2.44,4.42,2.5-.11,7.56-1.98,10.55-2.51,9.42-1.67,17.76-1.63,27.23-.38,2.27.3,7.11,1.92,9,1.09,1.09-.48.8-1.38.99-2.11.04-.15-.1-.4.05-.59,1.51-.26,4.42-3.3,5.65-3.3,1.83,0,5.4,4.87,7.66,3.57.02,14.22.33,28.71.33,43.03v11.08c-18.87-8.71-40.72-10.37-60.7-4.47-2.02.59-7.5,3.08-8.92,3.15s-2.29-.9-3.07-1.94c-.4-28.26-.38-57.14,0-85.41.03-2.01-.51-7.24.89-8.49,1.06-.94,7.03-3.03,8.71-3.58,15.19-5,31.54-5.48,47.12-1.94ZM27.89,40.41c-1.07.1-5.93,1.55-6.62,2.21-1.45,1.37-.93,4.06,1.05,4.5,1.31.29,7.11-1.29,8.08-2.21,2-1.89.32-4.77-2.52-4.5ZM42.24,48.91c-5.09.31-15.36,1.82-19.91,3.89-2.06.94-2.69,3.65-.69,4.78,1.85,1.04,8.08-1.33,10.49-1.82,9.48-1.94,15.93-1.45,25.35-1.06,3.72.15,4.67-4.34,1.4-5.33-.94-.29-3.54-.49-4.66-.56-3.69-.21-8.28-.12-11.98.11ZM38.66,59.98c-3.47.15-13.52,2.17-16.57,3.66-2.74,1.35-1.95,5.29,1.46,5.07,1.98-.13,6.02-1.65,8.31-2.14s6.4-.66,8.35-1.43c2.99-1.19,2.01-5.31-1.55-5.16ZM54.6,85.88c2.09-1.77.52-4.54-2.34-4.8-7.73-.72-22.13,1.08-29.44,3.83-1.71.64-2.94,2.01-2.11,3.92,1.32,3.03,7.65.02,10.11-.48,3.74-.76,8.17-1.53,11.96-1.73,2.51-.13,10.24.6,11.82-.74ZM62.75,82.46c-2.28.51-2.56,3.91-.46,4.89,3.44.38,8.28,2.66,11.48,2.87,2.31.15,3.71-1.37,3.02-3.68-.45-1.53-5.79-2.7-7.36-3.07s-5.22-1.33-6.68-1ZM41.91,91.94c-3.98.27-8.48,1.1-12.38,1.96-1.9.42-6.12,1.28-7.67,2.11-1.96,1.06-1.79,4.38.46,4.89,1.88.43,6.1-1.29,8.24-1.73,12.6-2.62,23.93-2.63,36.53,0,2.09.44,6.67,2.38,8.46,1.63,1.24-.52,1.6-2.31,1.24-3.51-.48-1.61-6.93-3-8.67-3.39-8.43-1.9-17.57-2.55-26.21-1.96ZM42.88,102.69c-2.27.29-4.44,1.36-3.27,4.06,1.07,2.46,7.55,1.02,10.04,1.05,4.27.04,9.6.71,13.85,1.47,2.97.53,8.08,2.42,10.59,2.48,2.16.05,3.32-1.62,2.7-3.71-.52-1.74-8.13-3.27-10.03-3.66-6.87-1.42-16.97-2.56-23.88-1.69ZM29.51,104.64c-1.15.15-7.12,1.71-7.87,2.24-2.46,1.72-1.14,5.25,2.54,4.83.89-.1,8.4-2.22,8.84-2.57.94-.75,1.07-2.42.49-3.45-.81-1.44-2.59-1.23-4.01-1.04Z"/>
  <path class="cls-2" d="M85.01,32.52c.26,2.44-.02,5.6,0,8.15.09,11.51-.34,23.14-.33,34.55-2.26,1.3-5.83-3.57-7.66-3.57-1.23,0-4.15,3.04-5.65,3.3-.15.19-.01.44-.05.59-2.75.27-2.21-1.27-2.28-3.26-.07-1.73.02-3.49,0-5.22-.02-1.84,0-3.7,0-5.54-.02-5.32,0-10.65,0-15.97,0-1.85-.32-3.96-.33-5.54,0-4.46.52-8.9.33-13.37.14-.29.35-.68.65-.81.99-.45,5.97,1.32,7.34,1.79s7.01,2.54,7.62,3.47c.32.49.3.89.36,1.43Z"/>
  <path class="cls-1" d="M41.91,91.94c8.63-.59,17.78.06,26.21,1.96,1.74.39,8.19,1.77,8.67,3.39.36,1.2,0,2.99-1.24,3.51-1.79.75-6.37-1.2-8.46-1.63-12.6-2.63-23.92-2.61-36.53,0-2.14.44-6.36,2.16-8.24,1.73-2.26-.51-2.42-3.84-.46-4.89,1.55-.83,5.77-1.69,7.67-2.11,3.9-.86,8.41-1.69,12.38-1.96Z"/>
  <path class="cls-1" d="M69.03,72.29c.08,1.99-.47,3.53,2.28,3.26-.19.73.11,1.63-.99,2.11-1.89.83-6.74-.79-9-1.09-9.47-1.25-17.82-1.29-27.23.38-2.99.53-8.05,2.41-10.55,2.51-2.66.12-4.18-2.51-2.44-4.42.91-1,6.22-2.23,7.83-2.6,8.04-1.85,17.03-2.56,25.28-2.13,4.99.26,9.86,1.54,14.82,1.97Z"/>
  <path class="cls-1" d="M42.24,48.91c3.7-.23,8.29-.32,11.98-.11,1.12.06,3.72.27,4.66.56,3.27,1,2.32,5.49-1.4,5.33-9.42-.38-15.87-.87-25.35,1.06-2.41.49-8.64,2.87-10.49,1.82-2-1.13-1.37-3.84.69-4.78,4.54-2.07,14.81-3.58,19.91-3.89Z"/>
  <path class="cls-1" d="M42.88,102.69c6.91-.87,17.01.27,23.88,1.69,1.9.39,9.51,1.92,10.03,3.66.62,2.08-.55,3.75-2.7,3.71-2.51-.06-7.62-1.95-10.59-2.48-4.25-.76-9.58-1.43-13.85-1.47-2.49-.02-8.97,1.42-10.04-1.05-1.17-2.7.99-3.78,3.27-4.06Z"/>
  <path class="cls-1" d="M54.6,85.88c-1.58,1.34-9.31.6-11.82.74-3.79.2-8.22.97-11.96,1.73-2.46.5-8.79,3.51-10.11.48-.84-1.91.4-3.28,2.11-3.92,7.31-2.75,21.71-4.55,29.44-3.83,2.86.27,4.43,3.03,2.34,4.8Z"/>
  <path class="cls-1" d="M68.71,40.01c0,1.58.32,3.69.33,5.54-7.5-1.17-15.02-2.53-22.67-2.3-2.84.09-11.23,2.35-9.45-3.26.56-1.77,4.17-1.85,5.87-1.95,8.7-.52,17.4.42,25.93,1.97Z"/>
  <path class="cls-1" d="M69.03,61.53c0,1.84-.02,3.7,0,5.54-3.35-.18-6.63-1.18-9.98-1.59-3.02-.37-6.87-.11-9.67-.76-2.58-.6-2.58-4.79.24-5.16,6.08-.81,13.34,1.52,19.41,1.97Z"/>
  <path class="cls-1" d="M38.66,59.98c3.56-.15,4.53,3.97,1.55,5.16-1.95.78-6.01.93-8.35,1.43s-6.33,2.02-8.31,2.14c-3.41.22-4.2-3.72-1.46-5.07,3.05-1.5,13.1-3.52,16.57-3.66Z"/>
  <path class="cls-1" d="M62.75,82.46c1.46-.33,5.04.62,6.68,1s6.91,1.54,7.36,3.07c.69,2.32-.71,3.83-3.02,3.68-3.21-.2-8.04-2.49-11.48-2.87-2.1-.98-1.81-4.37.46-4.89Z"/>
  <path class="cls-1" d="M29.51,104.64c1.42-.19,3.2-.4,4.01,1.04.58,1.03.45,2.7-.49,3.45-.44.35-7.95,2.47-8.84,2.57-3.69.43-5-3.11-2.54-4.83.75-.52,6.72-2.08,7.87-2.24Z"/>
  <path class="cls-1" d="M27.89,40.41c2.84-.27,4.52,2.61,2.52,4.5-.97.92-6.77,2.5-8.08,2.21-1.99-.44-2.51-3.13-1.05-4.5.69-.65,5.55-2.1,6.62-2.21Z"/>
</svg>