<?xml version="1.0" encoding="UTF-8"?>
<svg id="Layer_1" data-name="Layer 1" xmlns="http://www.w3.org/2000/svg" viewBox="0 0 170 170">
  <defs>
    <style>
      .cls-1 {
        fill: #3b96d2;
      }

      .cls-2 {
        fill: #fff;
      }

      .cls-3 {
        fill: #414242;
      }

      .cls-4 {
        fill: #ffc418;
      }

      .cls-5 {
        fill: #acc7d6;
      }

      .cls-6 {
        fill: #292b2a;
      }

      .cls-7 {
        fill: #ebeff0;
      }
    </style>
  </defs>
  <g>
    <path class="cls-1" d="M3.2,115.59c-.55-32.93.41-65.92,0-98.86.56-6.21,4.43-11.23,10.53-12.79,38.44-.78,77.22-.78,115.66,0,6.86,2.03,10.06,7.1,10.53,14.07,1.17,17.6,0,37.84,0,55.74-.31.08-.3.37-.32.64l-26.67-26.51c-2.16-1.64-5.46-1.28-7.35.63l-32.42,32.59c-.06-.06-.62-.12-.97-.46-3.55-3.53-10.09-11.26-13.75-13.74-2.56-1.73-5.33-1.3-7.49.77L3.2,115.59ZM47.02,33.63c0-7.54-6.11-13.65-13.65-13.65s-13.65,6.11-13.65,13.65,6.11,13.65,13.65,13.65,13.65-6.11,13.65-13.65Z"/>
    <path class="cls-5" d="M96.16,134.75c-25.81-.21-51.65.28-77.47,0-.54,0-1.42.2-1.75-.32,25.43,1.07,51.88-.32,77.47,0,.54,0,1.42-.2,1.75.32Z"/>
    <path class="cls-5" d="M139.85,98.2c-.09-.03-.19-.07-.28-.1.36-7.86-.41-15.99.03-23.72.02-.27.01-.55.32-.64l-.07,24.46Z"/>
    <circle class="cls-4" cx="33.36" cy="33.63" r="13.65"/>
    <g>
      <path class="cls-3" d="M73.16,81.09c.06.06.11.63.46.97,9.43,9.37,18.75,18.86,28.36,28.15-5.01,7.13-6.98,15.96-5.46,24.54h-.35c-.33-.52-1.21-.31-1.75-.32-25.59-.32-52.04,1.08-77.47,0-5.86-.25-10.57-2.88-12.7-8.54-1.37-3.64-.97-6.54-1.03-10.31l47.75-47.92c2.16-2.07,4.94-2.5,7.49-.77,3.66,2.48,10.2,10.21,13.75,13.74.34.34.91.4.97.46Z"/>
      <path class="cls-6" d="M139.6,74.38c-.44,7.73.33,15.86-.03,23.72-13.83-4.82-29.17.12-37.59,12.1-9.62-9.29-18.93-18.78-28.36-28.15-.34-.34-.4-.91-.46-.97l32.42-32.59c1.89-1.91,5.19-2.27,7.35-.63l26.67,26.51Z"/>
    </g>
    <g>
      <path class="cls-7" d="M161.56,129.05c0-18.1-14.67-32.77-32.77-32.77s-32.77,14.67-32.77,32.77,14.67,32.77,32.77,32.77,32.77-14.67,32.77-32.77ZM134.17,123.57v-9.42c0-2.05-3.59-4.33-5.56-4.28s-5.3,2.32-5.3,4.28v9.42h-9.42c-2.05,0-4.33,3.59-4.28,5.56.05,1.88,2.32,5.3,4.28,5.3h9.42v9.42c0,1.91,3.42,4.26,5.28,4.33,2.07.07,5.58-2.24,5.58-4.33v-9.42h9.42c2.08,0,4.39-3.51,4.33-5.58-.06-1.86-2.42-5.28-4.33-5.28h-9.42Z"/>
      <path class="cls-1" d="M134.17,123.57h9.42c1.91,0,4.26,3.42,4.33,5.28.07,2.07-2.24,5.58-4.33,5.58h-9.42v9.42c0,2.08-3.51,4.39-5.58,4.33-1.86-.06-5.28-2.42-5.28-4.33v-9.42h-9.42c-1.96,0-4.23-3.42-4.28-5.3-.05-1.97,2.23-5.56,4.28-5.56h9.42v-9.42c0-1.96,3.42-4.23,5.3-4.28,1.97-.05,5.56,2.23,5.56,4.28v9.42Z"/>
    </g>
  </g>
  <g>
    <rect class="cls-2" x="90.6" y="87.14" width="76.37" height="79.51" rx="3.38" ry="3.38"/>
    <rect class="cls-4" x="96.73" y="94.84" width="64.11" height="64.11" rx="3.38" ry="3.38"/>
    <g>
      <path class="cls-2" d="M127.64,107.51c4.35-.41,7.82,1.7,8.49,6.16-.25,4.45.33,9.26,0,13.67-.62,8.35-13.82,8.45-14.71.17.25-4.48-.33-9.32,0-13.76.24-3.24,3-5.94,6.21-6.24Z"/>
      <path class="cls-2" d="M130.17,139.4v4.07h4.89c.39,0,1.01.69,1.08,1.09.16,1-.46,1.61-1.42,1.69-3.92.29-8.22-.21-12.18-.02-1.05-.21-1.51-1.55-.76-2.33.11-.11.63-.41.74-.41h4.89v-4.07c-6.67-.49-12.46-6.34-12.89-13.02-.08-1.26-.02-2.9,1.75-2.53,1.18.24.93,1.56,1.02,2.36,1.54,13.87,21.41,13.97,23.01,0,.1-.84-.18-2.17,1.09-2.37,2.26-.35,1.72,2.55,1.48,3.9-1.08,6.2-6.41,11.14-12.69,11.66Z"/>
    </g>
  </g>
</svg>