<?xml version="1.0" encoding="UTF-8"?>
<svg id="Layer_1" data-name="Layer 1" xmlns="http://www.w3.org/2000/svg" viewBox="0 0 170 170">
  <defs>
    <style>
      .cls-1 {
        fill: #3b96d2;
      }

      .cls-2 {
        fill: #fff;
      }

      .cls-3 {
        fill: #414242;
      }

      .cls-4 {
        fill: #ffc418;
      }

      .cls-5 {
        fill: #acc7d6;
      }

      .cls-6 {
        fill: #292b2a;
      }

      .cls-7 {
        fill: #ebeff0;
      }
    </style>
  </defs>
  <g>
    <g>
      <path class="cls-1" d="M6.57,114.33c-.53-31.57.39-63.2,0-94.79.54-5.96,4.25-10.77,10.09-12.27,36.86-.75,74.03-.75,110.89,0,6.58,1.95,9.65,6.8,10.09,13.49,1.12,16.88,0,36.28,0,53.44-.29.08-.29.35-.31.61l-25.58-25.42c-2.07-1.58-5.24-1.23-7.05.6l-31.08,31.25c-.06-.06-.6-.11-.93-.44-3.41-3.38-9.67-10.8-13.18-13.17-2.45-1.66-5.11-1.24-7.18.74L6.57,114.33ZM48.58,35.74c0-7.23-5.86-13.09-13.09-13.09s-13.09,5.86-13.09,13.09,5.86,13.09,13.09,13.09,13.09-5.86,13.09-13.09Z"/>
      <path class="cls-5" d="M95.7,132.7c-24.75-.2-49.52.27-74.27,0-.52,0-1.36.2-1.68-.31,24.38,1.03,49.74-.31,74.27,0,.52,0,1.36-.2,1.68.31Z"/>
      <path class="cls-5" d="M137.59,97.66c-.09-.03-.18-.06-.27-.1.34-7.54-.39-15.33.03-22.75.01-.26.01-.53.31-.61l-.06,23.45Z"/>
      <circle class="cls-4" cx="35.49" cy="35.74" r="13.09"/>
      <g>
        <path class="cls-3" d="M73.65,81.25c.06.06.11.6.44.93,9.04,8.99,17.97,18.08,27.19,26.99-4.81,6.84-6.69,15.3-5.24,23.53h-.34c-.32-.5-1.16-.3-1.68-.31-24.53-.3-49.9,1.03-74.27,0-5.61-.24-10.13-2.76-12.18-8.19-1.31-3.49-.93-6.27-.99-9.88l45.78-45.95c2.07-1.98,4.73-2.39,7.18-.74,3.51,2.37,9.78,9.79,13.18,13.17.33.33.87.38.93.44Z"/>
        <path class="cls-6" d="M137.35,74.82c-.42,7.41.31,15.21-.03,22.75-13.26-4.62-27.97.12-36.05,11.6-9.22-8.91-18.15-18.01-27.19-26.99-.33-.33-.38-.87-.44-.93l31.08-31.25c1.81-1.83,4.98-2.18,7.05-.6l25.58,25.42Z"/>
      </g>
      <g>
        <path class="cls-7" d="M158.41,127.24c0-17.36-14.07-31.42-31.42-31.42s-31.42,14.07-31.42,31.42,14.07,31.42,31.42,31.42,31.42-14.07,31.42-31.42ZM132.14,121.98v-9.03c0-1.97-3.44-4.16-5.33-4.11s-5.08,2.23-5.08,4.11v9.03h-9.03c-1.97,0-4.16,3.44-4.11,5.33s2.23,5.08,4.11,5.08h9.03v9.03c0,1.83,3.28,4.09,5.06,4.15,1.99.07,5.35-2.15,5.35-4.15v-9.03h9.03c2,0,4.21-3.36,4.15-5.35-.06-1.79-2.32-5.06-4.15-5.06h-9.03Z"/>
        <path class="cls-1" d="M132.14,121.98h9.03c1.83,0,4.09,3.28,4.15,5.06.07,1.99-2.15,5.35-4.15,5.35h-9.03v9.03c0,2-3.36,4.21-5.35,4.15-1.79-.06-5.06-2.32-5.06-4.15v-9.03h-9.03c-1.88,0-4.06-3.28-4.11-5.08-.05-1.89,2.14-5.33,4.11-5.33h9.03v-9.03c0-1.88,3.28-4.06,5.08-4.11,1.89-.05,5.33,2.14,5.33,4.11v9.03Z"/>
      </g>
    </g>
    <g>
      <rect class="cls-2" x="90.37" y="87.05" width="73.22" height="76.24" rx="3.38" ry="3.38"/>
      <rect class="cls-4" x="96.25" y="94.43" width="61.47" height="61.47" rx="3.38" ry="3.38"/>
    </g>
  </g>
  <g>
    <path class="cls-2" d="M129.87,114.63l7.6,7.68-.31.4c-4.96,4.89-9.8,9.93-14.83,14.74-2.29,2.19-2.56,2.71-5.73,3.72-1.39.44-3.61,1.19-4.98,1.4s-2.3-.43-2.08-1.91c.84-2.76,1.41-5.71,2.62-8.32,5.66-5.94,11.59-11.63,17.35-17.47l.37-.25Z"/>
    <path class="cls-2" d="M138.36,107.72c1.58-.03,2.76.87,3.83,1.9,4.18,4.04,1.81,6.47-1.57,9.63-.16.15-1.23,1.14-1.31,1.14l-7.47-7.5c-.02-.12.1-.25.16-.34.29-.41,1.09-1.16,1.48-1.58,1.3-1.36,2.86-3.22,4.88-3.25Z"/>
  </g>
</svg>