<?xml version="1.0" encoding="UTF-8"?>
<svg id="Layer_1" data-name="Layer 1" xmlns="http://www.w3.org/2000/svg" viewBox="0 0 170 170">
  <defs>
    <style>
      .cls-1 {
        fill: #ffc418;
      }

      .cls-2 {
        fill: #dba10e;
      }
    </style>
  </defs>
  <path class="cls-1" d="M136.85,45.14l-8.99,9.75c-8.67-.6-17.17,2.57-23.32,8.71-6.16,6.14-9.36,14.64-8.79,23.31-.84-.09-1.62.16-2.22.79l-37.07,37.11-.8,1.61c-10.6-.08-18.84.82-28.78-3.8-12.37-5.74-22.33-19.17-23.85-32.83-.24-2.19-.22-7.1,0-9.32,1.93-19.04,18.64-35.42,37.7-36.96h88.61c2.65,0,5.07.94,7.53,1.62Z"/>
  <path class="cls-2" d="M55.65,126.43l.8-1.61,37.07-37.11c.6-.63,1.38-.88,2.22-.79,1.05,16.08,14.55,28.48,30.64,28.15,16.09-.33,29.08-13.27,29.47-29.38.4-16.11-11.94-29.67-27.99-30.79l8.99-9.75c44.67,12.29,38.02,76.78-7.23,81.28-24.65-.12-49.32.18-73.97,0Z"/>
</svg>