<?xml version="1.0" encoding="UTF-8"?>
<svg id="Layer_1" data-name="Layer 1" xmlns="http://www.w3.org/2000/svg" viewBox="0 0 170 170">
  <defs>
    <style>
      .cls-1 {
        fill: #f1f3f5;
      }

      .cls-2 {
        fill: #dcd8ea;
      }

      .cls-3 {
        fill: #b2e49e;
      }

      .cls-4 {
        fill: #dc5790;
      }

      .cls-5 {
        fill: #d9387d;
      }

      .cls-6 {
        fill: #95d5a3;
      }
    </style>
  </defs>
  <g>
    <path class="cls-3" d="M167.08,109.32c-.19,3.34.26,6.95,0,10.26-1.36,17.31-13.19,34.09-28.52,41.84-3.24,1.64-12.69,5.33-16.03,4.96-6.41-.71-15.98-5.3-21.26-9.03-31.03-21.99-28.89-69.15,4.05-88.15,4.27-2.46,12.69-6.06,17.53-6.36,2.01-.12,5.52.97,7.54,1.6,16.94,5.24,30.42,19.36,35,36.48l1.69,8.4ZM109.71,120.21c-2.17-3.39-4.14-8.1-6.61-11.19-1.58-1.97-3.31-2.45-5.81-1.7-1.11.33-6.59,3.72-7.61,4.57-1.96,1.62-2.1,2.95-1.62,5.45,4.69,7.22,8.63,15.39,13.38,22.53,2.89,4.34,4.61,2.95,9.06,2.77,3.29-.13,7.31.79,9.21-2.65l19.87-40.08c.9-1.68.72-3.33-.37-4.87-.88-1.25-8.07-4.99-9.68-5.39-2.03-.51-4.09.29-5.13,2.12l-13.97,28.02-.71.41Z"/>
    <path class="cls-6" d="M122.84,62.84c-4.84.3-13.25,3.89-17.53,6.36-32.94,19-35.08,66.15-4.05,88.15,5.27,3.74,14.84,8.32,21.26,9.03-1,.35-2.61.6-3.67.65-33.7,1.75-60.88-25.68-56.27-59.64.03-.21-.03-.44,0-.64,3.32-22.74,22.22-41.1,44.88-44.24,4.12-.57,8.2-.63,12.34-.32.87.07,2.26.28,3.05.64Z"/>
    <path class="cls-1" d="M109.71,120.21l.71-.41,13.97-28.02c1.04-1.83,3.1-2.63,5.13-2.12,1.61.4,8.8,4.14,9.68,5.39,1.09,1.54,1.28,3.19.37,4.87l-19.87,40.08c-1.9,3.44-5.93,2.52-9.21,2.65-4.45.17-6.17,1.57-9.06-2.77-4.75-7.13-8.68-15.3-13.38-22.53-.47-2.5-.33-3.83,1.62-5.45,1.02-.85,6.5-4.24,7.61-4.57,2.5-.75,4.23-.27,5.81,1.7,2.47,3.09,4.44,7.8,6.61,11.19Z"/>
  </g>
  <g>
    <path class="cls-5" d="M60.98,2.89l2.56.64c-10.46.72-24.63,10.08-31.26,17.95-25.88,30.72-8.8,78.07,30.3,85.27-.03.2.03.44,0,.64-25.23,3.74-50.17-12.33-57.46-36.62C-3.17,43.16,11.86,14.44,38.93,5.37l10.82-2.48h11.22Z"/>
    <path class="cls-4" d="M107.46,62.51c-22.66,3.14-41.56,21.5-44.88,44.24C23.48,99.55,6.4,52.2,32.28,21.48c6.63-7.87,20.79-17.22,31.26-17.95,1.99-.14,6.47,1.25,8.5,1.92,23.73,7.83,38.93,32.2,35.42,57.06ZM46.55,76.3c2.88-1.83,6.34-5.8,8.98-8.33,2.77,2.44,7.81,9.65,11.61,9.53,1.44-.04,1.85-.47,2.81-1.2,1.4-1.06,5.65-5.09,6.55-6.43,3.84-5.76-6.06-10.27-8.45-14.52,2.85-4,12.51-9.07,8.31-14.79-.93-1.27-5.11-5.35-6.41-6.25-5.69-3.93-10.6,5.15-14.42,8.33-2.59-2.48-6.11-6.25-8.98-8.33-1.82-1.33-3.8-1.44-5.75-.14-1.01.67-5.67,5.36-6.43,6.39-4.17,5.68,5.4,10.83,8.33,14.74-3.01,4.03-12.67,9.08-8.18,14.91.68.88,5.87,6.12,6.6,6.54,1.45.83,3.2.91,4.71.25.45-.2.57-.61.72-.71Z"/>
    <g>
      <path class="cls-1" d="M55.53,42.64c.06.06.06.56.31.8.77.75,1.87,2.4,2.89,1.94l11.23-11.07c1.3.9,5.47,4.98,6.41,6.25,4.2,5.72-5.46,10.79-8.31,14.79,2.39,4.25,12.29,8.76,8.45,14.52-.9,1.35-5.15,5.37-6.55,6.43l-11.42-11.2c-.63-.11-2.46,2.34-3,2.86-2.63,2.53-6.1,6.5-8.98,8.33-2.3-2.46-7.71-6.03-7.36-9.74s7.39-8.34,9.6-11.26c-2.17-2.87-9.62-7.96-9.64-11.54-.02-3.53,5.15-7.08,7.4-9.46,2.86,2.09,6.39,5.86,8.98,8.33Z"/>
      <path class="cls-2" d="M46.55,34.31c-2.25,2.38-7.42,5.93-7.4,9.46.02,3.57,7.47,8.66,9.64,11.54-2.21,2.92-9.25,7.65-9.6,11.26s5.06,7.28,7.36,9.74c-.15.1-.27.51-.72.71-1.51.66-3.26.57-4.71-.25-.73-.42-5.93-5.66-6.6-6.54-4.49-5.83,5.17-10.88,8.18-14.91-2.93-3.92-12.5-9.06-8.33-14.74.76-1.04,5.42-5.72,6.43-6.39,1.95-1.3,3.93-1.19,5.75.14Z"/>
      <path class="cls-2" d="M69.95,34.31l-11.23,11.07c-1.02.46-2.12-1.19-2.89-1.94-.25-.24-.25-.74-.31-.8,3.82-3.18,8.74-12.26,14.42-8.33Z"/>
      <path class="cls-2" d="M69.95,76.3c-.96.73-1.37,1.15-2.81,1.2-3.81.12-8.85-7.1-11.61-9.53.54-.52,2.38-2.97,3-2.86l11.42,11.2Z"/>
    </g>
  </g>
</svg>