<?xml version="1.0" encoding="UTF-8"?>
<svg id="Layer_1" data-name="Layer 1" xmlns="http://www.w3.org/2000/svg" viewBox="0 0 170 170">
  <defs>
    <style>
      .cls-1 {
        fill: #ffc418;
      }
    </style>
  </defs>
  <path class="cls-1" d="M83.22,1.38c8.91-1.29,15,12.65,20.57,18.17,1.36,1.35,1.69,1.51,3.64,1.22,10.09-1.54,28.39-13.14,30.29,4.46.39,3.64.48,8,.69,11.71.16,2.72-.92,7.53,1.64,9.04,3.9,2.29,11.47,4.12,16.02,6.03,3.87,1.62,8.16,3.46,8.54,8.34.55,7.05-9.51,16.37-12.36,22.8-.85,1.92-.08,2.29.84,3.88,2.63,4.6,11.09,14.97,11.51,19.5,1.06,11.44-15.9,13.09-23.65,16.99-1.92.96-1.97,1.5-2.17,3.69-.53,5.86-.1,12.31-.7,18.25-1.65,16.34-21.67,4.73-30.93,3.35-.39-.1-.75-.05-1.12.07-1.36.45-11,13.66-13.07,15.89-11.45,12.35-19.93-7.63-26.89-14.81-.4-.41-.71-.92-1.27-1.16-.41-.16-.8-.04-1.21.01-6.26.86-15.21,5.45-21.16,5.76-6.14.32-9.72-4.89-10.12-10.47s-.13-11.66-.68-17.23c-.17-1.67-.28-2.29-1.72-3.1-7.59-4.27-29.65-6.23-23.48-19.7,2.6-5.67,8.36-11.63,11.09-17.15.9-1.83.85-1.97-.08-3.73-2.52-4.8-11.5-15.52-11.99-20.05-.46-4.27,1.57-7.34,5.21-9.26,3.05-1.61,19.33-6.92,20.25-8.35.28-.43.33-.84.38-1.34.77-6.54-.03-14.15,1.06-20.64,2.44-14.5,21.09-3.99,29.5-2.7,1.27.19,2.63.26,3.53-.78,4.23-4.5,11.68-17.8,17.83-18.68ZM110.44,58.57c-1.44.19-2.62.87-3.71,1.8l-33.58,33.59c-3.89-2.98-10.28-12.4-15.17-12.75-5.77-.41-9.15,5.52-6.66,10.47l18.22,18.29c2.03,1.33,5.45,1.25,7.46-.09l40.7-40.6c3.39-5.21-1.49-11.48-7.26-10.7Z"/>
</svg>