<?xml version="1.0" encoding="UTF-8"?>
<svg id="Layer_1" data-name="Layer 1" xmlns="http://www.w3.org/2000/svg" viewBox="0 0 170 170">
  <defs>
    <style>
      .cls-1 {
        fill: #969cb4;
      }

      .cls-2 {
        fill: #fedb64;
      }

      .cls-3 {
        fill: #777;
      }

      .cls-4 {
        fill: #f4dbb3;
      }

      .cls-5 {
        fill: #fe6a91;
      }

      .cls-6 {
        fill: #fec750;
      }

      .cls-7 {
        fill: #919191;
      }

      .cls-8 {
        fill: #d23d69;
      }
    </style>
  </defs>
  <path class="cls-2" d="M143.92,54.72c-31.63,31.85-63.34,63.63-95.22,95.22-5.06-4.6-9.67-9.67-14.5-14.5l95.22-94.91c4.78,4.78,9.67,9.47,14.5,14.19Z"/>
  <path class="cls-6" d="M129.42,40.53l-95.22,94.91-14.19-14.19c31.58-31.89,63.39-63.58,95.22-95.22,4.72,4.84,9.41,9.73,14.19,14.5Z"/>
  <g>
    <path class="cls-8" d="M143.92,4.27c1.4.74,3.42,1.18,4.72,2.06,1.87,1.27,5.39,5.25,7.27,7.08.12.71-.23.96-.62,1.43-3.59,4.33-10.24,10.62-14.51,14.5-.39.36-.64.79-1.27.78l-14.19-14.19c4.29-4.22,8.02-9.59,13.87-11.67h4.73Z"/>
    <path class="cls-1" d="M139.51,30.13c4.83,4.83,9.44,9.9,14.5,14.5-3.34,3.39-6.74,6.72-10.09,10.09-4.84-4.72-9.73-9.41-14.5-14.19s-9.47-9.67-14.19-14.5c3.37-3.35,6.7-6.75,10.09-10.09l14.19,14.19Z"/>
    <path class="cls-5" d="M154.01,44.63c-5.06-4.6-9.67-9.67-14.5-14.5.62,0,.87-.43,1.27-.78,4.27-3.87,10.92-10.17,14.51-14.5.39-.47.74-.72.62-1.43,4.8,4.68,10.59,8.66,9.78,16.24-.62,5.75-7.8,11.04-11.67,14.97Z"/>
  </g>
  <g>
    <path class="cls-3" d="M16.54,153.41l-11.67,12.3-.63-.32v-1.89c2.17-5.47,3.82-11.14,5.68-16.71,2.43,1.97,4.42,4.42,6.62,6.62Z"/>
    <path class="cls-4" d="M34.2,135.44c4.83,4.83,9.44,9.9,14.5,14.5-5.41,4.55-18.68,7.72-25.85,10.09-1.51-2.54-4.22-4.53-6.31-6.62-2.2-2.2-4.19-4.65-6.62-6.62,2.21-6.62,4.41-14.87,7.1-21.12.71-1.66,1.63-3.21,2.99-4.42l14.19,14.19Z"/>
    <path class="cls-7" d="M22.85,160.03c-4.9,1.62-11.57,4.56-16.39,5.53-.53.11-1.04.21-1.58.14l11.67-12.3c2.09,2.09,4.79,4.08,6.31,6.62Z"/>
  </g>
</svg>