<?xml version="1.0" encoding="UTF-8"?>
<svg id="Layer_1" data-name="Layer 1" xmlns="http://www.w3.org/2000/svg" viewBox="0 0 170 170">
  <defs>
    <style>
      .cls-1 {
        fill: #2a3647;
      }

      .cls-2 {
        fill: #fff;
      }

      .cls-3 {
        fill: #4fc85b;
      }

      .cls-4 {
        fill: #5de469;
      }

      .cls-5 {
        fill: #d6e7ee;
      }

      .cls-6 {
        fill: #3aab48;
      }
    </style>
  </defs>
  <path class="cls-1" d="M123.18,2.2c6.35,1.39,10.99,6.29,11.69,12.84l.02,140.05c-.32,6.96-5.85,12.98-12.84,13.48l-75.07-.02c-6.73-1.04-11.88-6.62-12.2-13.47l.02-140.05c.66-6.49,5.23-11.13,11.37-12.84h77.01ZM47.39,7.8c-4.32.67-6.95,4.69-7.08,8.84v137.15c.32,4.96,2.54,8.38,7.65,9.25h73.45c3.57-.35,6.54-2.63,7.53-6.1.68-47.61.7-95.5,0-143.11-1.1-6.55-13.38-8.82-15.89-2.76-1.12,2.7.12,5.53-1.29,7.81-.97,1.57-2.57,2.48-4.36,2.79l-44.81.03c-1.92-.21-3.84-1.29-4.78-3.02-1.58-2.92.72-6.28-2.36-9.34-1.97-1.95-5.46-1.94-8.06-1.53Z"/>
  <path class="cls-2" d="M47.39,7.8c2.6-.4,6.09-.42,8.06,1.53,3.07,3.06.78,6.42,2.36,9.34.94,1.73,2.85,2.82,4.78,3.02l44.81-.03c1.79-.31,3.39-1.22,4.36-2.79,1.41-2.28.17-5.1,1.29-7.81,2.51-6.06,14.79-3.79,15.89,2.76.71,47.6.69,95.5,0,143.11-1,3.47-3.96,5.75-7.53,6.11H47.96c-5.11-.87-7.33-4.3-7.65-9.26V16.64c.13-4.15,2.76-8.18,7.08-8.84ZM98.81,46.39v-6.34c0-.14-.84-1.94-1.03-2.22-1.23-1.87-3.17-2.35-5.29-2.5-3.98-.3-12.71-.45-16.5.1-1.62.23-3.18,1.01-4.09,2.4-.19.28-1.03,2.08-1.03,2.22v6.34c-6.61-.17-15.08-.98-16.49,7.39l-.1,73.36c.41,4.83,3.51,7.83,8.3,8.27,14.33-.74,29.67,1.01,43.87.02,4.91-.34,8.07-2.7,8.89-7.69l.03-73.4c-1.04-8.88-9.68-8.18-16.57-7.96Z"/>
  <g>
    <path class="cls-5" d="M95.04,56.91c5.03-.16,11.34-.67,12.1,5.82l-.02,53.6c-.59,3.64-2.9,5.36-6.49,5.61-10.37.72-21.58-.56-32.04-.01-3.5-.32-5.76-2.51-6.06-6.04l.07-53.57c1.03-6.11,7.21-5.52,12.04-5.4v-4.63c0-.1.62-1.42.75-1.62.67-1.02,1.8-1.59,2.99-1.76,2.77-.4,9.15-.29,12.05-.07,1.55.12,2.97.46,3.87,1.83.14.21.75,1.52.75,1.62v4.63ZM70.6,77.32c-.02,4.03,0,8.07,0,12.1,0,7.54-.01,15.1.01,22.65.19,1.23,1.38,1.7,2.47,1.81,7.49.73,16.13-.57,23.74,0,1.43-.27,2.13-.78,2.26-2.25.61-6.68-.01-15.29-.01-22.2,0-4.03.02-8.07,0-12.1-.02-3.58.05-7.17-.05-10.75-.4-1.32-1.71-1.51-2.91-1.6-7.36-.54-15.37.43-22.8,0-1.37.13-2.55.5-2.72,2.02-.35,2.96.02,7.2,0,10.33Z"/>
    <path class="cls-6" d="M99.07,89.42c0,6.9.62,15.52.01,22.2-.13,1.46-.83,1.98-2.26,2.25-7.61-.56-16.26.73-23.74,0-1.09-.11-2.27-.57-2.47-1.81-.03-7.55-.01-15.1-.01-22.65h28.47Z"/>
    <path class="cls-4" d="M99.07,77.32h-28.47c.01-3.13-.35-7.36,0-10.33.18-1.52,1.35-1.9,2.72-2.02,7.43.43,15.44-.54,22.8,0,1.2.09,2.51.29,2.91,1.6.11,3.58.03,7.17.05,10.75Z"/>
    <path class="cls-3" d="M99.07,77.32c.02,4.03,0,8.07,0,12.1h-28.47c0-4.03-.02-8.07,0-12.1h28.47Z"/>
  </g>
</svg>