<?xml version="1.0" encoding="UTF-8"?>
<svg id="Layer_1" data-name="Layer 1" xmlns="http://www.w3.org/2000/svg" viewBox="0 0 170 170">
  <defs>
    <style>
      .cls-1 {
        fill: #f75850;
      }

      .cls-2 {
        fill: #3d3f3e;
      }

      .cls-3 {
        fill: #292b2a;
      }

      .cls-4 {
        fill: #b2423f;
      }

      .cls-5 {
        fill: #fefdfd;
      }

      .cls-6 {
        fill: #d3d7e5;
      }
    </style>
  </defs>
  <g>
    <path class="cls-3" d="M151.28,97.88c-2.74-1.41-7.89-.27-11-.65v66.29c-.06,3.67-5.59,3.13-8.26,2.92-4.6-.36-7.71-3.09-8.52-7.65.96-18.19-1.4-37.9-.05-55.92.57-7.62,7.14-9.36,13.76-8.56,1.2.14,1.73.79,2.74,1.14-.16-9.57.83-18.71-1.71-28.04-2.06-7.57-6.16-15.22-11.85-20.62.27-5.72-.65-11.43-2.71-16.78,14.93,9.35,25.21,25.96,27.21,43.49.92,8.04.07,16.28.36,24.37Z"/>
    <path class="cls-2" d="M151.28,97.88c1.64.84,2.93,3.35,2.91,5.17-.16,18.18.24,36.82,0,54.97-.09,7.19-9.26,5.33-13.9,5.5v-66.29c3.11.38,8.25-.76,10.99.65Z"/>
    <path class="cls-3" d="M154.19,158.02c.24-18.15-.16-36.79,0-54.97,5.36,3.56,10.44,6.32,11.01,13.41.59,7.48.53,19.99,0,27.51-.55,7.84-5.65,9.65-11.01,14.05Z"/>
  </g>
  <g>
    <g>
      <path class="cls-1" d="M126.46,44.86c0-22.9-18.56-41.46-41.46-41.46s-41.46,18.56-41.46,41.46,18.56,41.46,41.46,41.46,41.46-18.56,41.46-41.46ZM72.39,53.26c1.4-1.4,2.8-2.81,4.2-4.2,6.48-6.46,12.95-12.92,19.4-19.4,1.49-1.5,11.8-11.02,11.94-11.85.28-1.6-8.83-6-10.48-6.59-27.8-10-54.93,15.23-46.89,43.66.57,2,5.42,13.25,7.39,12.91,1.01-.18,12.62-12.72,14.43-14.53ZM95.99,38.06c-5.72,5.7-11.43,11.41-17.14,17.14-5.57,5.59-11.37,10.96-16.79,16.7-.27,1.54,8.86,6,10.48,6.59,28.86,10.45,56.53-17.24,46.09-46.09-.59-1.63-5.05-10.75-6.59-10.48-5.52,5.21-10.68,10.79-16.05,16.14Z"/>
      <path class="cls-4" d="M78.86,55.2l10.89,10.94c2.52,1.64,5.88.46,6.26-2.69v-25.39c5.36-5.35,10.52-10.94,16.04-16.14,1.54-.27,6,8.85,6.59,10.48,10.45,28.85-17.23,56.54-46.09,46.09-1.62-.59-10.75-5.05-10.48-6.59,5.42-5.74,11.22-11.11,16.79-16.7Z"/>
      <path class="cls-4" d="M95.99,29.66c1.05-4.66-2.27-9.15-6.8-5.67-2.13,1.64-11.47,12.19-12.6,12.46-3.32.77-8.05-1.19-11.33,1.12-.75.53-1.99,2.1-2.18,3-.29,1.4-.26,6.51-.08,8.02.53,4.39,5.82,5.13,9.38,4.68-1.81,1.8-13.42,14.35-14.43,14.53-1.97.34-6.83-10.91-7.39-12.91C42.52,26.45,69.66,1.22,97.45,11.22c1.65.59,10.76,4.99,10.48,6.59-.14.83-10.45,10.35-11.94,11.85Z"/>
      <path class="cls-5" d="M78.86,55.2c5.7-5.72,11.41-11.44,17.14-17.14v25.39c-.37,3.15-3.73,4.33-6.25,2.69l-10.89-10.94Z"/>
      <path class="cls-5" d="M95.99,29.66c-6.45,6.48-12.92,12.94-19.4,19.4v-12.61c1.13-.26,10.47-10.81,12.6-12.46,4.52-3.48,7.85,1.01,6.8,5.67Z"/>
      <path class="cls-6" d="M76.59,36.45v12.61c-1.4,1.4-2.8,2.81-4.2,4.2-3.56.45-8.86-.29-9.38-4.68-.18-1.51-.2-6.61.08-8.02.18-.9,1.43-2.47,2.18-3,3.28-2.31,8.01-.35,11.33-1.12Z"/>
    </g>
    <g>
      <path class="cls-3" d="M43.58,46.8c-6.55,6.29-11.12,15.56-12.81,24.51-1.48,7.84-.42,16.18-.74,24.15,1.01-.35,1.55-.99,2.74-1.14,6.62-.8,13.19.94,13.76,8.56,1.35,18.01-1.01,37.73-.05,55.92-.71,4.54-3.99,7.29-8.52,7.64-2.66.21-8.19.75-8.26-2.92v-66.29c-3.11.38-8.25-.76-10.99.65.15-11.19-.88-22.13,2.03-33.05,3.75-14.07,13.18-27.1,25.54-34.82-2.05,5.35-2.97,11.06-2.71,16.78Z"/>
      <path class="cls-2" d="M18.72,97.88c2.74-1.41,7.89-.27,11-.65v66.29c-4.65-.17-13.81,1.7-13.91-5.5-.24-18.15.16-36.79,0-54.97-.02-1.82,1.27-4.33,2.91-5.17Z"/>
      <path class="cls-3" d="M15.81,158.02c-5.14-4.25-10.41-6.22-11.01-13.73-.59-7.48-.53-19.99,0-27.51.53-7.54,5.5-9.81,11.01-13.73.16,18.18-.24,36.82,0,54.97Z"/>
    </g>
  </g>
</svg>