<?xml version="1.0" encoding="UTF-8"?>
<svg id="Layer_1" data-name="Layer 1" xmlns="http://www.w3.org/2000/svg" viewBox="0 0 170 170">
  <defs>
    <style>
      .cls-1 {
        fill: #ffaeb0;
      }

      .cls-2 {
        fill: #fec150;
      }

      .cls-3 {
        fill: #989998;
      }

      .cls-4 {
        fill: #e9e9e9;
      }

      .cls-5 {
        fill: #ffc418;
      }

      .cls-6 {
        fill: #ff4b4b;
      }

      .cls-7 {
        fill: #fcd26b;
      }

      .cls-8 {
        fill: #f4f4f4;
      }

      .cls-9 {
        fill: #c1cfd9;
      }
    </style>
  </defs>
  <g>
    <path class="cls-2" d="M45.75,15.23c-.22,3.29.16,6.81,0,10.12-6.91.02-13.84,0-20.75-.02-.84-.01-1.94,1.01-2.1,1.82l.06,129.89c.27,1.16,1.25,1.59,2.36,1.55,18.02-.04,36.04,0,54.06-.02.65,0,1.31,0,1.96,0,6.2,0,12.41.02,18.61,0,5.83-.02,13.92.66,19.44,0,.82-.1,1.48-.27,1.88-1.06l.24-49.23c3.39-5.32,6.75-10.67,10.12-16v71.36c-.41,2.5-2.21,3.85-4.25,5.05H17.34c-2.63-1.13-4.32-2.71-4.58-5.7l.09-142.96c.6-2.52,2.46-4.31,5.01-4.78l27.89-.03Z"/>
    <path class="cls-2" d="M131.63,57.68c-2.81,5.71-6.73,10.93-10.12,16.33l-.24-47.6c-.4-.79-1.06-.97-1.88-1.06-5.52-.65-13.6.02-19.44,0-.44,0-.87,0-1.31,0-.16-3.32.22-6.83,0-10.12h27.59c3.06.43,5.13,2.62,5.4,5.7,1.04,11.68-.81,24.91-.01,36.75Z"/>
    <g>
      <path class="cls-7" d="M147.31,67.15c-5.24,8.37-10.39,16.8-15.67,25.14-3.37,5.33-6.74,10.68-10.12,16-6.86,10.76-13.69,22.61-20.9,32.98-1.96,2.82-2.94,3.43-5.22,5.55-2.32-4.83-7.97-8.48-13.39-8.16,2.71-8.93,13.24-22.79,18.57-31.25.24-.38.25-.89.37-1.08,6.78-10.77,13.79-21.52,20.57-32.33,3.39-5.4,7.31-10.62,10.12-16.33h.33l15.35,9.47Z"/>
      <path class="cls-1" d="M152.53,58.98l-15.35-9.47c2.65-4.09,4.21-9.56,10.3-8.82,1.66.2,7.1,3.58,8.16,4.9,4.07,5.03-.59,9.32-3.11,13.39Z"/>
      <path class="cls-9" d="M152.53,58.98c-1.7,2.75-3.54,5.47-5.22,8.16l-15.35-9.47c1.51-2.86,3.47-5.46,5.22-8.16l15.35,9.47Z"/>
      <path class="cls-3" d="M95.39,146.82s-.04.51-.34.79c-4.26,3.84-9.36,7.17-13.7,10.97-.65,0-1.31,0-1.96,0-.84-.62-1.6-1.56-1.56-2.68,1.57-5.68,2.46-11.61,4.17-17.24,5.42-.31,11.07,3.33,13.39,8.16Z"/>
    </g>
    <g>
      <path class="cls-9" d="M98.65,15.23c.22,3.29-.16,6.81,0,10.12-17.63-.05-35.27-.05-52.9,0,.16-3.32-.22-6.83,0-10.12.5-7.45,10.41-2.5,12.73-4.74,1.87-1.8-1.5-8.39,4.72-8.99s13.06.34,19.13.17c4.45,1.16,2.55,7.8,3.57,8.83,2.18,2.21,12.25-2.73,12.74,4.73Z"/>
      <path class="cls-8" d="M74.98,43.64h25.95c-.44-4.98.6-11,.02-15.86-.14-1.09-.74-1.46-1-2.43h-1.3c-17.64-.05-35.28-.05-52.9,0-6.92.02-13.84,0-20.77-.02-.83,0-1.94,1.02-2.11,1.83l.07,129.89c.28,1.16,1.25,1.57,2.36,1.55,18.03-.05,36.04,0,54.05-.02-.83-.63-1.6-1.55-1.55-2.69,1.57-5.67,2.45-11.6,4.17-17.22,2.71-8.94,13.24-22.8,18.57-31.25.25-.39.25-.9.37-1.09v-57.46h-25.63c-1.71,0-2.64-2.38-1.94-3.94.14-.28,1.41-1.3,1.62-1.3ZM63.08,141.77c-.21,2.31-1.3,4.1-3.77,4.4-4.26.53-15.26.44-19.61.02-2.43-.23-3.8-1.67-4.07-4.1-.46-4.19-.46-15.09,0-19.28.25-2.11,1.34-3.63,3.52-3.98,3.56-.6,16.02-.51,19.84-.09,2.45.25,3.8,1.62,4.07,4.07.51,4.42.42,14.45.02,18.96ZM63.08,101.28c-.21,2.31-1.3,4.1-3.77,4.4-4.26.51-15.26.44-19.61.02-2.43-.25-3.8-1.67-4.07-4.1-.46-4.19-.46-15.09,0-19.28.25-2.13,1.34-3.63,3.52-4,3.56-.6,16.02-.49,19.84-.07,2.45.25,3.8,1.62,4.07,4.07.51,4.42.42,14.45.02,18.96ZM63.08,60.79c-.23,2.62-1.39,4.1-4.1,4.4-4.42.49-14.45.42-18.96,0-2.62-.23-4.1-1.39-4.4-4.07-.46-4.19-.46-15.09,0-19.28.25-2.13,1.34-3.63,3.52-4,3.56-.6,16.02-.49,19.84-.07,2.45.25,3.8,1.62,4.07,4.07.51,4.42.42,14.45.02,18.96ZM91.62,99.8h-16.64c-2.8-1.37-2.62-4.63.74-5.14,2.96-.46,11.83-.42,14.89-.05,3.63.44,4.26,3.56,1.02,5.19ZM96.51,89.34c-6.44-.67-15.02.97-21.18,0-2.85-.46-3.01-4.38-.28-5.14l21.78-.05c3.19.86,2.69,4.47-.32,5.19ZM75.72,54.17c2.96-.46,11.85-.42,14.89-.05,4.12.49,3.82,4.68.67,5.16-2.43.39-13.52.39-15.95,0-2.85-.44-3.36-4.54.39-5.12Z"/>
      <path class="cls-4" d="M99.96,158.58c.15-.93.85-1.04,1-2.1.47-3.5.03-9.62-.01-13.41,0-.55.21-1.45-.33-1.79,7.21-10.37,14.04-22.22,20.9-32.98l-.24,49.23c-.4.79-1.06.97-1.88,1.06-5.52.65-13.6-.02-19.44,0Z"/>
      <path class="cls-8" d="M99.96,158.58c-6.2.02-12.41,0-18.61,0,4.34-3.8,9.44-7.12,13.7-10.97.3-.27.29-.74.34-.79,2.29-2.12,3.27-2.73,5.22-5.55.54.34.33,1.24.33,1.79.05,3.79.49,9.91.01,13.41-.14,1.06-.85,1.18-1,2.1Z"/>
      <path class="cls-4" d="M121.51,74c-6.78,10.81-13.8,21.56-20.57,32.33v-57.47h-25.63c-1.72,0-2.65-2.38-1.95-3.91.13-.3,1.42-1.31,1.63-1.31h25.96c-.45-4.98.6-10.99,0-15.85-.13-1.1-.73-1.48-.99-2.44,5.83.02,13.92-.66,19.44,0,.82.1,1.48.27,1.88,1.06l.24,47.6Z"/>
      <path class="cls-4" d="M75.05,84.19l21.79-.05c3.19.86,2.69,4.47-.33,5.19-6.43-.68-15.02.98-21.19,0-2.85-.45-3-4.37-.28-5.14Z"/>
      <path class="cls-4" d="M75.72,94.66c2.97-.46,11.84-.42,14.9-.05,3.62.44,4.25,3.56,1.01,5.18h-16.64c-2.81-1.36-2.62-4.61.73-5.13Z"/>
      <path class="cls-4" d="M75.72,54.17c2.97-.46,11.85-.42,14.9-.05,4.11.5,3.8,4.68.67,5.17-2.43.38-13.53.39-15.96,0-2.83-.45-3.36-4.54.39-5.12Z"/>
      <g>
        <path class="cls-5" d="M39.14,118.82c3.57-.6,16.04-.49,19.84-.08,2.46.26,3.81,1.62,4.08,4.08.5,4.42.41,14.45.01,18.95-.2,2.31-1.29,4.1-3.76,4.4-4.27.51-15.25.43-19.62,0-2.44-.24-3.79-1.65-4.07-4.1-.47-4.19-.47-15.08,0-19.27.24-2.13,1.35-3.64,3.51-4ZM53.82,125.66c-1.53.46-5.35,7.29-5.95,7.44-.94.24-1.76-3.76-4.4-3.13-4.17,1-.57,5.75.99,7.53,1.56,1.78,3.45,2.74,5.55,1,2.44-2.03,4.72-6.89,6.99-9.33.88-2.16-.94-4.19-3.18-3.51Z"/>
        <path class="cls-8" d="M53.82,125.66c2.24-.68,4.07,1.35,3.18,3.51-2.27,2.43-4.55,7.3-6.99,9.33-2.1,1.74-3.99.78-5.55-1-1.56-1.78-5.15-6.53-.99-7.53,2.64-.63,3.46,3.36,4.4,3.13.59-.15,4.42-6.98,5.95-7.44Z"/>
      </g>
      <path class="cls-6" d="M63.08,101.28c-.21,2.31-1.3,4.1-3.77,4.4-4.26.51-15.26.44-19.61.02-2.43-.25-3.8-1.67-4.07-4.1-.46-4.19-.46-15.09,0-19.28.25-2.13,1.34-3.63,3.52-4,3.56-.6,16.02-.49,19.84-.07,2.45.25,3.8,1.62,4.07,4.07.51,4.42.42,14.45.02,18.96Z"/>
      <g>
        <path class="cls-5" d="M39.14,37.83c3.57-.6,16.04-.49,19.84-.08,2.46.26,3.81,1.62,4.08,4.08.5,4.42.41,14.45.01,18.95-.23,2.63-1.39,4.09-4.09,4.4-4.42.5-14.45.41-18.95.01-2.63-.23-4.09-1.39-4.4-4.09-.47-4.19-.47-15.08,0-19.27.24-2.13,1.35-3.64,3.51-4ZM53.82,44.68c-1.46.44-5.48,7.33-5.95,7.44-.96.24-1.62-3.93-4.66-3.06-3.81,1.1-.2,5.81,1.25,7.46,1.56,1.78,3.45,2.74,5.55,1,.66-.55,6.78-8.72,6.99-9.33.78-2.23-.9-4.2-3.18-3.51Z"/>
        <path class="cls-8" d="M53.82,44.68c2.28-.69,3.96,1.28,3.18,3.51-.21.61-6.34,8.78-6.99,9.33-2.1,1.74-3.99.78-5.55-1-1.45-1.65-5.05-6.36-1.25-7.46,3.04-.88,3.71,3.3,4.66,3.06.46-.12,4.48-7,5.95-7.44Z"/>
      </g>
    </g>
  </g>
  <g>
    <path class="cls-8" d="M42.99,80.99c-1.94.4-.67,3.25-.25,4.41.94,2.63,2.24,5.11,3.63,7.51l-6.21,7.4c-1.26,1.53.46,3.39,2.08,2.29l5.94-6.97c1.36,1.79,2.75,3.6,4.31,5.23.9.94,2.77,3.25,3.99,1.43.89-1.33-.32-1.99-1.07-2.81-1.86-2.02-3.7-4.06-5.2-6.36,2.26-2.55,4.4-5.22,6.69-7.74.46-.5,1.91-1.72,2.05-2.25.37-1.41-.79-2.56-2.13-1.93-.65.31-2.59,2.58-3.2,3.26-1.75,1.94-3.37,4.01-5.12,5.95-1.14-1.85-2.06-3.85-2.82-5.89-.53-1.41-.65-3.94-2.69-3.51Z"/>
    <path class="cls-8" d="M42.99,80.99c2.04-.42,2.16,2.11,2.69,3.51.77,2.04,1.68,4.04,2.82,5.89,1.75-1.94,3.37-4.01,5.12-5.95.61-.68,2.55-2.95,3.2-3.26,1.35-.63,2.5.51,2.13,1.93-.14.54-1.6,1.75-2.05,2.25-2.29,2.52-4.42,5.19-6.69,7.74,1.5,2.3,3.35,4.34,5.2,6.36.75.82,1.96,1.48,1.07,2.81-1.22,1.83-3.09-.48-3.99-1.43-1.56-1.63-2.94-3.43-4.31-5.23l-5.94,6.97c-1.63,1.1-3.35-.76-2.08-2.29l6.21-7.4c-1.4-2.4-2.7-4.88-3.63-7.51-.42-1.16-1.69-4.01.25-4.41Z"/>
  </g>
</svg>