<?xml version="1.0" encoding="UTF-8"?>
<svg id="Layer_1" data-name="Layer 1" xmlns="http://www.w3.org/2000/svg" viewBox="0 0 170 170">
  <defs>
    <style>
      .cls-1 {
        fill: #dc4c56;
      }

      .cls-2 {
        fill: #dbe4e9;
      }

      .cls-3 {
        fill: #fcc153;
      }

      .cls-4 {
        fill: #b68b79;
      }

      .cls-5 {
        fill: #9a6a53;
      }

      .cls-6 {
        fill: #bdd8fc;
      }

      .cls-7 {
        fill: #6d7c84;
      }

      .cls-8 {
        fill: #b2e49f;
      }

      .cls-9 {
        fill: #dc6871;
      }

      .cls-10 {
        fill: #95d5a3;
      }

      .cls-11 {
        fill: #fecf64;
      }

      .cls-12 {
        fill: #f5f8f9;
      }

      .cls-13 {
        fill: #e8ecf0;
      }

      .cls-14 {
        fill: #9ec6f8;
      }

      .cls-15 {
        fill: #aa7b64;
      }

      .cls-16 {
        fill: #5f6c75;
      }
    </style>
  </defs>
  <g>
    <g>
      <path class="cls-5" d="M7.15,73.43c.04,2.23-.61,5.5,2.39,5.77h157.43c-.07,1.72.05,3.17-1.84,4.08-1.54.74-5.53.38-7.45.39-1.81.01-3.63,0-5.44,0v72.22c0,1.23,4.54.71,5.44.8-.02.79.24,4.32-.53,4.5-.57.13-8.44.08-8.86-.07-.77-.26-.88-1.49-.85-2.19.05-1.37.33-2.87.32-4.48-.01-1.92-.29-3.99-.32-5.77-.1-6.71-.02-13.46,0-20.18.04-12.91.4-26.06.32-39.07-.01-1.92,0-3.85,0-5.77H17.08v72.22c0,1.23,4.54.71,5.44.8-.02.74.2,4.48-.8,4.48h-9.13l-.32-77.51h-6.57c-.9,0-2.18-1.56-2.72-2.24v-5.77c1.11-1.66,2.22-2.07,4.16-2.24Z"/>
      <path class="cls-4" d="M147.76,89.44c.08,13.02-.28,26.16-.32,39.07H22.53c0-.06-.34-.5-.34-1.08-.07-12.66.1-25.33.02-37.99h125.55Z"/>
      <path class="cls-15" d="M22.53,156.7c-.91-.09-5.44.43-5.44-.8v-72.22h130.67c0,1.92-.01,3.85,0,5.77H22.21c.08,12.66-.09,25.33-.02,37.99,0,.59.34,1.03.34,1.08.05,9.35.24,18.85,0,28.18Z"/>
      <path class="cls-15" d="M9.72,73.43c14.89.28,29.97.02,44.84,0,3.3,0,6.62,0,9.93,0,8.31,0,16.97,0,25.3,0,3.63,0,7.26,0,10.89,0,16.77,0,33.82.2,50.6,0,3.61-.04,8.2-.32,11.7-.01,3.97.35,4.14,2.31,3.99,5.78H9.55c-3.01-.26-2.35-3.54-2.39-5.77.79-.07,1.76-.02,2.56,0Z"/>
      <path class="cls-15" d="M157.69,83.68c-.46,24.31.62,48.72,0,73.02-.91-.09-5.44.43-5.44-.8v-72.22c1.81,0,3.63.01,5.44,0Z"/>
    </g>
    <g>
      <path class="cls-7" d="M121.49,148.7h25.94c.03,1.77.31,3.85.32,5.77h-46.44c.09-1.95-.35-4.21-1.6-5.77h21.78Z"/>
      <path class="cls-16" d="M147.76,154.46c.01,1.61-.27,3.11-.32,4.48h-47.08l-.64-.48c.38-.5,1.07-1.2,1.28-1.76s.29-1.63.32-2.24h46.44Z"/>
      <rect class="cls-16" x="121.49" y="128.52" width="8.65" height="20.18"/>
      <g>
        <path class="cls-2" d="M91.39,146.77c-1.91,6.5,3.2,11.4,9.61,9.93-.21.56-.9,1.27-1.28,1.76l.64.48c-1.64.2-2.71,1.74-4.47,2.1-9.66,1.98-12.92-11.1-4.5-14.27Z"/>
        <path class="cls-13" d="M99.72,148.7c1.26,1.56,1.7,3.81,1.6,5.77-.03.61-.12,1.71-.32,2.24-6.41,1.47-11.52-3.43-9.61-9.93,2.62-.99,6.47-.38,8.33,1.92Z"/>
      </g>
    </g>
  </g>
  <g>
    <g>
      <path class="cls-7" d="M112.85,24.75c.04,8.33.77,19.03.01,27.08-.56,6-8.94,4.26-13.46,4.31-5.76.06-11.54-.02-17.3,0-3.3,0-6.62,0-9.93,0-5.23-.01-10.47.04-15.69,0-3-.02-11.03.54-13.25-.68-.47-.26-1.26-1.07-1.49-1.56-.37-.79-.27-1.14-.32-1.92-.06-.95.02-1.93,0-2.88-.04-1.7.02-3.42,0-5.12-.01-1.6,0-3.21,0-4.8,0-.75,0-1.5,0-2.24,0-.96,0-1.92,0-2.88,0-1.53.14-3.33,0-4.8-.01-.15-.17-.29-.32-.32.54-5.12-.75-11.8.08-16.74.31-1.86,1.72-3.22,3.6-3.45l65.28.07c1.03.23,2.6,1.94,2.77,2.99.53,3.36,0,9.27.02,12.95ZM108.06,13.52h-61.85s0,37.51,0,37.51h61.85s0-37.51,0-37.51Z"/>
      <path class="cls-10" d="M41.42,29.23h-.32v-.32c.15.03.31.17.32.32Z"/>
      <polygon class="cls-6" points="108.06 47.17 51.01 47.03 50.71 13.51 108.06 13.52 108.06 47.17"/>
      <polygon class="cls-14" points="50.71 13.51 51.01 47.03 108.06 47.17 108.06 51.03 46.21 51.02 46.21 13.51 50.71 13.51"/>
      <path class="cls-16" d="M82.1,56.13v7.69c-3.08-.18-6.95-.41-9.93-.32v-7.37c3.3,0,6.62,0,9.93,0Z"/>
      <path class="cls-16" d="M69.93,64.14c-.32,1-.76,4.44.2,4.76l19.01.04c.43,1.39.7,2.96.64,4.48-8.33,0-17,0-25.3,0-.37-4.51.98-7.89,5.44-9.29Z"/>
      <path class="cls-7" d="M82.1,63.82c3.45.21,5.98,1.7,7.05,5.12l-19.01-.04c-.97-.32-.53-3.76-.2-4.76.56-.18,1.73-.63,2.24-.64,2.97-.09,6.85.14,9.93.32Z"/>
    </g>
    <g>
      <g>
        <path class="cls-13" d="M151.6,68.95l-44.86-.46c-1.03-2.35-.53-5.02-.57-7.51,6.08-.54,10.36-3.8,10.86-10.12v-26.11c8.37,0,20.02-.92,27.98.04,4.94.59,9.07,5.73,8.87,10.7-1.05,11.13-1.5,22.31-2.27,33.46Z"/>
        <path class="cls-2" d="M117.01,24.75v26.11c-.49,6.32-4.77,9.58-10.85,10.12.04,2.49-.46,5.15.57,7.51l44.86.46c-.1,1.45-.55,2.94-.32,4.48-16.78.2-33.84,0-50.6,0l-1.28-17.3c4.52-.05,12.9,1.69,13.46-4.31.75-8.05.03-18.74-.01-27.08h4.16Z"/>
      </g>
      <g>
        <g>
          <g>
            <path class="cls-10" d="M14.2,29.23c.08,1.59-.12,3.22,0,4.8,0,.11-.01.22,0,.32h-2.56c.2.98-.49,4.43.53,4.76l29.26.04c0,1.6-.01,3.21,0,4.8-9.06-.18-18.17.24-27.22,0-.94-.03-1.98.09-2.88,0-.11-.01-.22.02-.32,0-2.39-.35-4.23-2.6-4.48-4.96-.36-3.35-.34-7.4,2.98-9.19,1.63-.88,2.95-.53,4.71-.58Z"/>
            <path class="cls-8" d="M41.1,29.23h.32c.14,1.47,0,3.28,0,4.8H14.2c-.12-1.58.08-3.22,0-4.8,8.95-.24,17.95.18,26.9,0Z"/>
            <path class="cls-9" d="M11,44.28v-.32c.1.02.21-.01.32,0-.06.13-.18.29-.32.32Z"/>
            <path class="cls-12" d="M41.42,34.03c0,.96,0,1.92,0,2.88H15.97c-1.25-.39-1.63-1.4-1.77-2.56-.01-.1,0-.21,0-.32h27.22Z"/>
            <path class="cls-13" d="M14.2,34.36c.14,1.17.52,2.17,1.77,2.55h25.45c0,.75,0,1.5,0,2.25l-29.26-.04c-1.02-.33-.33-3.78-.53-4.76h2.56Z"/>
          </g>
          <g>
            <path class="cls-1" d="M14.2,43.96c.14,1.63-.2,3.54,0,5.12-.65.02-2.07-.2-2.42.3-.26.36-.45,4.14.39,4.46l29.58.04c.23.49,1.02,1.3,1.49,1.56,2.22,1.23,10.25.66,13.25.68-1.06,1.49-1.75,2.14-3.52,2.56-.5.12-.77.28-1.42.33-11.97.96-25.23-.75-37.34-.01-1-.62-1.95-.12-3.2-.32-4.66-.76-4.88-5.55-4.5-9.46.27-2.79,1.88-4.31,4.5-4.95.14-.03.26-.19.32-.32.9.09,1.95-.03,2.88,0Z"/>
            <path class="cls-9" d="M41.42,43.96c.02,1.7-.04,3.42,0,5.12-9.05.24-18.18-.32-27.22,0-.2-1.58.14-3.49,0-5.12,9.06.24,18.16-.18,27.22,0Z"/>
            <path class="cls-12" d="M41.42,49.09c.02.95-.06,1.93,0,2.88h-23.86c-1.99-.2-3.1-.75-3.37-2.88,9.05-.32,18.17.24,27.22,0Z"/>
            <path class="cls-13" d="M14.2,49.09c.27,2.13,1.37,2.68,3.37,2.88h23.86c.05.79-.05,1.14.32,1.93l-29.58-.04c-.83-.32-.64-4.1-.39-4.46.36-.5,1.77-.28,2.42-.3Z"/>
          </g>
        </g>
        <g>
          <path class="cls-3" d="M14.2,59.02c.11,1.55-.15,3.28,0,4.78h-2.58s0,4.83,0,4.83h40.71s0-1.93,0-1.93h4.79c-.14,2.5.23,3.52-1.6,5.61-.39.44-2.56,1.1-.96,1.12-14.87.02-29.95.28-44.84,0-3.47-2.13-3.61-5.7-3.2-9.45.3-2.82,2.11-4.15,4.48-5.28,1.25.2,2.2-.3,3.2.32Z"/>
          <path class="cls-11" d="M57.12,66.7h-4.79s0-2.9,0-2.9H14.2c-.15-1.51.11-3.24,0-4.79,12.11-.73,25.36.98,37.34.01.65-.05.92-.22,1.42-.33.66.84,1.75.98,2.57,1.75,1.08,1.02,1.82,3.04,1.92,4.51.07.95-.31,1.41-.33,1.75Z"/>
          <path class="cls-13" d="M14.2,63.8c.17,1.7.55,2.7,2.39,2.91,11.91-.01,23.82,0,35.73,0v1.94s-40.71,0-40.71,0v-4.83s2.58,0,2.58,0Z"/>
          <path class="cls-12" d="M52.33,66.7c-11.92,0-23.83,0-35.73,0-1.85-.21-2.23-1.21-2.39-2.91h38.13s0,2.91,0,2.91Z"/>
        </g>
      </g>
    </g>
  </g>
</svg>