<?xml version="1.0" encoding="UTF-8"?>
<svg id="Layer_1" data-name="Layer 1" xmlns="http://www.w3.org/2000/svg" viewBox="0 0 170 170">
  <defs>
    <style>
      .cls-1 {
        fill: #777;
      }

      .cls-2 {
        fill: #fe3b65;
      }

      .cls-3 {
        fill: #f6c9a5;
      }
    </style>
  </defs>
  <path class="cls-1" d="M125.97,37.49c3.35,2.72,5.02,6.08,5.3,10.56.62,9.73-.27,20.4-.28,30.18-1.2,6.02-6.13,10.82-12.35,11.4H51.29c-7.1-.95-11.91-6.41-12.41-13.5.48-9.23-.65-19.12,0-28.27.51-7.16,5.42-12.68,12.62-13.5h67.15c2.99.29,5.06,1.31,7.33,3.15ZM47.38,83.27c1.09.75,3,1.49,4.33,1.6h66.72c4.58-.56,7.7-4.22,8.08-8.75-.51-9.13.69-19.02.01-28.07-.35-4.65-3.38-8.35-8.1-8.96H51.71c-6.43.8-8.99,7.02-7.95,12.91,2.37,2.26,4.3,3.7,4.6,7.29.26,3.08.29,7.27-1.63,9.8-.73.96-2.99,2.58-3.12,3.57-.48,3.61.65,8.47,3.77,10.61Z"/>
  <path class="cls-3" d="M85.21,143.16c-5.92-.57-10.71-5.12-13.01-10.34-5-9.84-10.3-19.55-15.23-29.41,2.79-2.42,5.27-4.23,9.2-3.25,4.17,1.04,5.91,5.4,8.84,8.06.11-4.94-.22-9.92.18-14.83.48-7.67-.67-16.19-.01-23.76.44-5.03,6.76-7.12,9.96-2.97.48.62,1.27,2.41,1.27,3.14v22.64l.95-2.19c3.63-5.26,10.88-1.98,10.44,4.06l.82-1.98c2.12-3.54,7.01-3.71,9.36-.28.32.47,1.05,2.18,1.05,2.69v2.8l.56-1.57c2.81-5.56,10.36-3.82,10.84,2.32-.46,9.57.59,19.68,0,29.19-.49,7.87-5.86,14.44-13.78,15.68-6.87-.49-14.66.66-21.42,0Z"/>
  <path class="cls-2" d="M166.31,85c0,44.91-36.4,81.31-81.31,81.31S3.69,129.91,3.69,85,40.09,3.69,85,3.69s81.31,36.4,81.31,81.31ZM119.62,111.66c5.97,5.91,12,11.8,17.76,17.89.27.23.71.46,1.05.39,2-.42,9.46-13.94,10.56-16.43,14.64-32.94,1.75-71.95-29.49-89.5-25.25-14.19-57.61-11.58-79.49,7.55-.04.28.87,1.44,1.14,1.73,6.69,7.3,14.64,14.47,21.69,21.59,1.26,1.27,2.55,2.54,3.81,3.81,3.56,3.59,7.17,7.15,10.73,10.73,1.26,1.27,2.54,2.54,3.81,3.81,3.57,3.58,7.16,7.16,10.73,10.73.46.46.92.92,1.38,1.38,8.77,8.77,17.49,17.59,26.31,26.31ZM115.47,123.43c-16.13-16.18-32.3-32.33-48.47-48.47-1.38-1.38-2.77-2.77-4.15-4.15-10.36-10.34-20.52-20.9-30.99-31.15-19.29,21.76-22.14,54.32-7.97,79.63,9.54,17.04,26.48,29.76,45.6,34.03,21.37,4.78,44.51-.61,60.86-15.17-4.82-5.04-9.96-9.78-14.88-14.71Z"/>
</svg>