<?xml version="1.0" encoding="UTF-8"?>
<svg id="Layer_1" data-name="Layer 1" xmlns="http://www.w3.org/2000/svg" xmlns:xlink="http://www.w3.org/1999/xlink" viewBox="0 0 170 170">
  <defs>
    <style>
      .cls-1 {
        fill: #777;
      }

      .cls-2 {
        fill: #ff4b4b;
      }

      .cls-3 {
        fill: #ffb2b2;
      }
    </style>
  </defs>
  <circle class="cls-2" cx="31.21" cy="61.33" r="4.39"/>
  <path class="cls-3" d="M31.21,72.38c-6.09,0-11.05-4.95-11.05-11.05s4.95-11.05,11.05-11.05,11.05,4.95,11.05,11.05-4.95,11.05-11.05,11.05ZM31.21,52.22c-5.02,0-9.11,4.09-9.11,9.11s4.09,9.11,9.11,9.11,9.11-4.09,9.11-9.11-4.09-9.11-9.11-9.11Z"/>
  <g>
    <path class="cls-1" d="M2.84,120.28V49.72c1.44-6.03,5.3-10.9,11.46-12.43,47.03-.66,94.28-.66,141.31,0,6.41,1.61,10.76,7.06,11.46,13.56-.3,23.55.63,47.25-.47,70.73-1.39,5.5-5.45,9.75-10.98,11.15-47.03.66-94.28.66-141.31,0-6.24-1.54-9.92-6.42-11.46-12.43ZM7.98,103.93c.65,8.23-3.02,20.76,7.57,23.71,46.53-.08,93.11.3,139.61-.19,4.08-1.33,6.34-5.14,6.79-9.25-1.12-21.47,1.5-44.48.02-65.77-.34-4.85-3.02-9.43-8.18-10.1H15.83c-3.68.2-7.86,5.41-7.86,8.83v16.52h6.25c1.26,0,2,2.3,2.1,3.36.89,9.56-.7,20.47,0,30.17.29.66-1.52,2.72-1.77,2.72h-6.58Z"/>
    <path class="cls-1" d="M149.66,66.46c1.9-.57,3.45.4,3.63,2.33v32.73c-.32,3.25-4.83,3.24-5.15,0v-32.73c-.02-.8.75-2.1,1.52-2.33Z"/>
  </g>
</svg>