<?xml version="1.0" encoding="UTF-8"?>
<svg id="Layer_1" data-name="Layer 1" xmlns="http://www.w3.org/2000/svg" viewBox="0 0 170 170">
  <defs>
    <style>
      .cls-1 {
        fill: #4ea5df;
      }

      .cls-2 {
        fill: #ffc418;
      }

      .cls-3 {
        fill: #60b6fd;
      }

      .cls-4 {
        fill: #efb06e;
      }
    </style>
  </defs>
  <g>
    <path class="cls-4" d="M88.58,75.83c-2.15-.12-4.71-.09-6.88,0-11.28-1.94-20.47-10.24-22.43-21.69-3.32-19.43,14.86-35.2,33.71-29.5,15.89,4.8,23.22,23.47,15.01,37.94-4.15,7.32-11.22,11.71-19.41,13.25Z"/>
    <path class="cls-2" d="M160.77,9.37h-28.84c-2.01,0-2.39-4.43.39-4.96l30.57-.03c1.15-.04,2.31.37,2.68,1.52l.16,31.91c-.52,2.78-4.96,2.4-4.96.39V9.37Z"/>
  </g>
  <path class="cls-2" d="M160.77,160.63v-28.84c0-2.01,4.43-2.39,4.96.39l.03,30.57c.04,1.15-.37,2.31-1.52,2.68l-31.91.16c-2.78-.52-2.4-4.96-.39-4.96h28.84Z"/>
  <g>
    <path class="cls-3" d="M79.03,76.22c16.47,1.77,33.32,15.65,40.05,30.42,5.98,13.11,4.61,25.81,4.64,39.86-30.55.11-61.13-.08-91.68,0,.26-10.48-.96-20.79,1.64-31.03,4.34-17.14,18.14-31.81,34.95-37.24,2.73-.88,7.64-2.32,10.39-2.02Z"/>
    <path class="cls-1" d="M81.7,75.83c2.17-.09,4.72-.12,6.88,0,22.05,1.21,41.54,17.09,47.56,38.2,3.06,10.75,1.92,21.41,2.1,32.47-4.83,0-9.68-.02-14.52,0-.03-14.06,1.34-26.76-4.64-39.86-6.74-14.78-23.58-28.65-40.05-30.42.85-.12,1.82-.35,2.67-.38Z"/>
  </g>
  <g>
    <path class="cls-2" d="M9.5,160.63h28.84c2.01,0,2.39,4.43-.39,4.96l-30.57.03c-2.16-.02-2.69-.91-2.86-2.86-.89-9.69.69-20.73.03-30.57.57-3,4.96-2.29,4.96-.39v28.84Z"/>
    <path class="cls-2" d="M9.5,9.37v28.84c0,2.01-4.43,2.39-4.96-.39l-.03-30.57c-.04-1.15.37-2.31,1.52-2.68l31.91-.16c2.78.52,2.4,4.96.39,4.96H9.5Z"/>
  </g>
</svg>