<?xml version="1.0" encoding="UTF-8"?>
<svg id="Layer_1" data-name="Layer 1" xmlns="http://www.w3.org/2000/svg" viewBox="0 0 170 170">
  <defs>
    <style>
      .cls-1 {
        fill: #585858;
      }

      .cls-2 {
        fill: #ffc418;
      }

      .cls-3 {
        fill: #b2b2b2;
      }

      .cls-4 {
        fill: #e3e3e3;
      }

      .cls-5 {
        fill: #292b2a;
      }

      .cls-6 {
        fill: #7d8b91;
      }
    </style>
  </defs>
  <g>
    <path class="cls-4" d="M15.75,141.81c3.49,4.7,5.8,7.99,8.33,13.4,1.17,2.5.28,4.03,4.08,2.77,5.28-1.76,12.76-5.17,17.87-7.61,1.5-.71,3.99-1.41,3.65-3.41-.17-.98-1.97-4.26-2.47-5.73-1.19-3.55-2.11-7.8-2.71-11.5,12.54,5.64,15.41,22.85,5.72,32.67-15.31,15.51-40.93-.1-34.47-20.58Z"/>
    <g>
      <path class="cls-3" d="M44.5,129.73c.6,3.71,1.51,7.95,2.71,11.5.5,1.47,2.3,4.75,2.47,5.73.34,1.99-2.15,2.69-3.65,3.41-5.11,2.44-12.59,5.86-17.87,7.61-3.8,1.26-2.92-.27-4.08-2.77-2.53-5.41-4.84-8.7-8.33-13.4-3.37-4.54-10.23-11.44-11.53-16.41-2.31-8.86,1.98-16.11,9.24-20.84.07.07.56.07.82.32,2.29,2.21,2.33,4.16,3.76,6.87-2.37,3.97,1.49,14.22,6.21,14.7l3.96,9.59c.67,1.08,3.08,1.33,3.49-.02.68-2.27-3.09-8.43-3.86-10.88,2.8-3.78-1.64-14.29-6.21-15.03l-3.59-7.51c5.79-2.03,12.05-1.9,17.29,1.5,9.49,6.14,7.61,15.91,9.18,25.62Z"/>
      <g>
        <path class="cls-4" d="M18.04,102.61l3.59,7.51c-1.3-.21-2.9.48-3.59,1.63-1.43-2.71-1.47-4.66-3.76-6.87-.26-.25-.75-.25-.82-.32-4.1-4.03-10.64-12.07-7.46-18.08,2.17-4.09,14.7-8.32,15.57-13.53.24-1.45-1.31-2.45-.1-4,1.47-1.87,3.28-.06,3.9,1.64,2.03,5.48-4.7,10.28-8.55,13-1.91,1.35-7.6,4.06-7.88,6.18-.36,2.66,4.2,8.22,5.97,10.22.81.92,1.98,2.23,3.11,2.61Z"/>
        <path class="cls-2" d="M21.63,110.12c4.57.74,9.01,11.25,6.21,15.03-.6.81-2.57,1.41-3.59,1.31-4.71-.48-8.58-10.73-6.21-14.7.69-1.15,2.3-1.84,3.59-1.63Z"/>
        <path class="cls-4" d="M24.25,126.46c1.02.1,3-.5,3.59-1.31.77,2.45,4.54,8.61,3.86,10.88-.41,1.35-2.82,1.11-3.49.02l-3.96-9.59Z"/>
      </g>
    </g>
  </g>
  <path class="cls-1" d="M118.02,35.3c.75-3.55,2.51-7.29,4.63-10.23,6.88-9.52,12.11-2.36,19.75,1.04,2.24,1,5.52,2.58,7.99,1.87.69-.2.68-.8,1.15-1.11,3.1-2.08,4.69,1.5,2.05,4-3.49,3.31-9.8.52-13.43-1.21-2.29-1.09-6.9-4.5-8.74-4.98-2.44-.63-3.62.37-5.08,2.13-2.51,3.02-3.67,7.5-5.06,11.11-.7-.6-2.49-2.04-3.27-2.61Z"/>
  <g>
    <path class="cls-5" d="M60.84,1.32c2.78.77,4.85,2.06,7.02,3.93l38.89,32.99c2.39-4.02,7.23-5.91,11.27-2.93.78.57,2.57,2.01,3.27,2.61,3.13,2.72,5.12,5.3,3.27,9.65-.48,1.13-2.51,2.89-2.15,3.74,13.75,11.98,28.09,23.32,41.62,35.52,3.25,4.36,3.13,10.14-.14,14.45l-31.98,37.94c-3.75,3.35-8.94,4.4-13.53,2.08-33.59-27.73-66.73-56.12-99.86-84.41-3.4-4.3-3.21-10.04.04-14.36,10.87-11.55,20.39-25.63,31.33-36.95,2.07-2.15,3.91-3.21,6.7-4.24h4.25ZM58.14,12.16c-.89.18-2.49,1.98-3.19,2.71-.92.96-4.84,5.47-5.07,6.37-.28,1.09-.04,2.06.69,2.92,1.03,1.22,5.75,5.2,7.17,6.22,1.4,1.01,3,1.61,4.55.32,1.04-.87,4.82-5.43,5.73-6.69,1.96-2.72.96-3.69-1.13-5.72-.8-.78-7.12-6.04-7.6-6.14-.41-.09-.74-.09-1.15,0ZM72.51,24.25c-.89.18-2.49,1.98-3.19,2.71-1.47,1.54-5.42,5.79-5.22,7.82.11,1.1,1.65,2.38,2.46,3.12.99.91,6.5,5.49,7.33,5.75.97.3,1.7.16,2.47-.5,1.18-1.01,5.02-5.64,6.03-7.04,1.96-2.72.96-3.69-1.13-5.72-.8-.78-7.12-6.04-7.6-6.14-.41-.09-.74-.09-1.15,0ZM46.37,25.89c-1.25.28-7.6,7.81-7.93,9.08-.39,1.49.22,2.34,1.15,3.45,1.02,1.21,5.32,4.77,6.71,5.71,1.41.96,3.06,1.55,4.55.31.92-.77,5.41-6.33,6.21-7.52.91-1.35.99-2.42-.13-3.75-.91-1.08-6.09-5.47-7.36-6.36-1.01-.71-1.9-1.2-3.19-.92ZM96.99,43.58c-.53-.63-7.6-6.41-8.19-6.67-1.65-.72-2.36-.32-3.63.67-1.18.92-4.82,5.09-5.71,6.38-1.94,2.79-.77,3.94,1.31,5.89.95.89,6.74,5.67,7.51,5.9,1.06.32,2.04-.26,2.84-.95.92-.8,5.29-5.92,5.94-6.97.93-1.49,1.1-2.86-.06-4.24ZM60.75,37.98c-1.32.29-7.75,7.99-8.01,9.33-.38,1.97.77,2.79,2.05,4.01.96.92,6.49,5.49,7.35,5.72,1.58.43,1.97.08,3.12-.82,1.2-.93,4.79-5.07,5.71-6.38,1.01-1.45,1.55-3.05.33-4.58-2.36-1.25-6.8-6.83-9.07-7.28-.53-.1-.95-.12-1.48,0ZM39.82,57.4c2.12-1.84,4.2-5.5,6.34-7.54.58-1.03.41-2.15-.2-3.12-.54-.87-8.11-7.24-8.89-7.45-2.21-.59-3.31.96-4.67,2.36-1.01,1.04-4.92,5.55-5.14,6.62-.44,2.12.79,2.87,2.21,4.18,1.03.95,6.39,5.45,7.29,5.79,1.25.47,2.1-.01,3.06-.84ZM111.37,55.67c-.53-.62-7.6-6.42-8.19-6.67-2.43-1.06-3.57.57-5.1,2.14-1.23,1.27-4.93,5.47-5.15,6.95-.16,1.08-.15,1.67.61,2.5,1.28,1.41,5.83,5,7.52,6.21,1.81,1.29,2.56,1.7,4.43.08.92-.8,5.29-5.92,5.94-6.97.93-1.49,1.1-2.86-.06-4.24ZM75.13,50.07c-1.32.29-7.75,7.99-8.01,9.33-.38,1.97.77,2.79,2.05,4.01.96.92,6.49,5.49,7.35,5.72,1.58.43,1.97.08,3.12-.82,1.2-.93,4.79-5.07,5.71-6.38,1.01-1.45,1.55-3.05.33-4.58-2.36-1.25-6.8-6.83-9.07-7.28-.53-.1-.95-.12-1.48,0ZM48.99,51.38c-.57.12-1.24.54-1.68.93-.57.51-5.23,6.16-5.44,6.65-1.19,2.75.38,4.07,2.16,5.73,10.73,10.06,23.66,18.81,34.49,28.9,1.46,1.04,2.47,1.76,4.21.67.99-.63,5.64-6.05,6.23-7.16,1.61-3.03-.07-4.12-2.14-6.04-10.74-10.01-23.52-18.68-34.3-28.76-1.17-.82-2.04-1.21-3.52-.91ZM125.74,67.76c-.53-.63-7.6-6.41-8.19-6.67-1.65-.72-2.36-.32-3.63.67-1.19.93-4.8,5.07-5.71,6.38-2.22,3.18-.49,4.22,1.79,6.38,1.02.96,5.78,5.14,6.7,5.39,1.08.29,1.92.26,2.79-.49.92-.79,5.65-6.36,6.31-7.41.93-1.49,1.1-2.86-.06-4.24ZM89.5,62.15c-1.32.29-7.75,7.99-8.01,9.33-.38,1.97.77,2.79,2.05,4.01.96.92,6.5,5.49,7.35,5.72,2.25.61,3.18-.83,4.59-2.29,1.23-1.27,4.93-5.47,5.15-6.95.15-1.03.13-1.71-.58-2.54-.9-1.05-6.32-5.69-7.54-6.51-.96-.64-1.82-1.04-3.01-.78ZM154.17,92.26l-21.62-18.41c-1.45-1.19-3.3-1.35-4.91-.34-2.62,3.93-9.71,7.73-3.92,12.43l21.65,17.88c1.2.21,2.29.23,3.34-.42.87-.54,5.95-6.54,6.29-7.43.56-1.47.15-2.57-.84-3.72ZM103.88,74.25c-.41.09-.75.32-1.06.58-1.01.86-5.39,6.03-6.18,7.22-1.76,2.62-.65,3.69,1.28,5.54.79.76,6.75,5.65,7.28,5.79,1.5.4,2.11-.05,3.19-.89,1.19-.93,4.8-5.08,5.71-6.38,1.27-1.81,1.51-3.13-.03-4.86-1.06-1.2-5.83-5.32-7.17-6.22-.96-.64-1.82-1.03-3.01-.77ZM117.92,86.34c-.88.2-1.9,1.38-2.51,2.06-1.03,1.16-5.53,6.94-5.47,8.11.06,1.2,1.8,2.66,2.69,3.47.94.86,5.72,4.92,6.5,5.26,1.1.48,2.33.41,3.27-.37,1.07-.89,4.95-5.58,5.87-6.87,1.1-1.53,1.57-2.78.2-4.39-1.01-1.18-5.96-5.34-7.37-6.35-1.13-.82-1.65-1.27-3.19-.92ZM102.55,94.23c-.91-1.04-5.57-5.01-6.77-5.81s-2.94-1.36-4.21-.33c-1.03.83-4.97,5.59-5.89,6.85-1.06,1.45-1.82,2.74-.48,4.39.95,1.17,6.1,5.52,7.5,6.55,2.74,2.02,3.94.77,5.88-1.3.92-.98,5.18-6.2,5.33-7.11.19-1.17-.63-2.38-1.37-3.23ZM113.87,124.07l8.81,7.03c2.17,1.02,3.63-.93,4.98-2.35,5.33-5.65,9.95-12.63,15.32-18.33,1.08-1.13,1.17-2.99.48-4.34-.45-.88-7.89-7.09-8.87-7.46-1.29-.49-2.17-.27-3.29.44l-17.34,19.91c-1.09,1.37-1.22,3.75-.08,5.1ZM106.82,99.73c-.9.2-2.17,1.67-2.86,2.38-1.23,1.27-4.93,5.47-5.15,6.95-.13.86-.17,1.65.44,2.35,2.62,1.82,4.99,4.7,7.5,6.55,1.32.97,2.85,1.53,4.25.33,1.07-.91,5.15-5.77,6.04-7.03,1.92-2.74.92-3.73-1.13-5.73-1.08-1.05-6.52-5.59-7.6-5.8-.53-.1-.95-.12-1.48,0Z"/>
    <path class="cls-2" d="M48.99,51.38c1.48-.3,2.35.09,3.52.91,10.78,10.08,23.56,18.75,34.3,28.76,2.07,1.93,3.75,3.01,2.14,6.04-.59,1.11-5.24,6.54-6.23,7.16-1.74,1.09-2.75.37-4.21-.67-10.83-10.09-23.76-18.83-34.49-28.9-1.78-1.67-3.35-2.98-2.16-5.73.21-.49,4.88-6.14,5.44-6.65.44-.39,1.11-.82,1.68-.93Z"/>
    <path class="cls-2" d="M113.87,124.07c-1.14-1.36-1-3.74.08-5.1l17.34-19.91c1.12-.71,2.01-.94,3.29-.44.98.38,8.42,6.59,8.87,7.46.69,1.35.6,3.21-.48,4.34-5.37,5.7-10,12.68-15.32,18.33-1.34,1.43-2.81,3.38-4.98,2.35l-8.81-7.03Z"/>
    <path class="cls-6" d="M154.17,92.26c.99,1.15,1.4,2.24.84,3.72-.34.89-5.43,6.88-6.29,7.43-1.05.66-2.14.63-3.34.42l-21.65-17.88c-5.79-4.7,1.3-8.51,3.92-12.43,1.61-1.01,3.46-.85,4.91.34l21.62,18.41Z"/>
    <path class="cls-4" d="M60.75,37.98c.53-.12.95-.1,1.48,0,2.27.44,6.71,6.03,9.07,7.28,1.21,1.53.68,3.13-.33,4.58-.92,1.31-4.51,5.45-5.71,6.38-1.15.9-1.54,1.25-3.12.82-.86-.23-6.39-4.8-7.35-5.72-1.28-1.22-2.43-2.05-2.05-4.01.26-1.34,6.69-9.04,8.01-9.33Z"/>
    <path class="cls-4" d="M75.13,50.07c.53-.12.95-.1,1.48,0,2.27.44,6.71,6.03,9.07,7.28,1.21,1.53.68,3.13-.33,4.58-.92,1.31-4.51,5.45-5.71,6.38-1.15.9-1.54,1.25-3.12.82-.86-.23-6.39-4.8-7.35-5.72-1.28-1.22-2.43-2.05-2.05-4.01.26-1.34,6.69-9.04,8.01-9.33Z"/>
    <path class="cls-4" d="M89.5,62.15c1.19-.26,2.05.14,3.01.78,1.22.82,6.64,5.45,7.54,6.51.71.83.73,1.51.58,2.54-.22,1.48-3.92,5.69-5.15,6.95-1.41,1.45-2.34,2.9-4.59,2.29-.85-.23-6.39-4.8-7.35-5.72-1.28-1.22-2.43-2.05-2.05-4.01.26-1.34,6.69-9.04,8.01-9.33Z"/>
    <path class="cls-4" d="M46.37,25.89c1.29-.29,2.18.21,3.19.92,1.27.89,6.45,5.29,7.36,6.36,1.13,1.33,1.04,2.39.13,3.75-.8,1.19-5.28,6.74-6.21,7.52-1.49,1.24-3.15.65-4.55-.31-1.38-.94-5.69-4.5-6.71-5.71-.93-1.1-1.54-1.96-1.15-3.45.33-1.27,6.68-8.8,7.93-9.08Z"/>
    <path class="cls-4" d="M102.55,94.23c.74.85,1.56,2.07,1.37,3.23-.15.92-4.41,6.13-5.33,7.11-1.94,2.07-3.15,3.32-5.88,1.3-1.4-1.03-6.55-5.38-7.5-6.55-1.34-1.65-.58-2.93.48-4.39.92-1.26,4.87-6.02,5.89-6.85,1.27-1.03,2.99-.48,4.21.33s5.86,4.77,6.77,5.81Z"/>
    <path class="cls-4" d="M125.74,67.76c1.17,1.39.99,2.75.06,4.24-.66,1.06-5.39,6.62-6.31,7.41-.88.75-1.71.79-2.79.49-.92-.25-5.68-4.43-6.7-5.39-2.28-2.16-4-3.2-1.79-6.38.91-1.31,4.52-5.45,5.71-6.38,1.27-.99,1.98-1.39,3.63-.67.6.26,7.66,6.05,8.19,6.67Z"/>
    <path class="cls-4" d="M103.88,74.25c1.19-.26,2.05.13,3.01.77,1.34.9,6.11,5.03,7.17,6.22,1.54,1.73,1.3,3.05.03,4.86-.91,1.3-4.52,5.45-5.71,6.38-1.08.84-1.7,1.29-3.19.89-.53-.14-6.49-5.04-7.28-5.79-1.93-1.85-3.03-2.92-1.28-5.54.79-1.18,5.17-6.36,6.18-7.22.31-.27.65-.49,1.06-.58Z"/>
    <path class="cls-4" d="M106.82,99.73c.53-.12.95-.1,1.48,0,1.08.21,6.52,4.75,7.6,5.8,2.05,2,3.05,2.98,1.13,5.73-.89,1.27-4.97,6.12-6.04,7.03-1.4,1.2-2.93.64-4.25-.33-2.51-1.85-4.88-4.73-7.5-6.55-.6-.7-.56-1.49-.44-2.35.22-1.48,3.92-5.69,5.15-6.95.69-.71,1.96-2.18,2.86-2.38Z"/>
    <path class="cls-4" d="M72.51,24.25c.41-.09.74-.09,1.15,0,.48.1,6.8,5.36,7.6,6.14,2.08,2.03,3.09,3,1.13,5.72-1.01,1.4-4.85,6.03-6.03,7.04-.77.66-1.5.81-2.47.5-.83-.26-6.34-4.83-7.33-5.75-.81-.75-2.35-2.03-2.46-3.12-.2-2.03,3.75-6.28,5.22-7.82.7-.73,2.3-2.53,3.19-2.71Z"/>
    <path class="cls-4" d="M111.37,55.67c1.17,1.39.99,2.75.06,4.24-.65,1.04-5.02,6.17-5.94,6.97-1.87,1.62-2.63,1.22-4.43-.08-1.69-1.21-6.24-4.8-7.52-6.21-.76-.83-.77-1.42-.61-2.5.22-1.49,3.92-5.69,5.15-6.95,1.53-1.57,2.67-3.2,5.1-2.14.59.26,7.67,6.05,8.19,6.67Z"/>
    <path class="cls-4" d="M39.82,57.4c-.96.83-1.82,1.31-3.06.84-.9-.34-6.26-4.84-7.29-5.79-1.42-1.31-2.65-2.06-2.21-4.18.22-1.07,4.14-5.58,5.14-6.62,1.36-1.4,2.46-2.95,4.67-2.36.78.21,8.34,6.58,8.89,7.45.61.97.79,2.08.2,3.12-2.14,2.04-4.22,5.7-6.34,7.54Z"/>
    <path class="cls-4" d="M96.99,43.58c1.17,1.39.99,2.75.06,4.24-.65,1.05-5.02,6.17-5.94,6.97-.8.69-1.78,1.28-2.84.95-.77-.23-6.56-5.01-7.51-5.9-2.08-1.94-3.25-3.1-1.31-5.89.9-1.29,4.54-5.46,5.71-6.38,1.27-.99,1.98-1.39,3.63-.67.6.26,7.66,6.05,8.19,6.67Z"/>
    <path class="cls-4" d="M117.92,86.34c1.54-.35,2.06.1,3.19.92,1.41,1.02,6.36,5.17,7.37,6.35,1.37,1.61.9,2.86-.2,4.39-.93,1.29-4.81,5.98-5.87,6.87-.94.78-2.18.85-3.27.37-.78-.34-5.56-4.4-6.5-5.26-.89-.81-2.63-2.27-2.69-3.47-.06-1.17,4.44-6.95,5.47-8.11.61-.69,1.63-1.86,2.51-2.06Z"/>
    <path class="cls-4" d="M58.14,12.16c.41-.09.74-.09,1.15,0,.48.1,6.8,5.36,7.6,6.14,2.08,2.03,3.09,3,1.13,5.72-.91,1.26-4.69,5.82-5.73,6.69-1.55,1.29-3.15.69-4.55-.32-1.42-1.03-6.14-5.01-7.17-6.22-.73-.86-.98-1.84-.69-2.92.24-.9,4.15-5.41,5.07-6.37.7-.73,2.3-2.53,3.19-2.71Z"/>
  </g>
</svg>