<?xml version="1.0" encoding="UTF-8"?>
<svg id="Layer_1" data-name="Layer 1" xmlns="http://www.w3.org/2000/svg" viewBox="0 0 170 170">
  <defs>
    <style>
      .cls-1 {
        fill: #fe3b65;
      }

      .cls-2 {
        fill: #fedece;
      }

      .cls-3 {
        fill: #fecdbf;
      }

      .cls-4 {
        fill: #99e5fb;
      }

      .cls-5 {
        fill: #aa9ea9;
      }

      .cls-6 {
        fill: #b9aeb8;
      }
    </style>
  </defs>
  <g>
    <g>
      <path class="cls-2" d="M125.69,65.65c.54.34,1.02,1.06,1.28,1.63,1.43,3.07,1.34,10.58-.31,13.57-.56,1-2.16,2.3-2.2,2.46-.09.36-.09,3.82,0,4.16.08.31,4.33,3.14,5.05,3.89,1.94,2,3.79,5.66,4.1,8.45.16,1.45.26,5.96-.03,7.25-.26,1.14-1.45,1.91-2.56,2.03l-16.96.03c-.54-3.11-2.36-7.28-4.28-9.79,1.15-1.54,1.22-3.71,2.13-5.37,1.61-2.91,5.07-4.11,6.5-7.58.19-.45.2-1.38.25-1.43.2-.2,2.36.37,2.74-.47-5.01-2.11-5.65-6.53-5.2-11.47,3.14-2.38,6.28-4.94,9.49-7.34Z"/>
      <path class="cls-3" d="M116.2,72.99c-.45,4.95.19,9.36,5.2,11.47-.38.85-2.54.27-2.74.47-.05.05-.06.98-.25,1.43-1.43,3.46-4.9,4.67-6.5,7.58-.92,1.66-.98,3.83-2.13,5.37-.87-1.13-2.33-2.67-3.37-3.67-.44-3.11,7.22-7.23,7.59-8.48.17-.58.17-3.58,0-4.16s-.97-.94-1.3-1.46c-.92-1.46-1.61-3.11-1.4-4.88,1.59-1.2,3.29-2.46,4.9-3.67Z"/>
    </g>
    <g>
      <path class="cls-2" d="M61.12,91.35c-6.51,4.94-12.99,10.08-19.58,14.99-.22-5.35-.23-9.68,3.36-13.93,1.55-1.83,5.25-3.87,5.75-5.88.11-.44.01-1.56.07-1.61.09-.1,1.73.08,2.14,0,.14-.61-.2-.58-.54-.83-1.84-1.3-3-1.66-3.98-3.98-1.23-2.93-1.16-11.14.72-13.84l3.81-3.39c2.93.65,5.67,3.1,6.29,6.1.51,2.44.4,9.39-.73,11.55-.46.88-2.01,2.34-2.14,2.76-.16.56-.17,2.99-.05,3.6.24,1.26,4.05,3.2,4.89,4.45Z"/>
      <path class="cls-3" d="M52.86,62.89l-3.81,3.39c-1.88,2.7-1.95,10.9-.72,13.84.98,2.32,2.14,2.68,3.98,3.98.35.25.68.22.54.83-.41.08-2.05-.1-2.14,0-.06.06.04,1.17-.07,1.61-.51,2.01-4.2,4.04-5.75,5.88-3.59,4.25-3.58,8.58-3.36,13.93-1.64,1.23-3.22,2.47-4.9,3.67.08-6.85-1.14-13.36,4.12-18.68,1.02-1.03,4.85-3.33,5.05-4.43.11-.61.11-3.05-.05-3.6-.13-.45-1.58-1.73-2.03-2.56-1.23-2.33-1.38-9.4-.76-11.98,1.03-4.3,5.67-6.81,9.89-5.87Z"/>
    </g>
  </g>
  <g>
    <path class="cls-4" d="M96.92,87.68c.47.17.86.43,1.23.76,2.65,2.32,5.78,4.79,8.26,7.2,1.03,1,2.5,2.54,3.37,3.67,1.93,2.51,3.75,6.69,4.28,9.79.43,2.46,1.32,9.56-2.01,10.08l-56.75.02c13.76-10.65,27.79-21.02,41.62-31.52Z"/>
    <path class="cls-2" d="M102.12,58.3v1.84c-7.4,5.68-14.88,11.45-22.34,17.14-.85-.77-1.58-2.31-1.98-3.37-1.77-4.62-1.13-12.32-1.08-17.44,1.18-.13,2.91-.26,4.12-.32,7.15-.35,14.38.33,21.28,2.15Z"/>
    <path class="cls-3" d="M76.73,56.47c-.06,5.11-.69,12.81,1.08,17.44.41,1.06,1.13,2.6,1.98,3.37-2.31,1.77-4.77,3.48-7.04,5.2-6.06-6.59-4.66-15.82-4.59-24.17,2.79-.73,5.7-1.51,8.57-1.84Z"/>
    <path class="cls-6" d="M102.12,58.3c-6.9-1.83-14.13-2.51-21.28-2.15-1.21.06-2.94.18-4.12.32.06-5.08-.82-10.26,2.14-14.69,1.02.91,13.86-.38,17.44,1.07,6.77,2.76,5.82,9.49,5.82,15.45Z"/>
    <path class="cls-5" d="M78.87,41.78c-2.96,4.42-2.09,9.6-2.14,14.69-2.87.33-5.78,1.11-8.57,1.84.05-5.43-.93-11.67,2.13-16.38.75-1.15,3.72-4.45,5.07-4.42,1.26.03,2.72,3.56,3.51,4.28Z"/>
  </g>
  <path class="cls-1" d="M163.32,78.81v12.24l-1.01,7.09c-5.36,31.91-30.54,57.63-62.27,63.81l-8.94,1.31c-4.01-.19-8.26.26-12.24,0C11.57,158.87-18.34,73.46,31.58,27.39c47.93-44.23,127.52-13.34,131.74,51.42ZM36.64,110.02c1.68-1.2,3.25-2.45,4.9-3.67,6.59-4.92,13.08-10.06,19.58-14.99,3.88-2.95,7.75-5.93,11.63-8.87,2.27-1.73,4.72-3.44,7.04-5.2,7.45-5.69,14.94-11.46,22.34-17.14,7.12-5.46,16.71-11.55,23.09-17.45,3.21-2.97-.07-4.55-2.62-6.54C90.19,10.84,42.45,24.78,27.62,62.59c-5.87,14.97-5.66,34.33,1.72,48.76,2.2,4.29,4.67.55,7.3-1.33ZM125.69,65.65c-3.2,2.4-6.35,4.97-9.49,7.34-1.61,1.22-3.31,2.47-4.9,3.67-4.81,3.64-9.62,7.4-14.38,11.02-13.83,10.5-27.85,20.87-41.62,31.52-3.82,2.96-7.78,5.76-11.49,8.86-1.83,2.38,3.16,5.38,4.97,6.69,48.63,35.28,113.94-13.46,94.35-70.18-.46-1.34-2.51-6.7-3.23-7.48-.65-.7-1.67-.82-2.51-.4-3.98,2.88-7.78,6.01-11.71,8.95Z"/>
</svg>