<?xml version="1.0" encoding="UTF-8"?>
<svg id="Layer_1" data-name="Layer 1" xmlns="http://www.w3.org/2000/svg" viewBox="0 0 170 170">
  <defs>
    <style>
      .cls-1 {
        fill: #e7ecf0;
      }

      .cls-2 {
        fill: #fc8087;
      }

      .cls-3 {
        fill: #ffc418;
      }

      .cls-4 {
        fill: #ff4b4b;
      }

      .cls-5 {
        fill: #d39b0f;
      }

      .cls-6 {
        fill: #fd989f;
      }

      .cls-7 {
        fill: #736e6a;
      }
    </style>
  </defs>
  <path class="cls-4" d="M91.14,6.46c.55.36,1.68.52,2.34.57,34.61,3.05,63.34,30.57,69.01,64.69l1.02,7.11c-.19,4.02.26,8.27,0,12.27-1.26,19.31-11.21,38.89-25.45,51.82-.66,0-1.64.67-2.19,1.02-20.24,13.02-41.51,17.83-65.34,11.46C20.23,141.97-3.46,82.97,24.16,38.38c2.54-4.1,5.68-7.72,8.41-11.68.11-.1.2-.21.31-.31l.31-.31c.27-.24.51-.58.92-.92l.61-.31c12.61-10.41,27.88-17.38,44.46-18.4h11.96ZM82.56,73.31c2.35,2.35,4.7,4.7,7.05,7.05,2.35,2.35,4.7,4.71,7.05,7.05,12.86,12.84,25.56,25.86,38.47,38.66.97.91,2.1-1.05,2.75-1.88,13.14-16.97,16.18-41.38,9.08-61.46C132.75,22.56,83.55,6.4,48.11,30.44c-.8.54-4.52,3.12-4.52,3.77,0,.17.06.32.16.45,12.82,12.99,25.9,25.73,38.8,38.64ZM87.46,96.62c-2.35-2.35-4.7-4.7-7.05-7.05-2.35-2.35-4.7-4.71-7.05-7.05-12.91-12.9-25.65-25.98-38.64-38.8-.14-.09-.29-.16-.45-.16-.65,0-3.23,3.72-3.77,4.52-24.03,35.43-7.88,84.63,32.29,98.84,20.08,7.1,44.49,4.07,61.46-9.08.84-.65,2.8-1.78,1.88-2.75-12.79-12.91-25.81-25.61-38.66-38.47Z"/>
  <path class="cls-2" d="M32.57,26.7c-2.73,3.96-5.87,7.57-8.41,11.68-27.62,44.59-3.93,103.59,46.37,117.03,23.83,6.36,45.1,1.56,65.34-11.46.55-.35,1.53-1.02,2.19-1.02-34.23,31.07-87.31,26.49-115.42-10.15C-2.56,99.92,2.21,54.12,32.57,26.7Z"/>
  <path class="cls-2" d="M34.72,24.86l-.61.31c.27-.22.55-.26.61-.31Z"/>
  <path class="cls-2" d="M32.88,26.39c.11-.1.2-.21.31-.31l-.31.31Z"/>
  <g>
    <path class="cls-5" d="M80.41,89.56l-17.17,16.87-11.04-2.76,21.16-21.16c2.35,2.35,4.7,4.7,7.05,7.05Z"/>
    <path class="cls-3" d="M87.46,96.62l-20.54,20.72c-.21.35-.72.31-.93.44-.34-1.58-2.03-10.82-2.76-11.35l17.17-16.87c2.35,2.35,4.71,4.7,7.05,7.05Z"/>
    <path class="cls-5" d="M108.31,61.66l-18.71,18.71c-2.35-2.35-4.71-4.7-7.05-7.05,6.03-6.44,12.45-12.5,18.71-18.71l7.05,7.05Z"/>
    <path class="cls-3" d="M115.37,68.71c-6.21,6.26-12.27,12.68-18.71,18.71-2.35-2.35-4.7-4.7-7.05-7.05l18.71-18.71c2.34,2.34,4.93,4.48,7.05,7.05Z"/>
    <path class="cls-6" d="M63.24,106.43c.73.53,2.42,9.76,2.76,11.35-2.32,1.42-5.43,2.57-7.97,3.68l-9.51-9.51c1.2-2.76,2.5-5.51,3.68-8.28l11.04,2.76Z"/>
    <path class="cls-7" d="M58.02,121.46c-2.37,1.03-7.89,3.77-10.04,4.23-2.44.52-4.21-1.26-3.7-3.7.42-1.98,3.24-7.76,4.23-10.04l9.51,9.51Z"/>
    <path class="cls-1" d="M115.37,54.61c2.34,2.34,4.48,4.93,7.05,7.05-2.33,2.37-4.71,4.69-7.05,7.05-2.12-2.57-4.71-4.71-7.05-7.05l-7.05-7.05c2.36-2.34,4.68-4.72,7.05-7.05l7.05,7.05Z"/>
    <path class="cls-2" d="M123.65,46.33l-8.28,8.28-7.05-7.05c1.63-1.6,6.17-7.17,8.17-7.27s5.67,4.56,7.16,6.04Z"/>
    <path class="cls-6" d="M122.42,61.66c-2.57-2.12-4.71-4.71-7.05-7.05l8.28-8.28c2.3,2.29,7.63,5.54,5.22,9.05-1.3,1.89-4.7,4.51-6.44,6.28Z"/>
  </g>
</svg>