<?xml version="1.0" encoding="UTF-8"?>
<svg id="Layer_1" data-name="Layer 1" xmlns="http://www.w3.org/2000/svg" viewBox="0 0 170 170">
  <defs>
    <style>
      .cls-1 {
        fill: #fe3b65;
      }

      .cls-2 {
        fill: #64b4f5;
      }

      .cls-3 {
        fill: #2196f2;
      }
    </style>
  </defs>
  <g>
    <path class="cls-2" d="M62.15,109.35c8.5-.27,17.25.67,25.65-.8,18.38-3.22,35.14-17.84,35.42-37.46.32-.08.37.13.56.28,8.62,6.61,12.84,18.47,10.68,29.07-1.09,5.36-4,10.13-7.5,14.23,2.22,2.63,4.9,4.98,7.31,7.49,1.55,1.75.81,4.29-1.43,4.89-12.64-.25-25.89.77-38.49.13-1.6-.08-3.56-.34-5.16-.59-10.74-1.72-21.37-7.81-27.04-17.24Z"/>
    <path class="cls-3" d="M40.06,101.18v-1.49c.37-.39.48-.87.83-1.3,2.09-2.58,5.32-4.79,7.31-7.49-3-3.62-5.74-7.72-7.02-12.3-.47-1.67-.57-3.45-1.12-5.1.12-1.8-.17-3.8,0-5.57,1.81-19.09,22.34-30.44,40.01-29.91,20.22.61,41.06,16.33,36.6,38.49-3.38,16.78-20.77,26.25-36.78,26.91-12.19.5-24.72-.39-36.95,0-1.45-.16-2.29-.96-2.88-2.23ZM60.24,61.85c-3.31.94-3.1,5.4.33,5.9h36.2c3.61-.51,3.56-5.42,0-5.94l-36.53.04ZM60.24,73.73c-3.25.91-3.13,5.15.16,5.88l24.49.02c3.5-.49,3.63-5.24.17-5.93l-24.81.03Z"/>
  </g>
  <path class="cls-1" d="M166.97,85c0,45.27-36.7,81.97-81.97,81.97S3.03,130.27,3.03,85,39.73,3.03,85,3.03s81.97,36.7,81.97,81.97ZM119.9,111.88c6.02,5.96,12.09,11.89,17.9,18.04.27.23.72.47,1.06.39,2.01-.43,9.53-14.05,10.65-16.56,14.76-33.21,1.76-72.53-29.73-90.23-25.45-14.3-58.08-11.68-80.14,7.61-.04.28.87,1.45,1.15,1.75,6.74,7.36,14.76,14.59,21.87,21.76,1.27,1.28,2.57,2.56,3.84,3.84,3.59,3.62,7.23,7.21,10.82,10.82,1.28,1.28,2.56,2.56,3.84,3.84,3.6,3.61,7.21,7.22,10.82,10.82.46.46.93.93,1.4,1.4,8.85,8.84,17.64,17.73,26.53,26.53ZM115.71,123.74c-16.26-16.32-32.57-32.59-48.86-48.86-1.39-1.39-2.79-2.8-4.19-4.19-10.44-10.43-20.69-21.07-31.24-31.4-19.44,21.94-22.32,54.77-8.04,80.27,9.62,17.18,26.69,30,45.97,34.31,21.54,4.82,44.87-.62,61.36-15.29-4.86-5.08-10.04-9.86-15-14.83Z"/>
</svg>