<?xml version="1.0" encoding="UTF-8"?>
<svg id="Layer_1" data-name="Layer 1" xmlns="http://www.w3.org/2000/svg" viewBox="0 0 170 170">
  <defs>
    <style>
      .cls-1 {
        fill: #001738;
      }

      .cls-2 {
        fill: #ffc418;
      }

      .cls-3 {
        fill: #01439d;
      }

      .cls-4 {
        fill: #e1def3;
      }

      .cls-5 {
        fill: #00347b;
      }

      .cls-6 {
        fill: #fcd98d;
      }
    </style>
  </defs>
  <path class="cls-2" d="M85.01,3.65v19.58c-7.24.08-13.5,3.12-17.92,8.88-5.52,7.2-4.52,15.33-4.55,23.85h-9.63c-.04-.57,0-1.01-.14-1.61-1.16-5-8.75-4.7-9.46.52-.58,4.29-.22,13.5.33,17.9,2.39,18.88,17.67,33.94,36.54,36.14v9.63h-16.85c-.09,0-1.37.78-1.6.96-3.82,2.86-1.72,8.24,2.88,8.68,6.11.57,14.06-.01,20.39-.01v19.25c-14.38.02-28.77-.03-43.15.01l-32.32,18.7c-3.32.97-6.29-.6-6.7-4.1V16.64c.79-6.24,5.41-11.15,11.48-12.59,23.5-.72,47.14-.39,70.69-.4Z"/>
  <g>
    <g>
      <path class="cls-2" d="M167.16,15.52v120.34c-1.76,6.03-6.34,10.69-12.72,11.51-23.14.1-46.3,0-69.44.04v-19.25c6.38,0,14.2.56,20.39.01,4.09-.36,6.54-4.6,3.82-8.02-.35-.44-2.13-1.62-2.55-1.62h-16.85v-9.63c18.18-2.08,33.74-16.31,36.49-34.59.66-4.41,1.06-15.46.39-19.78-.74-4.79-9.16-5.79-9.61,1.42h-9.63c-.1-8.49,1.24-15.64-3.78-23.02-4.29-6.31-11.07-9.8-18.69-9.71V3.65c23.45,0,46.99-.3,70.4.36,5.98,1.16,10.29,5.7,11.75,11.51Z"/>
      <path class="cls-6" d="M117.1,65.59c-.47,18.73-12.31,33.94-32.09,34.02,0-3.2,0-6.42,0-9.63,9.53.12,18.46-6.3,21.42-15.32.95-2.87,1.22-6.14,1.36-9.07h9.31Z"/>
    </g>
    <path class="cls-6" d="M62.54,65.59c.44,13.34,8.18,24.22,22.46,24.39,0,3.2,0,6.42,0,9.63-19.61.08-31.53-15.56-32.09-34.02h9.63Z"/>
    <g>
      <path class="cls-4" d="M85.01,23.23c7.61-.09,14.39,3.4,18.69,9.71,5.02,7.38,3.68,14.53,3.78,23.02h-44.93c.03-8.52-.97-16.66,4.55-23.85,4.42-5.76,10.68-8.8,17.92-8.88Z"/>
      <path class="cls-5" d="M89.82,108.91c-1.74.2-3,.35-4.81.32v18.93c-6.33,0-14.28.59-20.39.01-4.6-.43-6.69-5.82-2.88-8.68.24-.18,1.51-.96,1.6-.96h16.85v-9.63c1.53.18,3.27.3,4.81.32,0-3.2,0-6.42,0-9.63,19.78-.08,31.62-15.29,32.09-34.02.08-3.16-.19-6.5,0-9.63.44-7.22,8.87-6.21,9.61-1.42.67,4.33.27,15.38-.39,19.78-2.75,18.29-18.31,32.52-36.49,34.59Z"/>
      <path class="cls-5" d="M107.47,55.96h.32c-.12,3.19.16,6.44,0,9.63-.14,2.92-.42,6.2-1.36,9.07-2.97,9.02-11.9,15.44-21.42,15.32,0-10.48-.58-21.9-.01-32.27.03-.61.15-1.18.33-1.75h22.14Z"/>
      <path class="cls-1" d="M89.82,108.91v9.63h16.85c.43,0,2.21,1.18,2.55,1.62,2.71,3.43.26,7.66-3.82,8.02-6.19.54-14.01-.01-20.39-.01v-18.93c1.81.03,3.08-.12,4.81-.32Z"/>
      <path class="cls-1" d="M117.1,55.96c-.19,3.13.08,6.46,0,9.63h-9.31c.16-3.19-.12-6.43,0-9.63h9.31Z"/>
      <path class="cls-3" d="M52.92,55.96c.21,3.11-.1,6.47,0,9.63.56,18.46,12.48,34.1,32.09,34.02,0,3.2,0,6.42,0,9.63-1.54-.02-3.28-.14-4.81-.32-18.88-2.2-34.15-17.26-36.54-36.14-.56-4.41-.92-13.61-.33-17.9.71-5.22,8.3-5.52,9.46-.52.14.61.1,1.04.14,1.61Z"/>
      <path class="cls-5" d="M62.54,55.96c-.01,3.19-.11,6.44,0,9.63h-9.63c-.1-3.15.21-6.52,0-9.63h9.63Z"/>
      <path class="cls-3" d="M85.33,55.96c-.18.57-.3,1.14-.33,1.75-.57,10.36.01,21.78.01,32.27-14.29-.17-22.02-11.05-22.46-24.39-.11-3.19-.01-6.43,0-9.63h22.78Z"/>
    </g>
  </g>
</svg>