<?xml version="1.0" encoding="UTF-8"?>
<svg id="Layer_1" data-name="Layer 1" xmlns="http://www.w3.org/2000/svg" viewBox="0 0 170 170">
  <defs>
    <style>
      .cls-1 {
        fill: #fcfdfc;
      }

      .cls-2 {
        fill: #fff;
      }

      .cls-3 {
        fill: #fcfdfb;
      }

      .cls-4 {
        fill: #ffc418;
      }

      .cls-5 {
        fill: #e5e5e5;
      }

      .cls-6 {
        fill: #fdfefd;
      }

      .cls-7 {
        stroke: #e5e5e5;
        stroke-width: 3px;
      }

      .cls-7, .cls-8 {
        fill: none;
        stroke-miterlimit: 10;
      }

      .cls-8 {
        stroke: #ffc418;
        stroke-width: 2px;
      }
    </style>
  </defs>
  <rect class="cls-4" x="27.1" y="27.87" width="91.34" height="52.44" rx="5.73" ry="5.73"/>
  <path class="cls-6" d="M59.23,61.11c-.2-.2-.42-.67-.42-.96.26-3.56-.33-7.58,0-11.08.05-.56.39-1.17,1-1.27,1.46-.24,3.39.28,4.87-.15,3.06-1.56,6.08-3.96,9.15-5.43.62-.3.9-.39,1.5.08.39.31.48.7.52,1.18v22.25c0,.99-.81,1.7-1.8,1.41l-9.37-5.58c-1.51-.38-3.28.04-4.78-.14-.22-.03-.52-.17-.68-.32Z"/>
  <g>
    <path class="cls-3" d="M79.95,45.02c-.46-.51.18-1.82.94-1.66.35.07,1.72,1.15,2.06,1.45,5.94,5.22,5.88,14.44-.05,19.64-.39.34-1.72,1.42-2.18,1.42-.54,0-1.03-.97-.88-1.45.05-.15,2.12-1.67,2.49-2.05,4.49-4.66,4.03-12.11-.85-16.28-.39-.34-1.29-.8-1.53-1.07Z"/>
    <path class="cls-1" d="M78.53,62.92c-.3-.25-.61-.97-.44-1.37.04-.09,1.25-1.07,1.5-1.35,2.82-3.19,2.78-8.12-.09-11.27-.77-.85-2.14-1.22-1.08-2.49.26-.32.61-.32.97-.14.63.32,1.88,1.72,2.31,2.32,2.89,4.03,2.44,9.7-1.02,13.24-.18.19-1.16,1.06-1.33,1.13-.23.09-.63.09-.82-.07Z"/>
  </g>
  <rect class="cls-7" x="5.35" y="4.91" width="136.53" height="136.53" rx="8.38" ry="8.38"/>
  <circle class="cls-8" cx="39.93" cy="102.4" r="8.1"/>
  <rect class="cls-5" x="55.55" y="96.74" width="40.72" height="11.06" rx="2.47" ry="2.47"/>
  <rect class="cls-2" x="97.84" y="95.53" width="66.81" height="69.55" rx="3.38" ry="3.38"/>
  <rect class="cls-4" x="101.83" y="102.27" width="56.08" height="56.08" rx="3.38" ry="3.38"/>
  <path class="cls-2" d="M115.75,116.36c.24-.26.4-.31.77-.34,11.03,4.27,22.04,8.72,33.01,13.18l.37.47v.67c-.21.29-.37.52-.72.66l-12.66,6.13c-2.08,4.38-4.14,8.8-6.38,13.08l-.34.23h-.67c-.26-.14-.5-.33-.64-.61l-12.95-32.37c-.13-.48-.13-.75.2-1.11Z"/>
</svg>