<?xml version="1.0" encoding="UTF-8"?>
<svg id="Layer_1" data-name="Layer 1" xmlns="http://www.w3.org/2000/svg" viewBox="0 0 170 170">
  <defs>
    <style>
      .cls-1 {
        fill: #fcfdfc;
      }

      .cls-2 {
        fill: #fff;
      }

      .cls-3 {
        fill: #fcfdfb;
      }

      .cls-4 {
        fill: #ffc418;
      }

      .cls-5 {
        fill: #e5e5e5;
      }

      .cls-6 {
        fill: #fcd26b;
      }

      .cls-7 {
        stroke: #e5e5e5;
        stroke-width: 3px;
      }

      .cls-7, .cls-8 {
        fill: none;
        stroke-miterlimit: 10;
      }

      .cls-8 {
        stroke: #ffc418;
        stroke-width: 2px;
      }
    </style>
  </defs>
  <g>
    <path class="cls-3" d="M81.45,45.69c-.4-.34-1.3-.81-1.55-1.08-.47-.51.18-1.84.95-1.68.35.07,1.74,1.17,2.08,1.46,6,5.28,5.94,14.59-.05,19.85-.39.34-1.74,1.43-2.2,1.44-.55,0-1.04-.98-.89-1.47.05-.16,2.14-1.69,2.52-2.07"/>
    <path class="cls-1" d="M79.44,48.56c-.78-.85-2.16-1.23-1.09-2.52.27-.32.62-.32.98-.14.64.32,1.9,1.74,2.34,2.35,2.92,4.07,2.47,9.8-1.03,13.37-.19.19-1.18,1.07-1.35,1.14-.23.09-.63.09-.83-.07-.3-.25-.61-.98-.44-1.38.04-.09,1.27-1.08,1.52-1.36"/>
  </g>
  <rect class="cls-7" x="4.53" y="4.09" width="137.94" height="137.94" rx="8.38" ry="8.38"/>
  <circle class="cls-8" cx="39.46" cy="102.58" r="8.18"/>
  <rect class="cls-5" x="55.25" y="96.86" width="41.14" height="11.17" rx="2.47" ry="2.47"/>
  <rect class="cls-6" x="30.42" y="37.69" width="90.8" height="11.17" rx="2.47" ry="2.47"/>
  <rect class="cls-2" x="97.98" y="95.64" width="67.5" height="70.27" rx="3.38" ry="3.38"/>
  <rect class="cls-4" x="102" y="102.45" width="56.66" height="56.66" rx="3.38" ry="3.38"/>
  <path class="cls-2" d="M116.07,116.68c.25-.27.4-.31.78-.34,11.14,4.32,22.27,8.81,33.35,13.32l.37.48v.68c-.21.29-.38.53-.72.67l-12.79,6.19c-2.1,4.42-4.18,8.89-6.45,13.21l-.34.24h-.68c-.26-.14-.51-.34-.64-.61l-13.08-32.7c-.13-.49-.13-.76.21-1.12Z"/>
</svg>