<?xml version="1.0" encoding="UTF-8"?>
<svg id="Layer_1" data-name="Layer 1" xmlns="http://www.w3.org/2000/svg" viewBox="0 0 170 170">
  <defs>
    <style>
      .cls-1 {
        fill: #b4b6bb;
      }

      .cls-2 {
        fill: #878590;
      }

      .cls-3 {
        fill: #fff;
      }

      .cls-4 {
        fill: #fde9b6;
      }

      .cls-5 {
        fill: #ffc418;
      }

      .cls-6 {
        fill: #e5bd89;
      }

      .cls-7 {
        fill: #fdd688;
      }
    </style>
  </defs>
  <g>
    <path class="cls-5" d="M12.33,36.97c-.33,24.16-.34,48.83,0,72.99.04,2.9-1.07,7.74,3.19,7.53h118.69c3.38-.24,2.33-4.72,2.36-7.25.34-24.28.54-49.07.28-73.27,4.27-.64,7.52,1.22,8.91,5.29v79.12c-1.1,2.82-3.07,5.02-6.26,5.3-43.76-.15-87.58.25-131.31-.2-2.75-.84-4.82-3.16-5.08-6.07V42.97c.72-4.63,4.76-6.7,9.2-5.99Z"/>
    <path class="cls-6" d="M74.45,112.75c16.4-7.43,35-8.89,52.31-3.7,1.78.53,5.83,2.44,7.2,2.58,1.27.13,1.71-.78,2.62-1.39-.04,2.53,1.01,7.02-2.36,7.25H15.52c-4.26.21-3.15-4.63-3.19-7.53.66.88,1.39,1.71,2.62,1.65s5.9-2.18,7.62-2.69c17.08-5.04,35.75-3.62,51.88,3.82Z"/>
    <g>
      <path class="cls-7" d="M136.85,36.97c.26,24.19.06,48.98-.28,73.27-.91.61-1.35,1.52-2.62,1.39-1.37-.14-5.42-2.04-7.2-2.58-17.31-5.2-35.91-3.74-52.31,3.7V36.97c-.02-2.18.22-4.88,0-6.96,17.36-8.35,38.36-9.27,56.42-2.51,1.16.43,4.89,1.79,5.4,2.68.6,1.05.29,4.39.31,5.83,0,.4.28.81.28.96ZM99.74,34.83c-1.93.16-4.42,0-4.43,2.56,0,3.57,5.17,1.87,7.4,1.8,5.58-.18,11.75.37,17.2,1.49,1.99.41,5.65,1.84,7.34,1.88,2.5.06,3.31-3.08,1.22-4.31-1.42-.84-5.66-1.66-7.45-2.03-6.74-1.39-14.39-1.97-21.28-1.4ZM87.76,36.75c-.98.1-5.01,1.27-5.66,1.89-1.24,1.17-.8,3.47.9,3.85,1.05.23,5.93-1.02,6.78-1.74,1.85-1.56.54-4.25-2.03-4ZM100.02,44.02c-4.24.26-13.27,1.57-17.01,3.32-1.78.84-2.36,3.08-.59,4.08,1.58.89,6.91-1.14,8.97-1.56,8.09-1.65,13.62-1.24,21.66-.91,3.18.13,3.99-3.71,1.2-4.56-.81-.25-3.02-.42-3.98-.48-3.16-.18-7.07-.1-10.24.09ZM122.29,45.93c-1.8.36-2.39,2.9-.87,4.1.6.47,4.73,1.67,5.54,1.72,2.66.17,3.76-2.76,1.62-4.14-.87-.57-5.35-1.86-6.29-1.67ZM105.85,53.19c-1.78.52-1.95,3.82.28,4.34,2.95.69,7.22.44,10.49.93,3.61.54,7.1,1.66,10.64,2.48,2.74.07,3.37-3.36.84-4.49-2.68-1.19-8.99-2.31-12.04-2.73-2.17-.3-8.41-1.06-10.21-.54ZM96.97,53.48c-3,.11-11.06,1.75-13.8,2.94-2.89,1.26-2.09,4.71.88,4.53,1.69-.11,5.15-1.41,7.1-1.83,2-.43,5.47-.56,7.13-1.22,2.55-1.01,1.73-4.52-1.32-4.41ZM99.74,62.41c-3.46.22-7.47.91-10.86,1.68-1.49.34-6.51,1.45-7.16,2.59-.71,1.26-.22,3.06,1.28,3.39,1.51.33,9.28-2.05,11.68-2.41,8.93-1.34,17.76-.93,26.57.93,1.9.4,5.49,2,7.17,1.32,1.17-.47,1.47-1.79,1.13-2.93-.45-1.5-5.82-2.54-7.41-2.9-7.32-1.64-14.88-2.16-22.4-1.68ZM110.59,75.61c1.79-1.51.45-3.88-2-4.11-6.73-.63-17.66.81-24.11,2.94-1.53.5-3.17.76-3.08,2.78.17,4.01,6.67.95,8.87.5,3.19-.65,6.98-1.31,10.22-1.48,2.14-.11,8.75.52,10.1-.63ZM117.55,72.69c-1.93.43-2.21,3.19-.4,4.18.58.32,8.98,2.4,9.81,2.45,2.89.18,3.73-2.98,1.44-4.24-1.47-.81-5.66-1.72-7.43-2.04-1.13-.2-2.27-.62-3.43-.35ZM99.75,80.79c-3.36.23-7.58.92-10.87,1.66-2.23.5-9.56,1.7-7.03,5.21,1.38,1.92,6.17-.27,8.21-.69,8.67-1.8,17.51-2.25,26.29-.93,3.24.49,7.82,2.29,10.63,2.47,1.97.13,3.17-1.17,2.58-3.15-.43-1.43-5.9-2.56-7.41-2.89-7.23-1.61-14.99-2.18-22.39-1.68ZM100.58,89.99c-1.27.15-2.62.28-2.95,1.79-.96,4.36,6.06,2.56,8.46,2.57,3.75.02,8.4.6,12.11,1.26,2.53.45,6.91,2.07,9.05,2.12,1.84.04,2.84-1.39,2.31-3.17-.46-1.53-7.15-2.84-8.8-3.17-5.95-1.21-14.16-2.1-20.17-1.4ZM89.15,91.65c-.98.13-6.09,1.47-6.72,1.91-2.1,1.47-.98,4.49,2.17,4.12.82-.09,7.12-1.85,7.56-2.2.81-.64.92-2.07.42-2.95-.69-1.23-2.21-1.05-3.42-.89Z"/>
      <path class="cls-2" d="M99.75,80.79c7.4-.5,15.17.06,22.39,1.68,1.51.34,6.98,1.46,7.41,2.89.59,1.98-.61,3.27-2.58,3.15-2.81-.18-7.39-1.98-10.63-2.47-8.78-1.32-17.62-.86-26.29.93-2.04.42-6.83,2.61-8.21.69-2.52-3.51,4.8-4.71,7.03-5.21,3.29-.74,7.52-1.44,10.87-1.66Z"/>
      <path class="cls-2" d="M99.74,62.41c7.51-.49,15.07.04,22.4,1.68,1.59.35,6.96,1.4,7.41,2.9.34,1.14.04,2.46-1.13,2.93-1.68.68-5.27-.92-7.17-1.32-8.8-1.87-17.64-2.27-26.57-.93-2.4.36-10.17,2.74-11.68,2.41-1.5-.33-2-2.13-1.28-3.39.65-1.14,5.67-2.25,7.16-2.59,3.39-.77,7.4-1.45,10.86-1.68Z"/>
      <path class="cls-2" d="M100.02,44.02c3.17-.19,7.08-.27,10.24-.09.96.05,3.18.23,3.98.48,2.8.85,1.98,4.69-1.2,4.56-8.04-.33-13.57-.74-21.66.91-2.06.42-7.38,2.45-8.97,1.56-1.78-1-1.2-3.25.59-4.08,3.74-1.75,12.77-3.07,17.01-3.32Z"/>
      <path class="cls-2" d="M99.74,34.83c6.89-.57,14.54,0,21.28,1.4,1.79.37,6.02,1.19,7.45,2.03,2.09,1.23,1.28,4.37-1.22,4.31-1.69-.04-5.35-1.47-7.34-1.88-5.45-1.11-11.62-1.66-17.2-1.49-2.23.07-7.4,1.77-7.4-1.8,0-2.56,2.5-2.4,4.43-2.56Z"/>
      <path class="cls-2" d="M100.58,89.99c6.01-.7,14.22.19,20.17,1.4,1.65.33,8.35,1.64,8.8,3.17.53,1.78-.47,3.21-2.31,3.17-2.14-.05-6.51-1.66-9.05-2.12-3.71-.66-8.36-1.24-12.11-1.26-2.4-.01-9.42,1.78-8.46-2.57.33-1.51,1.68-1.64,2.95-1.79Z"/>
      <path class="cls-2" d="M110.59,75.61c-1.35,1.15-7.95.52-10.1.63-3.24.17-7.03.83-10.22,1.48-2.2.45-8.7,3.51-8.87-.5-.08-2.02,1.56-2.27,3.08-2.78,6.45-2.13,17.38-3.56,24.11-2.94,2.44.23,3.79,2.59,2,4.11Z"/>
      <path class="cls-2" d="M105.85,53.19c1.8-.52,8.04.24,10.21.54,3.04.42,9.36,1.54,12.04,2.73,2.53,1.12,1.9,4.56-.84,4.49-3.54-.82-7.03-1.94-10.64-2.48-3.27-.49-7.54-.24-10.49-.93-2.22-.52-2.06-3.82-.28-4.34Z"/>
      <path class="cls-2" d="M96.97,53.48c3.06-.11,3.87,3.4,1.32,4.41-1.67.66-5.14.79-7.13,1.22-1.96.42-5.41,1.73-7.1,1.83-2.97.19-3.77-3.27-.88-4.53,2.74-1.19,10.79-2.83,13.8-2.94Z"/>
      <path class="cls-2" d="M117.55,72.69c1.16-.26,2.3.15,3.43.35,1.78.32,5.96,1.23,7.43,2.04,2.29,1.25,1.44,4.42-1.44,4.24-.84-.05-9.23-2.14-9.81-2.45-1.81-.98-1.53-3.74.4-4.18Z"/>
      <path class="cls-2" d="M89.15,91.65c1.21-.16,2.73-.34,3.42.89.5.88.39,2.31-.42,2.95-.44.35-6.74,2.1-7.56,2.2-3.15.36-4.28-2.66-2.17-4.12.64-.44,5.74-1.78,6.72-1.91Z"/>
      <path class="cls-2" d="M87.76,36.75c2.56-.25,3.88,2.44,2.03,4-.85.72-5.73,1.97-6.78,1.74-1.7-.38-2.14-2.67-.9-3.85.65-.61,4.67-1.79,5.66-1.89Z"/>
      <path class="cls-2" d="M122.29,45.93c.94-.19,5.42,1.11,6.29,1.67,2.15,1.39,1.05,4.31-1.62,4.14-.81-.05-4.94-1.25-5.54-1.72-1.53-1.19-.93-3.73.87-4.1Z"/>
      <path class="cls-6" d="M74.45,103.27c0-12.24-.27-24.62-.28-36.77-.01-9.76.36-19.7.28-29.53v66.3Z"/>
    </g>
    <path class="cls-4" d="M60.8,24.99c.17,3.82-.28,7.61-.28,11.42-7.29-1.32-14.72-2.13-22.16-1.68-1.45.09-4.54.15-5.02,1.67-1.52,4.8,5.65,2.86,8.08,2.79,6.53-.2,12.96.97,19.37,1.96,0,4.55-.02,9.1,0,13.65-5.19-.39-11.4-2.38-16.59-1.69-2.41.32-2.41,3.9-.2,4.41,2.39.56,5.68.34,8.26.65,2.87.35,5.67,1.2,8.53,1.36.02,1.48-.06,2.98,0,4.46-4.24-.37-8.4-1.46-12.66-1.68-7.05-.36-14.74.24-21.6,1.82-1.38.32-5.91,1.37-6.69,2.22-1.49,1.63-.19,3.88,2.08,3.78,2.13-.09,6.46-1.7,9.02-2.15,8.05-1.43,15.18-1.39,23.27-.33,1.94.26,6.08,1.64,7.69.93.93-.41.68-1.18.84-1.8.03-.13-.08-.34.04-.5,1.29-.22,3.78-2.82,4.83-2.82,1.56,0,4.62,4.16,6.55,3.05.01,12.15.28,24.53.28,36.77v9.47c-16.13-7.44-34.8-8.86-51.88-3.82-1.72.51-6.41,2.63-7.62,2.69s-1.96-.77-2.62-1.65c-.34-24.15-.33-48.83,0-72.99.02-1.72-.44-6.19.76-7.26.91-.81,6.01-2.59,7.45-3.06,12.98-4.27,26.96-4.68,40.26-1.66ZM25.64,36.75c-.91.09-5.07,1.33-5.66,1.89-1.24,1.17-.8,3.47.9,3.85,1.12.25,6.08-1.1,6.91-1.89,1.71-1.62.27-4.08-2.15-3.84ZM37.9,44.02c-4.35.27-13.13,1.56-17.01,3.32-1.76.8-2.3,3.12-.59,4.08,1.58.89,6.91-1.14,8.97-1.56,8.1-1.65,13.61-1.24,21.66-.91,3.18.13,3.99-3.71,1.2-4.56-.81-.25-3.02-.42-3.98-.48-3.15-.18-7.08-.1-10.24.09ZM34.84,53.48c-2.97.13-11.55,1.85-14.16,3.13-2.34,1.15-1.67,4.52,1.25,4.33,1.69-.11,5.15-1.41,7.1-1.83s5.47-.56,7.13-1.22c2.55-1.01,1.72-4.54-1.32-4.41ZM48.46,75.61c1.79-1.51.45-3.88-2-4.11-6.61-.62-18.91.93-25.16,3.28-1.46.55-2.52,1.72-1.8,3.35,1.13,2.59,6.54.02,8.64-.41,3.19-.65,6.98-1.31,10.22-1.48,2.14-.11,8.75.52,10.1-.63ZM55.43,72.69c-1.95.44-2.19,3.34-.4,4.18,2.94.32,7.07,2.28,9.81,2.45,1.97.13,3.17-1.17,2.58-3.15-.39-1.3-4.95-2.31-6.29-2.62s-4.46-1.14-5.71-.86ZM37.62,80.79c-3.4.23-7.25.94-10.58,1.67-1.62.36-5.23,1.09-6.55,1.81-1.67.9-1.53,3.74.4,4.18,1.61.37,5.22-1.1,7.04-1.48,10.77-2.23,20.45-2.25,31.21,0,1.79.37,5.7,2.04,7.23,1.4,1.06-.44,1.37-1.98,1.06-3-.41-1.38-5.92-2.56-7.41-2.89-7.2-1.62-15.02-2.18-22.39-1.68ZM38.45,89.98c-1.94.24-3.79,1.16-2.79,3.47.91,2.11,6.45.87,8.58.89,3.65.03,8.2.61,11.83,1.26,2.53.45,6.91,2.07,9.05,2.12,1.84.04,2.84-1.39,2.31-3.17-.44-1.49-6.95-2.8-8.57-3.13-5.87-1.21-14.5-2.19-20.41-1.44ZM27.02,91.65c-.98.13-6.09,1.47-6.72,1.91-2.1,1.47-.98,4.49,2.17,4.12.76-.09,7.18-1.9,7.56-2.2.81-.64.92-2.07.42-2.95-.69-1.23-2.21-1.05-3.42-.89Z"/>
    <path class="cls-2" d="M74.45,30.01c.22,2.09-.02,4.79,0,6.96.08,9.83-.29,19.77-.28,29.53-1.93,1.11-4.98-3.05-6.55-3.05-1.05,0-3.54,2.6-4.83,2.82-.13.16-.01.38-.04.5-2.35.23-1.89-1.08-1.95-2.79-.06-1.48.02-2.98,0-4.46-.02-1.57,0-3.16,0-4.74-.02-4.55,0-9.1,0-13.65,0-1.58-.28-3.38-.28-4.74,0-3.81.44-7.6.28-11.42.12-.25.3-.58.56-.7.85-.39,5.11,1.12,6.27,1.53,1.21.42,5.99,2.17,6.51,2.96.28.42.26.76.31,1.22Z"/>
    <path class="cls-1" d="M37.62,80.79c7.38-.5,15.19.05,22.39,1.68,1.49.33,7,1.52,7.41,2.89.3,1.02,0,2.56-1.06,3-1.53.64-5.44-1.02-7.23-1.4-10.77-2.25-20.44-2.23-31.21,0-1.82.38-5.43,1.84-7.04,1.48-1.93-.44-2.07-3.28-.4-4.18,1.32-.71,4.93-1.45,6.55-1.81,3.34-.74,7.18-1.44,10.58-1.67Z"/>
    <path class="cls-1" d="M60.8,64c.06,1.7-.4,3.02,1.95,2.79-.16.62.09,1.39-.84,1.8-1.62.71-5.76-.67-7.69-.93-8.09-1.07-15.23-1.1-23.27.33-2.55.45-6.88,2.06-9.02,2.15-2.27.1-3.57-2.14-2.08-3.78.78-.86,5.31-1.91,6.69-2.22,6.87-1.58,14.55-2.18,21.6-1.82,4.26.22,8.43,1.31,12.66,1.68Z"/>
    <path class="cls-1" d="M37.9,44.02c3.16-.19,7.09-.27,10.24-.09.96.05,3.18.23,3.98.48,2.8.85,1.98,4.69-1.2,4.56-8.05-.33-13.56-.74-21.66.91-2.06.42-7.38,2.45-8.97,1.56-1.71-.96-1.17-3.28.59-4.08,3.88-1.77,12.66-3.06,17.01-3.32Z"/>
    <path class="cls-1" d="M38.45,89.98c5.9-.74,14.54.23,20.41,1.44,1.62.33,8.12,1.64,8.57,3.13.53,1.78-.47,3.21-2.31,3.17-2.14-.05-6.51-1.66-9.05-2.12-3.63-.65-8.19-1.22-11.83-1.26-2.13-.02-7.67,1.21-8.58-.89-1-2.31.85-3.23,2.79-3.47Z"/>
    <path class="cls-1" d="M48.46,75.61c-1.35,1.15-7.95.52-10.1.63-3.24.17-7.03.83-10.22,1.48-2.1.43-7.51,3-8.64.41-.71-1.63.34-2.8,1.8-3.35,6.25-2.35,18.55-3.89,25.16-3.28,2.44.23,3.79,2.59,2,4.11Z"/>
    <path class="cls-1" d="M60.52,36.42c0,1.35.28,3.15.28,4.74-6.41-1-12.84-2.16-19.37-1.96-2.43.07-9.6,2.01-8.08-2.79.48-1.52,3.57-1.58,5.02-1.67,7.44-.45,14.87.36,22.16,1.68Z"/>
    <path class="cls-1" d="M60.8,54.8c0,1.57-.02,3.16,0,4.74-2.87-.16-5.67-1.01-8.53-1.36-2.58-.31-5.87-.09-8.26-.65-2.2-.51-2.21-4.09.2-4.41,5.19-.69,11.4,1.3,16.59,1.69Z"/>
    <path class="cls-1" d="M34.84,53.48c3.04-.13,3.87,3.39,1.32,4.41-1.67.66-5.14.79-7.13,1.22s-5.41,1.73-7.1,1.83c-2.91.18-3.59-3.18-1.25-4.33,2.61-1.28,11.19-3,14.16-3.13Z"/>
    <path class="cls-1" d="M55.43,72.69c1.25-.28,4.31.53,5.71.86s5.9,1.32,6.29,2.62c.59,1.98-.61,3.27-2.58,3.15-2.74-.17-6.87-2.13-9.81-2.45-1.79-.84-1.55-3.74.4-4.18Z"/>
    <path class="cls-1" d="M27.02,91.65c1.21-.16,2.73-.34,3.42.89.5.88.39,2.31-.42,2.95-.37.3-6.8,2.11-7.56,2.2-3.15.36-4.28-2.66-2.17-4.12.64-.44,5.74-1.78,6.72-1.91Z"/>
    <path class="cls-1" d="M25.64,36.75c2.42-.23,3.87,2.23,2.15,3.84-.83.79-5.79,2.14-6.91,1.89-1.7-.38-2.14-2.67-.9-3.85.59-.56,4.74-1.8,5.66-1.89Z"/>
  </g>
  <g>
    <rect class="cls-3" x="113.61" y="91.53" width="53.26" height="55.45" rx="3.38" ry="3.38"/>
    <rect class="cls-5" x="117.89" y="96.9" width="44.71" height="44.71" rx="3.38" ry="3.38"/>
    <g>
      <path class="cls-3" d="M139.45,105.74c3.04-.28,5.46,1.19,5.92,4.3-.17,3.1.23,6.46,0,9.53-.43,5.82-9.64,5.89-10.26.12.17-3.12-.23-6.5,0-9.59.17-2.26,2.09-4.14,4.33-4.35Z"/>
      <path class="cls-3" d="M141.21,127.98v2.84h3.41c.27,0,.71.48.75.76.11.7-.32,1.13-.99,1.18-2.73.2-5.73-.15-8.49-.02-.73-.14-1.05-1.08-.53-1.63.07-.08.44-.29.51-.29h3.41v-2.84c-4.65-.34-8.69-4.42-8.99-9.08-.06-.88-.01-2.02,1.22-1.76.82.17.65,1.09.71,1.64,1.07,9.67,14.93,9.74,16.05,0,.07-.59-.12-1.52.76-1.65,1.58-.25,1.2,1.78,1.03,2.72-.75,4.32-4.47,7.77-8.85,8.13Z"/>
    </g>
  </g>
</svg>