<?xml version="1.0" encoding="UTF-8"?>
<svg id="Layer_1" data-name="Layer 1" xmlns="http://www.w3.org/2000/svg" viewBox="0 0 170 170">
  <defs>
    <style>
      .cls-1 {
        fill: #707788;
      }

      .cls-2 {
        fill: #9095a9;
      }

      .cls-3 {
        fill: #292b2a;
      }

      .cls-4 {
        fill: #515151;
      }

      .cls-5 {
        fill: #dbe0ea;
      }
    </style>
  </defs>
  <g>
    <path class="cls-2" d="M19.8,125.15c1.47,2.41,2.9,4.91,4.38,7.3l-9.42,5.29c-1.15-.22-3.44-5.52-4.2-6.75l.25-1.49c1.48-1.66,6.85-4.89,8.99-4.34Z"/>
    <path class="cls-5" d="M19.8,125.15c-3.15,1.71-6.59,3.42-9.24,5.84-.86-1.39-4.74-6.12-4.34-7.47.21-.71,7.91-4.96,9.2-5.67,1.46,2.42,2.91,4.89,4.38,7.3Z"/>
    <g>
      <path class="cls-3" d="M27.58,65.32l1.01.58c-1.25,4.11-1.25,8.03,0,11.76l37.16,61.08c2.89,2.33,6.13,4.78,10.05,4.5l.91.88c-2.05,4.9-8.55,8.33-13.81,7.74-8.02-.9-10.07-5.59-13.92-11.63-2.21-1.99-4.04-4.29-5.47-6.9l-24.32-40.2.11-1.06c-.79-2.68-3.38-5.12-4.25-7.67-3.02-8.86,3.36-18.16,12.52-19.09Z"/>
      <path class="cls-4" d="M27.58,65.32c3.94-.4,9.49,1.92,11.97,5.05,4.62,5.82,10.62,16.93,14.78,23.65,4.08,3.69,7.33,9.28,8.76,14.59,3.86,6.36,11.89,17.6,14.34,23.84,1.61,4.09.94,7.69-.72,11.67-4.75.69-8.24-1.92-11.68-4.74l-37.31-61.3c-.77-1.78-1.25-4.26-1.14-6.2.13-2.41,1.29-4.33,1.01-6.56Z"/>
      <path class="cls-3" d="M15.42,117.86c-2.76-4.58-7.19-10.68-9.34-15.24-2.37-5.02.31-10.69,5.59-12.19.96-.27,3.35-.27,3.41-.27l-1.22,1.19c-.58,2.17-.51,4.22.22,6.15,8.58,14.04,17.13,28.11,25.64,42.21,1.78,2.84,4.15,5.3,7.6,5.41l.68.96c-2.76,5.49-9.85,6.37-14.12,2.07-2.78-5.51-6.48-10.47-9.72-15.69l-8.76-14.59Z"/>
      <path class="cls-4" d="M19.31,92.08c.31.24.73.35.89.79,9.83,15.62,18.86,31.81,28.78,47.37-.08,2.23.04,3.82-.97,5.84-3.09.21-5.83-1.43-7.62-3.8-9.86-13.08-17.27-30.56-27-44.02-1.46-2.53-.73-4.96-.4-7.62.76-.07,1.17-.67,2.55-.4.56.11,3.26,1.47,3.77,1.86Z"/>
    </g>
  </g>
  <g>
    <g>
      <path class="cls-3" d="M93.25,25.92c2.26-5.38,9.08-8.49,14.8-7.74,6.96.91,9.6,6.42,12.93,11.63l1.81,1.64c8.92,13.81,17.55,27.95,26.07,42.05.83,1.38,1.33,2.93,1.79,4.46,2.88,5.67,6.52,9.47,4.35,16.27-2.07,6.47-6.61,9.63-13.1,10l-.53-1.3c1.27-3.26,1.61-8.11-.23-11.2-11.5-19.28-23.48-38.74-35.39-57.54-2.6-4.11-6.28-7.84-11.51-7.38l-.99-.88Z"/>
      <path class="cls-4" d="M141.89,104.24c-4.29.24-8.59-1.06-11.52-4.53-4.29-5.08-9.99-16.64-13.86-22.89-.27-.44-.8-.66-.89-.8-4.08-3.69-7.32-9.28-8.76-14.59-3.28-5.41-13.1-19.64-14.62-24.54-1.18-3.82-.52-7.36,1-10.97,8.04-1.03,11.55,5.01,15.28,10.74,11.63,17.86,21.79,36.74,33.45,54.59,2.05,4.32,1.76,8.63-.09,12.98Z"/>
      <path class="cls-3" d="M121.94,23.98c2.46-5.24,10.28-6.57,14.12-2.07,2.64,3.1,7.21,11.67,9.72,15.69,2.58,1.43,4.28,4.36,4.38,7.3,2.6,1.7,4.08,4.21,4.38,7.3,2.19,3.62,9.95,14.99,10.22,18.24.36,4.42-2.53,8.18-6.83,9.29-.59.15-.91-.3-.96-.29-.81-.94-1.01-2.43-.59-4.45-1.14-4-3.3-7.96-6.48-11.86-6.67-11.27-13.45-22.47-20.35-33.53-1.51-2.42-3.78-4.79-6.85-4.68l-.75-.93Z"/>
      <path class="cls-4" d="M156.97,79.43c-.52.04-.93.57-2.05.4-1.43-.22-2.94-1.29-4.27-1.86-10.52-15.64-19.53-32.28-29.67-48.16.14-2.28-.06-3.65.97-5.84,4.57-.41,6.71,2.56,8.96,5.88,9.08,13.37,16.61,28.48,25.66,41.95,1.23,2.44.75,5.08.4,7.63Z"/>
    </g>
    <path class="cls-5" d="M101.52,74.57l.24,1s-10.76,6.81-32.29,20.42l-1.02-.51c-2.01-.16-5.88-5.52-4.38-7.3,11.15-6.83,22.34-14.04,33.56-20.92,2.26,1.1,4.13,4.81,3.89,7.3Z"/>
    <path class="cls-2" d="M105.89,81.86c-11.22,6.89-22.34,14.03-33.56,20.92-2.26-1.1-4.13-4.81-3.89-7.3l33.08-20.92c1.57-.45,4.98,5.1,5.09,6.3l-.72,1Z"/>
    <path class="cls-1" d="M115.62,76.02c-2.95,2.41-6.53,3.87-9.73,5.84-.67-2.75-3.04-5.09-4.38-7.3s-2.63-4.9-3.89-7.3c3.1-1.9,6.33-3.65,9.24-5.84,2.92,4.82,5.83,9.86,8.76,14.59Z"/>
    <path class="cls-1" d="M64.06,88.19c.69,2.76,2.98,5,4.38,7.3s2.63,4.9,3.89,7.3c-3.1,1.9-6.37,3.59-9.24,5.84-2.92-4.82-5.83-9.86-8.76-14.59,2.61-1.86,5.38-3.61,8.12-5.28.57-.35,1.32-.38,1.61-.56Z"/>
    <path class="cls-5" d="M159.4,39.06c.16.34.37.87.16,1.05-.85.73-7.37,4.9-8.3,5.24l-1.1-.46c-1.47-2.41-2.9-4.91-4.38-7.3l9.72-5.84,3.9,7.3Z"/>
    <path class="cls-2" d="M154.53,52.19c-1.46-2.42-2.91-4.89-4.38-7.3l9.24-5.84,4.81,7.06-9.68,6.08Z"/>
  </g>
</svg>