<?xml version="1.0" encoding="UTF-8"?>
<svg id="Layer_1" data-name="Layer 1" xmlns="http://www.w3.org/2000/svg" viewBox="0 0 170 170">
  <defs>
    <style>
      .cls-1 {
        fill: #e0e8ed;
      }

      .cls-2 {
        fill: #e4646e;
      }

      .cls-3 {
        fill: #e1eaef;
      }

      .cls-4 {
        fill: #b3e2f4;
      }

      .cls-5 {
        fill: #bf8608;
      }

      .cls-6 {
        fill: #ffc418;
      }

      .cls-7 {
        fill: #8fdbed;
      }

      .cls-8 {
        fill: #f8b51d;
      }

      .cls-9 {
        fill: #db4856;
      }

      .cls-10 {
        fill: #f0f5f6;
      }

      .cls-11 {
        fill: #fccc08;
      }

      .cls-12 {
        fill: #e0e8ec;
      }

      .cls-13 {
        fill: #e5a810;
      }
    </style>
  </defs>
  <g>
    <path class="cls-6" d="M135.25,29.32v9.92c-13.22.46-26.85-.61-40.02,0-.01-3.31.29-6.74.32-9.92,13.23.02,26.47-.03,39.7,0Z"/>
    <path class="cls-13" d="M90.11,118c.44,2.89-.66,7.98.14,10.58.7,2.27,3.17,2.14,4.98,2.22,0,1.49,0,2.99,0,4.48,23.9.1,47.81-.08,71.71,0,.33,2.75-1.96,5.18-4.64,5.44h-66.75c-.01-1.66-.32-3.64-.32-5.44-4.72-.02-9.46.07-14.18-.07-1.78-.51-1.14-4.02-1.18-5.56,0-.41-.33-.74-.33-.78-.01-.81.32-2.33.32-3.52,0-2.45,0-4.91,0-7.36,3.33.1,6.91.09,10.24,0Z"/>
    <g>
      <path class="cls-10" d="M135.25,39.24v10.24c-5.11.08-10.25-.1-15.37,0-1.74.04-4.88-.62-5.37,1.51l-.09,17.56c-.01.71.44,1.19.98,1.58l19.84.17c0,3.73,0,7.48,0,11.21-7.89.12-15.81-.16-23.69,0-1.74.04-4.88-.62-5.37,1.51.3,5.02-.64,11.05-.08,15.95.08.72.26,1.26.78,1.78l28.36.3c0,2.45-.02,4.91,0,7.36h-28.98c-3.45.39-3.14,4.96.32,5.13h28.66c.02.95-.19,2.88.05,3.63.63,1.93,3.53-1.58,4.12-2.2.31-.33.48-.97.64-1.11,1.88-1.73,3.94,3.39,5.35,3.79.72.21,1.31.04,1.38-.75,0-25.88,0-51.76,0-77.63,3.33.38,8.58-1.44,9.91,2.74-.58,27.76.84,55.64.02,83.38l-59.37-.02c-2.82-.46-2.25-6.02-2.1-8.3.03-.43.58-1.02.55-1.71-.02-.52-.53-1.13-.55-1.49-.24-3.78,0-8.01,0-11.85,0-1.13,0-2.4,0-3.52.02-3.87-.21-8.02,0-11.85.05-.95,1.16-1.73,0-3.2,0-3.94,0-7.9,0-11.85,0-1.13,0-2.39,0-3.52.02-3.88-.21-8.01,0-11.85.05-.95,1.16-1.73,0-3.2-.01-4.58.01-9.18,0-13.77,13.17-.61,26.8.46,40.02,0Z"/>
      <path class="cls-12" d="M156.7,125.36c-.08,2.85.18,4.92-3.36,5.44-19.19-.66-38.98.89-58.11,0-1.81-.08-4.28.04-4.98-2.22-.8-2.6.3-7.7-.14-10.58,1.85-.05,3.66.42,5.12-.96-.15,2.29-.72,7.84,2.1,8.3l59.37.02Z"/>
      <g>
        <path class="cls-4" d="M135.25,81.5c0,4.69,0,9.4,0,14.09l-23.39-.14-.3-13.95c7.89-.16,15.8.12,23.69,0Z"/>
        <path class="cls-7" d="M111.56,81.5l.3,13.95,23.39.14c0,1.81,0,3.63,0,5.44l-28.36-.3c-.53-.51-.7-1.06-.78-1.78-.57-4.9.38-10.93.08-15.95.49-2.13,3.63-1.47,5.37-1.51Z"/>
      </g>
      <g>
        <path class="cls-11" d="M135.25,49.49v15.69c-4.36-.41-9.71.55-13.94.01-.45-.06-.83-.08-1.14-.46-.92-1.17.1-12.93-.29-15.24,5.11-.1,10.25.08,15.37,0Z"/>
        <path class="cls-8" d="M119.88,49.49c.39,2.31-.63,14.07.29,15.24.31.39.69.41,1.14.46,4.23.54,9.58-.43,13.94-.01v5.12l-19.84-.17c-.55-.38-1-.86-.98-1.58l.09-17.56c.49-2.13,3.63-1.47,5.37-1.51Z"/>
      </g>
      <path class="cls-3" d="M135.25,108.4c.01,1.7-.03,3.42,0,5.12h-28.66c-3.46-.16-3.77-4.73-.32-5.13h28.98Z"/>
      <path class="cls-12" d="M95.23,39.24c.01,4.58-.01,9.18,0,13.77-1.05-1.34-3.58-.92-5.12-.96.44-2.89-.66-7.98.14-10.58.7-2.27,3.17-2.14,4.98-2.22Z"/>
      <path class="cls-3" d="M95.23,71.58c0,3.94,0,7.9,0,11.85-1.06-1.34-3.58-.92-5.12-.96v-10.24c1.82-.04,3.5.32,5.12-.64Z"/>
      <path class="cls-1" d="M95.23,68.06c-1.5-.99-3.4-.61-5.12-.64v-10.24c1.81-.06,3.62.33,5.12-.96-.21,3.83.02,7.97,0,11.85Z"/>
      <path class="cls-1" d="M95.23,113.84c-1.51-1.29-3.31-.9-5.12-.96v-10.24c1.72-.03,3.62.35,5.12-.64,0,3.84-.24,8.06,0,11.85Z"/>
      <path class="cls-3" d="M95.23,98.47c-1.5-.99-3.4-.61-5.12-.64v-10.24c1.85-.05,3.66.42,5.12-.96-.21,3.83.02,7.97,0,11.85Z"/>
    </g>
    <path class="cls-6" d="M166.94,135.29c-23.9-.08-47.81.1-71.71,0,0-1.49,0-2.99,0-4.48,19.12.89,38.91-.66,58.11,0,3.54-.53,3.28-2.59,3.36-5.44.82-27.74-.6-55.62-.02-83.38-1.32-4.18-6.57-2.36-9.91-2.74v-9.92c4.56.02,11.92-.62,16.09.08,1.92.32,3.6,2.1,4.06,3.95l.02,101.95Z"/>
    <g>
      <path class="cls-13" d="M95.55,29.32c-.03,3.18-.33,6.62-.32,9.92-1.81.08-4.28-.04-4.98,2.22-.8,2.6.3,7.7-.14,10.58-3.33-.09-6.91-.1-10.24,0-.44-2.82.72-8.48-.32-10.88l.32-15.69c2.92-.13,10.02-.45,12.57.07,1.57.32,3.13,2.18,3.11,3.77Z"/>
      <path class="cls-5" d="M95.23,135.29c0,1.81.31,3.79.32,5.44s-1.55,3.45-3.11,3.77c-1.67.34-13.62.32-15.14-.08-1.45-.38-2.88-2.2-2.87-3.69.01-1.66.32-3.64.32-5.44,0-1.49,0-2.99,0-4.48,2.03-.09,3.64.18,4.8-1.92,0,.04.32.37.33.78.03,1.53-.6,5.05,1.18,5.56,4.72.14,9.46.05,14.18.07Z"/>
      <path class="cls-5" d="M79.86,25.48l-.32,15.69c-.71-1.63-3.23-2.09-4.8-1.92,0-2.94-.01-5.89.02-8.84,0-.58-.34-1.03-.34-1.08-.03-3.27,2.99-3.73,5.44-3.84Z"/>
      <path class="cls-6" d="M79.86,52.05c3.33-.1,6.91-.09,10.24,0,1.54.04,4.07-.38,5.12.96,1.16,1.47.05,2.26,0,3.2-1.51,1.29-3.31.9-5.12.96-3.31.1-6.94.11-10.24,0-1.93-.06-5.51.42-5.67-2.45-.17-3.12,3.73-2.62,5.67-2.67Z"/>
      <path class="cls-6" d="M79.86,82.46c3.33-.1,6.91-.09,10.24,0,1.55.04,4.06-.38,5.12.96,1.16,1.47.05,2.25,0,3.2-1.46,1.38-3.28.91-5.12.96-3.33.09-6.91.1-10.24,0-1.94-.06-5.84.45-5.67-2.67.16-2.95,3.7-2.39,5.67-2.45Z"/>
      <path class="cls-6" d="M79.86,112.88c3.32-.09,6.93-.1,10.24,0,1.81.06,3.62-.33,5.12.96.02.36.52.97.55,1.49.03.7-.52,1.29-.55,1.71-1.46,1.38-3.28.91-5.12.96-3.33.09-6.91.1-10.24,0-1.94-.06-5.84.45-5.67-2.67.16-2.95,3.7-2.39,5.67-2.45Z"/>
      <path class="cls-6" d="M79.86,97.83c3.39-.09,6.85-.06,10.24,0,1.72.03,3.62-.35,5.12.64,0,1.13,0,2.39,0,3.52-1.5,1-3.4.61-5.12.64-3.39.07-6.86.09-10.24,0-2.2-.06-5.47.81-5.47-2.4s3.27-2.34,5.47-2.4Z"/>
      <path class="cls-6" d="M79.86,67.42c3.39-.09,6.85-.06,10.24,0,1.72.03,3.62-.35,5.12.64,0,1.13,0,2.39,0,3.52-1.63.96-3.3.6-5.12.64-3.39.08-6.86.09-10.24,0-2.2-.06-5.47.81-5.47-2.4s3.27-2.34,5.47-2.4Z"/>
      <path class="cls-13" d="M90.11,57.17v10.24c-3.39-.06-6.86-.09-10.24,0v-10.24c3.31.11,6.94.1,10.24,0Z"/>
      <path class="cls-13" d="M90.11,72.22v10.24c-3.33-.09-6.91-.1-10.24,0v-10.24c3.39.09,6.86.08,10.24,0Z"/>
      <path class="cls-13" d="M90.11,87.59v10.24c-3.39-.06-6.86-.09-10.24,0v-10.24c3.33.1,6.91.09,10.24,0Z"/>
      <path class="cls-13" d="M90.11,102.63v10.24c-3.32-.1-6.92-.09-10.24,0v-10.24c3.39.09,6.85.07,10.24,0Z"/>
    </g>
    <g>
      <path class="cls-2" d="M146.77,29.32v9.92c0,25.87,0,51.76,0,77.63-.07.78-.66.96-1.38.75-1.41-.4-3.47-5.52-5.35-3.79V29.32c2.24,0,4.49-.01,6.72,0Z"/>
      <path class="cls-9" d="M140.05,29.32v84.52c-.16.14-.33.79-.64,1.11-.58.62-3.49,4.13-4.12,2.2-.24-.75-.03-2.67-.05-3.63-.03-1.7.01-3.42,0-5.12-.02-2.45,0-4.91,0-7.36,0-1.81,0-3.63,0-5.44,0-4.69,0-9.4,0-14.09,0-3.73,0-7.48,0-11.21V29.32c1.6,0,3.21,0,4.8,0Z"/>
    </g>
  </g>
  <path class="cls-13" d="M8.15,29.32v101.02c.14,2.32.5,4.9,3.35,4.96l63.24-.02c0,1.81-.31,3.79-.32,5.44H7.67c-2.38-.27-3.45-1.64-4.64-3.52V32.84c1.19-1.95,2.64-3.61,5.12-3.52Z"/>
  <g>
    <path class="cls-10" d="M74.74,39.24c1.57-.17,4.1.29,4.8,1.92,1.04,2.41-.12,8.07.32,10.88-1.94.06-5.84-.45-5.67,2.67.16,2.87,3.73,2.39,5.67,2.45v10.24c-2.2.06-5.47-.81-5.47,2.4s3.27,2.34,5.47,2.4v10.24c-1.97.06-5.51-.5-5.67,2.45-.17,3.12,3.73,2.62,5.67,2.67v10.24c-2.2.06-5.47-.81-5.47,2.4s3.27,2.34,5.47,2.4v10.24c-1.97.06-5.51-.5-5.67,2.45-.17,3.12,3.73,2.62,5.67,2.67,0,2.45,0,4.91,0,7.36l-59.88-.14c-1.21-.38-1.57-1.73-1.6-2.88V39.24c18.55-.86,37.75.65,56.36,0ZM33.12,76.38c-.44,1.82-1.84,5.57.49,6.07l24,6.11c2.65.43,2.26-3.17,2.72-4.82,1.22-4.32,3.46-10.31,4.09-14.64.12-.83.3-1.74-.38-2.35-.64-.57-8.83-2.44-10.43-2.86v-4.8c0-1.81.35-7.82-.5-8.95-.2-.26-.46-.42-.76-.52-7.89-.12-15.83-.33-23.71-.14-1.7.04-3.9-.58-4.47,1.45v23.99c.49,2.61,6.89,1.02,8.96,1.45ZM23.74,98.54c-3.12,1.19-2.6,4.52.57,5.06h34.59c3.54-.61,3.53-4.53,0-5.14l-35.16.07ZM60.87,109.14c-.43-.47-1.32-.79-1.96-.76-10.97.94-23.86-1.18-34.6.01-3.84.43-3.37,4.92.33,5.13,10.74-.89,23.43,1.19,33.93,0,2.31-.26,4.16-2.35,2.3-4.38ZM23.43,118.39c-3.25,1.76-1.93,4.7,1.54,5.05,4.94.5,15.86.49,20.8,0,3.71-.37,4.7-3.59,1.26-5.1l-23.6.05Z"/>
    <path class="cls-1" d="M18.39,39.24v83.09c.02,1.15.37,2.51,1.58,2.88l59.88.14c0,1.19-.33,2.71-.32,3.52-1.16,2.1-2.78,1.83-4.8,1.92-19.02.89-38.7-.67-57.8.01-1.91.03-3.7-1.38-3.68-3.36V42.28c.58-3.02,2.65-2.92,5.14-3.03Z"/>
    <path class="cls-3" d="M60.87,109.14c1.86,2.04.01,4.12-2.3,4.38-10.51,1.19-23.2-.89-33.93,0-3.7-.21-4.17-4.7-.33-5.13,10.74-1.19,23.63.93,34.6-.01.64-.03,1.53.29,1.96.76Z"/>
    <path class="cls-3" d="M23.74,98.54l35.16-.07c3.53.6,3.54,4.53,0,5.14H24.31c-3.17-.54-3.68-3.87-.57-5.06Z"/>
    <path class="cls-3" d="M23.43,118.39l23.6-.05c3.44,1.51,2.45,4.73-1.26,5.1-4.94.49-15.86.5-20.8,0-3.47-.35-4.78-3.29-1.54-5.05Z"/>
    <g>
      <path class="cls-4" d="M53.61,63.9c1.6.42,9.79,2.29,10.43,2.86.69.61.5,1.52.38,2.35-.62,4.33-2.87,10.32-4.09,14.64-2.51-.71-21.03-4.8-21.62-5.76-.63-1.02,3.62-14.48,4.01-16.65,3.58.87,7.28,1.62,10.88,2.56Z"/>
      <path class="cls-7" d="M42.72,61.33c-.39,2.17-4.64,15.63-4.01,16.65.58.95,19.11,5.05,21.62,5.76-.47,1.66-.07,5.26-2.72,4.82l-24-6.11c-2.32-.5-.93-4.26-.49-6.07l4.46-15.78c1.1-1.36,3.89.43,5.14.73Z"/>
    </g>
    <g>
      <path class="cls-8" d="M28.64,49.49l-.02,20.98c.1,1.22.75,1.61,1.32.33,2.1-4.65,1.36-14.35,7.84-15.2,4.26-.56,11.33,3.05,15.82,3.49v4.8c-3.61-.94-7.3-1.69-10.88-2.56-1.25-.3-4.04-2.1-5.14-.73l-4.46,15.78c-2.07-.43-8.47,1.17-8.96-1.45v-23.99c.57-2.03,2.78-1.41,4.47-1.45Z"/>
      <path class="cls-11" d="M53.61,59.09c-4.49-.44-11.56-4.06-15.82-3.49-6.49.86-5.75,10.56-7.84,15.2-.58,1.28-1.22.89-1.32-.33l.02-20.98c7.88-.19,15.82.02,23.71.14.31.1.57.25.76.52.85,1.13.5,7.14.5,8.95Z"/>
    </g>
  </g>
  <path class="cls-6" d="M74.42,29.32c0,.06.35.5.34,1.08-.03,2.95-.02,5.9-.02,8.84-18.61.65-37.81-.86-56.35,0-2.48.12-4.56.02-5.13,3.03v85.18c-.03,1.98,1.77,3.39,3.68,3.36,19.09-.68,38.78.87,57.8-.01,0,1.49,0,2.99,0,4.48l-63.24.02c-2.85-.06-3.2-2.64-3.36-4.96V29.32h66.28Z"/>
</svg>