<?xml version="1.0" encoding="UTF-8"?>
<svg id="Layer_1" data-name="Layer 1" xmlns="http://www.w3.org/2000/svg" viewBox="0 0 170 170">
  <defs>
    <style>
      .cls-1 {
        fill: #61c8f9;
      }

      .cls-2 {
        fill: #f6b64c;
      }

      .cls-3 {
        fill: #1cb0f6;
      }

      .cls-4 {
        fill: #292b2a;
      }

      .cls-5 {
        fill: #fed05c;
      }

      .cls-6 {
        fill: #89d6f6;
      }
    </style>
  </defs>
  <path class="cls-3" d="M125.54,39.1c.06.39.13.7.46.97l17.56,17.53.8-.32.46,1.29c5.65,6.43,13.45,12.29,18.84,18.8,1.44,1.74,2.18,3.35,3.03,5.42v4.46c-1.4,6.93-9.24,10.82-15.63,7.65-1.17-.58-2.25-1.81-3.36-2.54l-62.16-62.21-.6-.28-62.54,62.49c-1.27,1.09-3.37,2.73-4.95,3.18-10,2.82-17.69-7.52-12.38-16.37,16.59-17.47,33.96-34.29,50.97-51.39,6.65-6.69,13.76-15.2,20.87-21.22,5.07-4.3,10.88-4.3,15.96,0l32.68,32.53Z"/>
  <g>
    <path class="cls-5" d="M151.05,106.71v59.95h-78.45v-38.76c-1.5-26.45-35.87-27.87-40.19-2.87v41.63s-14.66,0-14.66,0c-.27-19.5.36-39.04.01-58.54-.01-.61-.33-1.18-.33-1.41L84.29,40.4l66.76,66.31ZM136.7,107.02h-52.3v45.92h52.3v-45.92Z"/>
    <path class="cls-2" d="M151.05,94.91v11.8L84.29,40.4,17.44,106.71c-.08-3.71.06-7.45,0-11.16,1.58-.45,3.69-2.09,4.95-3.18l62.54-62.49.6.28,62.16,62.21c1.11.74,2.19,1.96,3.36,2.54Z"/>
  </g>
  <rect class="cls-1" x="118.21" y="10.08" width="33.16" height="17.86"/>
  <path class="cls-3" d="M144.35,27.94v29.34l-.8.32-17.56-17.53c-.33-.27-.39-.57-.46-.97-.52-3.25.38-7.76,0-11.16h18.81Z"/>
  <g>
    <path class="cls-4" d="M72.6,166.66h-40.18v-41.63c4.31-25.01,38.67-23.58,40.19,2.87v38.76Z"/>
    <g>
      <path class="cls-4" d="M136.7,107.02v45.92h-52.3v-45.92h52.3ZM107.68,112.45h-17.86v35.08h17.86v-35.08ZM131.28,112.45h-17.86v35.08h17.86v-35.08Z"/>
      <rect class="cls-6" x="89.82" y="112.45" width="17.86" height="35.08"/>
      <rect class="cls-6" x="113.42" y="112.45" width="17.86" height="35.08"/>
    </g>
  </g>
</svg>