<?xml version="1.0" encoding="UTF-8"?>
<svg id="Layer_1" data-name="Layer 1" xmlns="http://www.w3.org/2000/svg" viewBox="0 0 170 170">
  <defs>
    <style>
      .cls-1 {
        fill: #ffc418;
      }

      .cls-2 {
        fill: #feb400;
      }

      .cls-3 {
        fill: #292b2a;
      }

      .cls-4 {
        fill: #474747;
      }
    </style>
  </defs>
  <g>
    <path class="cls-3" d="M100.4,144.37v-59.37c-16.15,0-32.31,0-48.46,0v-29.85l41.29-33c3.84-2.03,7.59.75,7.5,4.91-.33,38.51.4,77.04,0,115.55,0,.54.2,1.43-.33,1.76Z"/>
    <g>
      <path class="cls-3" d="M167.16,85c-.07,13.04-2.42,26.08-7.23,38.19-1.11,2.81-5,11.86-7.06,13.48-3.65,2.88-8.59-.27-7.84-4.95.31-1.93,3.62-7.21,4.62-9.5,5.03-11.51,7.72-24.64,7.87-37.22h9.63Z"/>
      <path class="cls-4" d="M167.16,85h-9.63c.14-11.93-2.92-25.62-7.55-36.57-1.03-2.42-4.7-8.55-4.94-10.47-.54-4.44,4.38-7.34,7.84-4.62,2.06,1.63,5.94,10.67,7.06,13.48,4.82,12.15,7.29,25.09,7.23,38.19Z"/>
      <path class="cls-3" d="M145.33,85c-.06,11.14-2.22,23.17-7,33.27-.88,1.86-1.78,4.33-3.78,5.21-3.84,1.69-7.34-1.19-6.88-5.27.25-2.15,3.42-8.02,4.33-10.76,2.32-7,3.64-15.07,3.7-22.45h9.63Z"/>
      <path class="cls-4" d="M145.33,85h-9.63c.07-7.72-1.61-16.64-4.17-23.91-.8-2.28-3.66-7.49-3.86-9.29-.62-5.43,5.89-7.87,8.94-3.48,5.83,8.4,8.77,26.6,8.72,36.69Z"/>
      <path class="cls-4" d="M123.51,85h-9.63c.02-4.81-.92-9.75-2.16-14.37-.87-3.22-3.43-6.67-.09-9.55,2.65-2.29,6.29-1.15,7.77,1.87,2.94,6.01,4.15,15.4,4.11,22.04Z"/>
      <path class="cls-3" d="M123.51,85c-.04,6.47-1.26,16.47-4.21,22.27-1.5,2.94-5.13,3.85-7.67,1.65-3.44-2.98-.44-7.56.49-11.08,1.04-3.95,1.75-8.75,1.77-12.84h9.63Z"/>
    </g>
  </g>
  <g>
    <g>
      <path class="cls-2" d="M51.94,85c0,9.94,0,19.9,0,29.85H16.15c-6.62-.51-11.53-5.36-13.31-11.55v-18.29h49.1Z"/>
      <path class="cls-1" d="M51.94,55.15v29.85H2.84v-17.97c1.55-6.01,5.93-10.67,12.18-11.73l36.92-.14Z"/>
    </g>
    <path class="cls-4" d="M51.94,85c16.15,0,32.31,0,48.46,0v59.37c-.34,3.41-4.26,5.26-7.16,3.47l-41.3-33c0-9.94,0-19.9,0-29.85Z"/>
  </g>
</svg>