<?xml version="1.0" encoding="UTF-8"?>
<svg id="Layer_1" data-name="Layer 1" xmlns="http://www.w3.org/2000/svg" viewBox="0 0 170 170">
  <defs>
    <style>
      .cls-1 {
        fill: #f0d234;
      }

      .cls-2 {
        fill: #474948;
      }

      .cls-3 {
        fill: #292b2a;
      }

      .cls-4 {
        fill: #e5a62f;
      }

      .cls-5 {
        fill: #eee6e3;
      }

      .cls-6 {
        fill: #d9cfca;
      }
    </style>
  </defs>
  <g>
    <path class="cls-2" d="M35,74.99c.27,6.96-.35,14.16-.01,21.09.82,16.84,10.92,28.89,27.96,30.87,14.26-.66,29.32.89,43.48.02,10.27-.63,19.74-6.51,24.71-15.48,6.01-10.86,3.2-24.54,3.87-36.5,1.75.76,3.51-.06,5.23.33-.2,17.57,2.73,34.46-11.43,47.56-11.26,10.41-22.03,9.2-36.28,9.31-2.5.02-5.02,0-7.52,0s-4.8.02-7.19,0c-.11,0-.22,0-.33,0-16.26-.12-29.26.69-40.19-13.57-10.09-13.16-7.1-28.07-7.52-43.62,1.04.48,4.15.47,5.23,0Z"/>
    <g>
      <path class="cls-1" d="M68.66,50.8c18.4-.06,36.83.05,55.23,0,3.96.37,6.72,2.98,8.17,6.54-.01,1.09,0,2.18,0,3.27,0,.54,0,1.09,0,1.63-1.55,3.71-3.99,6.18-8.17,6.54-19.17-.05-38.35.07-57.52,0-6.3-1.86-9.58-9.06-5.22-14.54,1.53-1.92,3.19-2.29,5.22-3.44.76,0,1.53,0,2.29,0Z"/>
      <path class="cls-4" d="M46.11,50.8c6.13-.57,13.92.03,20.26,0-2.03,1.15-3.69,1.52-5.22,3.44-4.36,5.48-1.08,12.67,5.22,14.54-6.41-.02-14.03.53-20.26,0-4.13-.35-6.71-2.82-8.17-6.54,0-.54,0-1.09,0-1.63,0-1.09.01-2.18,0-3.27,1.38-3.58,4.25-6.17,8.17-6.54Z"/>
    </g>
  </g>
  <g>
    <g>
      <path class="cls-5" d="M123.89,50.8c-18.41.05-36.83-.06-55.23,0l-.06-12.79c1.32-1.7,1.32-4.08-.02-5.77.3-5.18.25-10.47,1.71-15.42-.27,8.87,12.19,5.68,8.79-1.44-1.69-3.54-6.23-3.03-8.46-.2.87-5.29,3.29-10.08,7.19-13.73,13.88-.44,28.1-1.45,38.08,9.8s6.92,23.29,7.66,36.78c.05.93.45,1.81.34,2.77ZM99.75,17.57c0-2.59-2.1-4.69-4.69-4.69s-4.69,2.1-4.69,4.69,2.1,4.69,4.69,4.69,4.69-2.1,4.69-4.69ZM89.7,35.13c0-2.59-2.1-4.69-4.69-4.69s-4.69,2.1-4.69,4.69,2.1,4.69,4.69,4.69,4.69-2.1,4.69-4.69ZM109.79,35.12c0-2.58-2.09-4.68-4.68-4.68s-4.68,2.09-4.68,4.68,2.09,4.68,4.68,4.68,4.68-2.09,4.68-4.68Z"/>
      <path class="cls-6" d="M77.81,1.45c-3.9,3.65-6.32,8.44-7.19,13.73-.08.5-.32,1.25-.33,1.63-1.47,4.95-1.42,10.24-1.71,15.42-1.24-1.57-3.33-2.18-5.22-1.52s-3.15,2.44-3.14,4.44,1.28,3.77,3.17,4.42,3.98.02,5.21-1.56l.06,12.79c-.76,0-1.53,0-2.29,0-6.34.03-14.13-.57-20.26,0l.7-23C49.31,10.75,61.04,1.99,77.81,1.45Z"/>
      <path class="cls-3" d="M70.29,16.81c.01-.38.24-1.14.33-1.63,2.23-2.83,6.77-3.34,8.46.2,3.4,7.11-9.06,10.31-8.79,1.44Z"/>
      <circle class="cls-3" cx="95.06" cy="17.57" r="4.69"/>
      <circle class="cls-3" cx="85.01" cy="35.13" r="4.69"/>
      <circle class="cls-3" cx="64.9" cy="35.14" r="4.68"/>
      <circle class="cls-3" cx="105.11" cy="35.12" r="4.68"/>
    </g>
    <path class="cls-2" d="M66.37,68.78c19.17.07,38.35-.05,57.52,0,.06,1.45-.27,2.8-.33,4.25h-54.91c.15,11.58-.83,23.79,3.26,34.81,1.28,3.46,3.01,6.6,5.89,8.98-9.9-.28-17.79-2.65-24.35-10.45-8.63-10.26-6.44-21.21-7.01-33.52-.06-1.31-.59-2.67-.34-4.07,6.24.53,13.85-.02,20.26,0Z"/>
    <path class="cls-3" d="M123.56,73.03c-.43,10.71,1.17,20.5-4.77,30.04-9.5,15.27-24.98,14.21-40.99,13.75-2.88-2.38-4.6-5.52-5.89-8.98-4.09-11.02-3.11-23.23-3.26-34.81h54.91Z"/>
  </g>
  <g>
    <path class="cls-5" d="M142.85,60.61c-2.12,5.35-8.57,5.37-10.78,0,0-1.09-.01-2.18,0-3.27.03-2.62-.48-8.28.59-10.36,2.25-4.35,9.31-3.36,10.12,1.45.53,3.17.1,8.73.08,12.18Z"/>
    <path class="cls-6" d="M142.85,60.61c-.02,3.55.76,10.29-1.19,12.99-.49.68-1.44.74-1.42,1.72-1.72-.39-3.48.43-5.23-.33-.93-.4-2.66-2.49-2.87-3.51-.47-2.29-.05-6.67-.07-9.24,0-.54,0-1.09,0-1.63,2.21,5.37,8.67,5.35,10.78,0Z"/>
  </g>
  <g>
    <path class="cls-5" d="M37.94,57.34c.01,1.09,0,2.18,0,3.27-2.21,5.37-8.67,5.35-10.78,0-.02-3.45-.45-9,.08-12.18.82-4.88,8.01-5.88,10.18-1.19,1,2.16.5,7.45.52,10.1Z"/>
    <path class="cls-6" d="M37.94,60.61c0,.54,0,1.09,0,1.63-.04,3.7,1.15,10.98-2.94,12.75-1.08.47-4.19.48-5.23,0-.83-.39-2.44-2.8-2.59-3.78-.44-2.79,0-7.55-.02-10.6,2.12,5.35,8.57,5.37,10.78,0Z"/>
  </g>
  <g>
    <path class="cls-3" d="M77.48,156.04c0,.24.11.29.33.33,1.7.32,5.22-.01,7.19,0,2.5.01,5.02-.01,7.52,0,3.52.02,13.56-.61,16.19.31,1.19.42,2.87,1.98,3.38,3.15,1.67,3.82-.37,7.31-3.89,8.96h-32.68l-3.01-3.04c-1.26-2.37-1.23-4.76.4-6.93l3.59-2.78h.98Z"/>
    <path class="cls-2" d="M76.5,156.04l-3.59,2.78c-1.63,2.17-1.66,4.56-.4,6.93l3.01,3.04h-13.73c-7.14-3.36-5.55-12.06,2.46-12.74,3.78-.32,8.37,0,12.25,0Z"/>
    <g>
      <path class="cls-1" d="M92.52,132.18v24.18c-2.5-.01-5.02.01-7.52,0v-24.18c2.5,0,5.02.02,7.52,0Z"/>
      <path class="cls-1" d="M77.81,156.36c-.21-.04-.32-.09-.33-.33v-23.86c.11,0,.22,0,.33,0v24.18Z"/>
      <path class="cls-4" d="M85,132.18v24.18c-1.97-.01-5.49.32-7.19,0v-24.18c2.39.02,4.8,0,7.19,0Z"/>
    </g>
  </g>
</svg>